<svg xmlns="http://www.w3.org/2000/svg" width="52.687" height="20.259" viewBox="0 0 52.687 20.259">
  <path id="パス_22222" data-name="パス 22222" d="M1.828-17.25H14.074v3.035H5.414v3.973H13v3H5.414V0H1.828ZM22.3-6.527h4.383l-2.156-6.8Zm.223-10.746H26.6L32.716,0H28.8L27.689-3.551H21.326L20.13,0H16.357Zm22.392,14.7a4.642,4.642,0,0,0,1.2-.152,5.95,5.95,0,0,0,.809-.293L45.171-4.687l1.863-1.945L48.78-4.969a8.16,8.16,0,0,0,.574-1.477,8.5,8.5,0,0,0,.258-2.215,7.377,7.377,0,0,0-1.189-4.494,4.072,4.072,0,0,0-3.475-1.588,4.238,4.238,0,0,0-3.422,1.523A6.958,6.958,0,0,0,40.249-8.66q0,3.551,1.828,5.086A4.26,4.26,0,0,0,44.913-2.578Zm8.309-6.34a11.491,11.491,0,0,1-.562,3.867,6.443,6.443,0,0,1-1.348,2.473L53.3-.715,51.417,1.254,49.331-.715a8.693,8.693,0,0,1-1.641.809A8.826,8.826,0,0,1,44.913.48a7.946,7.946,0,0,1-5.578-2.016Q36.663-3.961,36.663-8.66q0-4.734,2.742-7.16a8.094,8.094,0,0,1,5.566-1.98A7.983,7.983,0,0,1,50.6-15.7,8.779,8.779,0,0,1,53.222-8.918Z" transform="translate(-1.328 18.301)" fill="none" stroke="#666" stroke-width="1"/>
</svg>
