<svg xmlns="http://www.w3.org/2000/svg" width="106.848" height="168.448" viewBox="0 0 106.848 168.448">
  <path id="_" data-name="?" d="M111.1-48.608c.448-18.816,7.616-30.912,24.192-41.664,15.456-10.08,15.456-10.08,20.16-15.008,6.72-6.944,9.856-15.008,9.856-25.536,0-24.192-19.04-38.528-51.072-38.528-14.336,0-26.208,2.688-36.288,8.512-11.872,6.944-19.488,19.264-19.488,31.584,0,6.5,4.032,9.408,12.768,9.408,7.616,0,10.08-2.24,10.08-9.632.224-9.184,1.12-14.336,3.584-19.712,4.48-9.408,13.888-14.336,27.1-14.336,9.856,0,17.248,2.688,22.848,8.064,5.824,5.824,8.96,14.112,8.96,23.3a40.4,40.4,0,0,1-5.6,20.832c-2.688,4.7-2.912,4.928-15.008,16.8-11.2,10.752-17.472,21.28-19.264,31.584-.9,4.032-.9,6.944-.9,14.336Zm-3.584,17.7A14.731,14.731,0,0,0,92.512-15.9,14.731,14.731,0,0,0,107.52-.9,14.731,14.731,0,0,0,122.528-15.9,14.731,14.731,0,0,0,107.52-30.912Z" transform="translate(-58.464 169.344)" opacity="0.04"/>
</svg>
