<svg xmlns="http://www.w3.org/2000/svg" width="142.698" height="19.223" viewBox="0 0 142.698 19.223">
  <path id="パス_22222" data-name="パス 22222" d="M1.828-17.25H14.074v3.035H5.414v3.973H13v3H5.414V0H1.828Zm29.834,3.035H22.521v3.668h8.391v3H22.521v4.441h9.563V0H18.994V-17.273H31.662ZM42.019-6.527H46.4l-2.156-6.8Zm.223-10.746H46.32L52.437,0H48.523L47.409-3.551H41.046L39.851,0H36.077Zm25.568,0v3.059H62.641V0H59.009V-14.215H53.817v-3.059Zm4.509,0h3.668V-6.656a6,6,0,0,0,.422,2.6Q77.065-2.6,79.268-2.6t2.848-1.453a6,6,0,0,0,.422-2.6V-17.273h3.668V-6.656a8.893,8.893,0,0,1-.855,4.289Q83.756.445,79.268.445T73.174-2.367a8.893,8.893,0,0,1-.855-4.289Zm23.341,3v4.641h4.09a4.558,4.558,0,0,0,1.828-.281,1.924,1.924,0,0,0,1.078-1.945,2.147,2.147,0,0,0-1.043-2.109,3.942,3.942,0,0,0-1.758-.3Zm4.945-3a7.893,7.893,0,0,1,2.795.445,4.366,4.366,0,0,1,1.658,1.207,5.348,5.348,0,0,1,.891,1.453,4.736,4.736,0,0,1,.328,1.816,5.175,5.175,0,0,1-.621,2.42,3.471,3.471,0,0,1-2.051,1.682A3.225,3.225,0,0,1,105.3-6.885a5.683,5.683,0,0,1,.5,2.7v1.16a8.874,8.874,0,0,0,.094,1.605,1.442,1.442,0,0,0,.656.984V0h-3.973q-.164-.574-.234-.926a8.506,8.506,0,0,1-.152-1.488l-.023-1.605a3.137,3.137,0,0,0-.6-2.2,3.2,3.2,0,0,0-2.174-.551H95.66V0H92.133V-17.273Zm23.951,3.059h-9.141v3.668h8.391v3h-8.391v4.441h9.563V0h-13.09V-17.273h12.668ZM132.8-5.332a3.547,3.547,0,0,0,.645,1.77A3.709,3.709,0,0,0,136.46-2.5a6.356,6.356,0,0,0,2.074-.281,2,2,0,0,0,1.512-2,1.479,1.479,0,0,0-.75-1.324,8.065,8.065,0,0,0-2.355-.809l-1.828-.41a11.552,11.552,0,0,1-3.727-1.324,4.212,4.212,0,0,1-1.746-3.738,4.992,4.992,0,0,1,1.688-3.855,7.135,7.135,0,0,1,4.957-1.535,7.537,7.537,0,0,1,4.658,1.447,5.167,5.167,0,0,1,2.021,4.2H139.5a2.478,2.478,0,0,0-1.359-2.215,4.559,4.559,0,0,0-2.1-.434,3.916,3.916,0,0,0-2.227.563,1.791,1.791,0,0,0-.832,1.57,1.486,1.486,0,0,0,.82,1.383,10.041,10.041,0,0,0,2.25.715l2.977.715a7.7,7.7,0,0,1,2.953,1.254,4.223,4.223,0,0,1,1.547,3.527,4.978,4.978,0,0,1-1.811,3.932A7.586,7.586,0,0,1,136.6.445,8.3,8.3,0,0,1,131.292-1.1a5.121,5.121,0,0,1-1.934-4.236Z" transform="translate(-1.328 18.277)" fill="none" stroke="#fff" stroke-width="1"/>
</svg>
