<svg xmlns="http://www.w3.org/2000/svg" xmlns:xlink="http://www.w3.org/1999/xlink" width="212" height="35" viewBox="0 0 212 35">
  <defs>
    <clipPath id="clip-path">
      <rect id="長方形_54" data-name="長方形 54" width="212" height="35" transform="translate(0 0)" fill="#fff"/>
    </clipPath>
  </defs>
  <g id="LOGO" transform="translate(0 0)">
    <g id="グループ_12" data-name="グループ 12" transform="translate(0 0)" clip-path="url(#clip-path)">
      <path id="パス_13" data-name="パス 13" d="M.6.89H7.3V25.27H22.5v6.095H.6Z" transform="translate(0.48 0.712)" fill="#fff" stroke="#1a1311" stroke-miterlimit="10" stroke-width="1.2"/>
      <path id="パス_14" data-name="パス 14" d="M44.6.769h6.183L63.844,31.461H56.835l-2.786-6.835H41.162l-2.785,6.835H31.543Zm7.053,17.937L47.606,8.824l-4.05,9.882Z" transform="translate(25.235 0.615)" fill="#fff" stroke="#1a1311" stroke-miterlimit="10" stroke-width="1.2"/>
      <path id="パス_15" data-name="パス 15" d="M95.754,32.509l-3.353-3a16.609,16.609,0,0,1-9.054,2.614c-9.4,0-16.152-7.009-16.152-15.671v-.088C67.2,7.7,74.03.6,83.433.6S99.585,7.608,99.585,16.271v.088a15.631,15.631,0,0,1-2.7,8.75l3.136,2.657Zm-8.316-7.4-4.963-4.223,4.266-4.79,5.008,4.529a10.687,10.687,0,0,0,.826-4.178v-.088a9.258,9.258,0,0,0-9.229-9.578c-5.4,0-9.142,4.266-9.142,9.49v.088a9.383,9.383,0,0,0,13.234,8.75Z" transform="translate(53.758 0.48)" fill="#fff" stroke="#1a1311" stroke-miterlimit="10" stroke-width="1.2"/>
      <path id="パス_16" data-name="パス 16" d="M104.648,26.248l10.143-8.316c3.787-3.134,5.269-4.788,5.269-7.314a3.74,3.74,0,0,0-4.093-3.962c-2.351,0-3.962,1.307-6.224,4.093l-4.7-3.789c3-4.091,5.92-6.313,11.362-6.313,6.313,0,10.491,3.7,10.491,9.405v.086c0,5.094-2.61,7.618-8.008,11.8l-4.964,3.83H127.2v5.791H104.648Z" transform="translate(83.721 0.518)" fill="#fff" stroke="#1a1311" stroke-miterlimit="10" stroke-width="1.2"/>
    </g>
  </g>
</svg>
