<svg id="logo" xmlns="http://www.w3.org/2000/svg" width="172.939" height="51.465" viewBox="0 0 172.939 51.465">
  <path id="shape" d="M137.692,41.4H33.2l8.334,8.334Z" transform="translate(1.388 1.73)" fill="#fff"/>
  <path id="n" d="M149.859,37.466V20.8a5.328,5.328,0,1,1,10.626,0V37.466h6.459V20.8c0-6.876-4.688-12.4-11.564-12.4a10.242,10.242,0,0,0-5.522,1.771V9.025H143.4V37.362h6.459Z" transform="translate(5.994 0.351)" fill="#fff"/>
  <path id="e" d="M129.614,8.3c-7.5,0-12.814,6.563-12.814,14.9,0,8.751,6.668,14.9,13.439,14.9,3.438,0,7.709-1.146,11.356-6.355l-5.73-3.334c-4.376,6.459-11.772,3.23-12.606-3.334H141.8C143.47,15.072,136.907,8.3,129.614,8.3Zm5.626,11.251H123.676C125.03,12.988,133.99,12.571,135.24,19.551Z" transform="translate(4.882 0.347)" fill="#fff"/>
  <path id="t" d="M115.406,30.954a3.928,3.928,0,0,1-2.188.729,3.175,3.175,0,0,1-3.021-3.438V16.056h5.522V9.284H110.2V2.2h-6.459V9.284H100.3v6.772h3.438V28.245a9.68,9.68,0,0,0,9.585,10.105,13.6,13.6,0,0,0,6.251-1.771Z" transform="translate(4.192 0.092)" fill="#fff"/>
  <path id="u" d="M92.685,9V25.669a5.328,5.328,0,1,1-10.626,0V9H75.6V25.669c0,6.876,4.688,12.4,11.564,12.4A10.242,10.242,0,0,0,92.686,36.3v1.042h6.459V9Z" transform="translate(3.16 0.376)" fill="#fff"/>
  <path id="k" d="M64.493,22.711,75.536,9.376H66.577l-7.813,9.9V0H52.2V37.817h6.563V26.149l9.585,11.668h8.959Z" transform="translate(2.182)" fill="#fff"/>
  <path id="a" d="M43.261,9.029v1.25A10.474,10.474,0,0,0,37.218,8.3C29.926,8.3,24.3,14.968,24.3,23.2s5.522,14.9,12.918,14.9a10.233,10.233,0,0,0,6.042-1.979v1.25H49.72V9.029ZM37.114,31.324c-3.646,0-6.251-3.542-6.251-8.022s2.6-8.022,6.251-8.022,6.147,3.542,6.147,8.022C43.365,27.782,40.76,31.324,37.114,31.324Z" transform="translate(1.016 0.347)" fill="#fff"/>
  <path id="R" d="M6.772,37.725V26.682H11.46l8.23,10.939h8.439l-10-13.231A12.243,12.243,0,0,0,11.043,2.2H0V37.621H6.772Zm0-28.754h4.376a5.522,5.522,0,1,1,0,11.043H6.772Z" transform="translate(0 0.092)" fill="#fff"/>
</svg>
