<?xml version="1.0" encoding="utf-8"?>
<!-- Generator: Adobe Illustrator 25.4.1, SVG Export Plug-In . SVG Version: 6.00 Build 0)  -->
<svg version="1.1" id="btn_buy" xmlns="http://www.w3.org/2000/svg" xmlns:xlink="http://www.w3.org/1999/xlink" x="0px" y="0px"
	 viewBox="0 0 127 127" style="enable-background:new 0 0 127 127;" xml:space="preserve">
<style type="text/css">
	.st0{enable-background:new    ;}
	.st1{fill:#FFFFFF;}
</style>
<circle id="楕円形_20" cx="63.5" cy="63.5" r="63.5"/>
<g class="st0">
	<path class="st1" d="M48.2,62.7c0.5,0.1,1,0.2,1.5,0.3c0.5,0.2,1,0.4,1.4,0.7c0.4,0.3,0.8,0.7,1,1.1c0.3,0.5,0.4,1,0.4,1.6
		c0,0.7-0.1,1.3-0.4,1.9c-0.3,0.6-0.6,1-1.1,1.4c-0.5,0.4-1.1,0.7-1.8,0.9c-0.7,0.2-1.4,0.3-2.3,0.3h-3.8c-0.3,0-0.6,0-0.9,0
		c-0.3,0-0.7,0-1,0c-0.4,0-0.7,0-1.1,0c0,0,0-0.1,0-0.1c0,0,0-0.1,0-0.1c0,0,0-0.1,0-0.1c0-0.2,0.1-0.4,0.3-0.4
		c0.6-0.1,1.1-0.3,1.3-0.4c0.2-0.1,0.4-0.3,0.4-0.7V57.1c0-0.2,0-0.3-0.1-0.4c-0.1-0.1-0.1-0.2-0.3-0.3c-0.1-0.1-0.3-0.1-0.5-0.2
		c-0.2-0.1-0.5-0.1-0.8-0.2c-0.2,0-0.3-0.2-0.3-0.5c0-0.1,0-0.1,0-0.2c0,0,0-0.1,0-0.1c0.5,0,1,0.1,1.5,0.1c0.6,0,1,0,1.4,0h3
		c0.9,0,1.7,0.1,2.3,0.3c0.6,0.2,1.1,0.5,1.5,0.8c0.4,0.4,0.7,0.8,0.9,1.2c0.2,0.5,0.3,0.9,0.3,1.4c0,0.4-0.1,0.7-0.2,1.1
		c-0.1,0.4-0.3,0.7-0.6,1c-0.2,0.3-0.5,0.6-0.9,0.8C49,62.3,48.6,62.5,48.2,62.7L48.2,62.7z M44.6,62.4c1.4,0,2.4-0.2,3-0.7
		c0.6-0.5,0.9-1.3,0.9-2.4c0-1-0.3-1.7-0.9-2.2c-0.6-0.5-1.6-0.7-3-0.7h-0.4v6H44.6z M44.3,69.2c0,0.2,0.1,0.3,0.2,0.4
		c0.1,0.1,0.3,0.2,0.4,0.3c0.2,0.1,0.3,0.1,0.5,0.1c0.2,0,0.4,0,0.6,0c0.6,0,1.2,0,1.7-0.1c0.5-0.1,0.9-0.3,1.3-0.5
		c0.4-0.2,0.6-0.6,0.8-1c0.2-0.4,0.3-0.9,0.3-1.5c0-1.2-0.4-2-1.2-2.6s-1.9-0.9-3.3-0.9h-1.3V69.2z"/>
	<path class="st1" d="M69.8,65.2c0,0.9-0.1,1.7-0.3,2.5s-0.6,1.4-1,1.9s-1.1,1-1.9,1.3c-0.8,0.3-1.8,0.4-3,0.4
		c-1.4,0-2.5-0.2-3.3-0.5c-0.8-0.3-1.5-0.8-2-1.4c-0.5-0.6-0.8-1.2-0.9-1.9C57.1,66.8,57,66,57,65.3v-8.2c0-0.3-0.1-0.6-0.3-0.7
		c-0.2-0.1-0.6-0.3-1.3-0.3c-0.2,0-0.2-0.2-0.2-0.4c0-0.1,0-0.2,0-0.4c0.5,0,1,0.1,1.5,0.1c0.5,0,1,0,1.5,0c0.4,0,0.9,0,1.5,0
		c0.6,0,1.1-0.1,1.6-0.1c0,0.2,0,0.3,0,0.4c0,0.3-0.1,0.4-0.2,0.4c-0.6,0.1-1,0.2-1.3,0.3c-0.3,0.1-0.4,0.4-0.4,0.7v7.6
		c0,1.7,0.3,2.9,1,3.8c0.7,0.9,1.8,1.3,3.4,1.3c0.9,0,1.7-0.1,2.3-0.3c0.6-0.2,1.1-0.5,1.5-0.9c0.4-0.4,0.7-1,0.9-1.6
		c0.2-0.7,0.3-1.5,0.3-2.4v-7.6c0-0.3-0.1-0.6-0.4-0.7c-0.2-0.1-0.7-0.3-1.3-0.3c-0.2,0-0.3-0.2-0.3-0.4c0-0.1,0-0.2,0-0.4
		c0.5,0,0.9,0.1,1.4,0.1c0.4,0,0.8,0,1.1,0c0.4,0,0.8,0,1.2,0c0.4,0,0.8-0.1,1.2-0.1c0,0.2,0,0.3,0,0.4c0,0.1,0,0.2-0.1,0.3
		s-0.1,0.1-0.2,0.2c-0.6,0.1-1,0.2-1.2,0.3c-0.2,0.2-0.3,0.4-0.3,0.7V65.2z"/>
	<path class="st1" d="M79.6,64.1l-4-7.2c-0.2-0.2-0.4-0.4-0.6-0.5c-0.2-0.1-0.6-0.2-1-0.3c-0.1,0-0.1-0.1-0.2-0.1
		c0-0.1-0.1-0.2-0.1-0.3c0,0,0-0.1,0-0.1s0-0.1,0-0.1c0,0,0-0.1,0-0.1c0.4,0,0.8,0.1,1.3,0.1c0.5,0,1.1,0,1.6,0c0.2,0,0.4,0,0.7,0
		c0.3,0,0.5,0,0.8,0c0.3,0,0.5,0,0.8,0s0.5,0,0.6,0c0,0.1,0,0.1,0,0.2c0,0,0,0.1,0,0.1c0,0,0,0.1,0,0.1c0,0.1,0,0.2-0.1,0.3
		s-0.1,0.1-0.2,0.1c-0.5,0.1-0.8,0.1-1,0.2s-0.3,0.2-0.3,0.4c0,0.1,0.1,0.3,0.2,0.5l3,5.4l2.8-5c0.2-0.3,0.2-0.5,0.2-0.7
		c0-0.2-0.1-0.4-0.3-0.5c-0.2-0.1-0.6-0.2-1-0.3c-0.2,0-0.3-0.2-0.3-0.4c0-0.1,0-0.2,0-0.2c0,0,0-0.1,0-0.2c0.4,0,0.8,0.1,1.2,0.1
		c0.5,0,0.9,0,1.3,0c0.4,0,0.8,0,1.2,0c0.4,0,0.8-0.1,1.2-0.1c0,0.1,0,0.1,0,0.2c0,0,0,0.1,0,0.1s0,0.1,0,0.1c0,0.2-0.1,0.4-0.3,0.4
		c-0.6,0.1-1,0.2-1.2,0.3c-0.2,0.1-0.4,0.3-0.6,0.6l-3.9,6.9v5.4c0,0.4,0.1,0.6,0.4,0.7c0.3,0.1,0.7,0.3,1.3,0.3
		c0.2,0,0.3,0.2,0.3,0.4c0,0,0,0.1,0,0.1c0,0,0,0.1,0,0.1c0,0.1,0,0.1,0,0.1c-0.4,0-0.8,0-1.1,0c-0.3,0-0.7,0-1,0s-0.7,0-0.9,0
		s-0.6,0-0.9,0s-0.7,0-1,0c-0.4,0-0.7,0-1.1,0c0,0,0-0.1,0-0.1c0,0,0-0.1,0-0.1s0-0.1,0-0.1c0-0.2,0.1-0.4,0.2-0.4
		c0.6-0.1,1.1-0.3,1.3-0.4s0.4-0.4,0.4-0.7V64.1z"/>
</g>
</svg>
