<svg xmlns="http://www.w3.org/2000/svg" xmlns:xlink="http://www.w3.org/1999/xlink" width="240" height="40" viewBox="0 0 240 40"><defs><style>.a,.c{fill:none;stroke:#fff;}.b{clip-path:url(#a);}.c{stroke-miterlimit:10;stroke-width:1.2px;}</style><clipPath id="a"><rect class="a" width="240" height="40" transform="translate(0 0)"/></clipPath></defs><g class="b" transform="translate(0 0)"><path class="c" d="M.6.89H8.183V28.469H25.371v6.895H.6Z" transform="translate(0.622 0.922)"/><path class="c" d="M46.316.769H53.31l14.773,34.72H60.154L57,27.757H42.425l-3.15,7.732H31.543ZM54.294,21.06,49.714,9.881,45.133,21.06Z" transform="translate(32.685 0.797)"/><path class="c" d="M99.5,36.7l-3.793-3.4a18.788,18.788,0,0,1-10.242,2.957c-10.637,0-18.271-7.929-18.271-17.727v-.1C67.2,8.627,74.927.6,85.564.6s18.271,7.927,18.271,17.727v.1a17.682,17.682,0,0,1-3.054,9.9l3.547,3.005Zm-9.407-8.371L84.48,23.548l4.826-5.418,5.665,5.123a12.089,12.089,0,0,0,.935-4.726v-.1c0-5.911-4.333-10.835-10.44-10.835S75.124,12.418,75.124,18.327v.1c0,5.909,4.333,10.833,10.44,10.833A10.372,10.372,0,0,0,90.094,28.325Z" transform="translate(69.629 0.622)"/><path class="c" d="M104.648,29.607,116.122,20.2c4.284-3.545,5.96-5.416,5.96-8.273,0-2.9-1.922-4.482-4.63-4.482-2.659,0-4.482,1.478-7.041,4.63l-5.319-4.286c3.4-4.628,6.7-7.141,12.853-7.141,7.141,0,11.867,4.186,11.867,10.639v.1c0,5.762-2.952,8.617-9.059,13.345l-5.616,4.333h15.021v6.551h-25.51Z" transform="translate(108.438 0.671)"/></g></svg>