<svg xmlns="http://www.w3.org/2000/svg" width="197.411" height="20.259" viewBox="0 0 197.411 20.259">
  <path id="パス_22222" data-name="パス 22222" d="M1.828-17.273H5.438V-3.105h8.555V0H1.828ZM22.052-14.3H18.666v-3.082h3.387Zm-3.387,1.523h3.387V0H18.666ZM32.4-17.449q.316,0,.574.018t.7.053v2.719q-.281-.035-.943-.053a1.086,1.086,0,0,0-.914.293,1.063,1.063,0,0,0-.252.686v1.078h2.191V-10.3H31.566V0H28.237V-10.3H26.374v-2.355H28.2v-.82a4.316,4.316,0,0,1,.691-2.824Q29.62-17.449,32.4-17.449Zm10.72,7.09a2.268,2.268,0,0,0-1.8.727,3.627,3.627,0,0,0-.8,1.969h5.191a2.907,2.907,0,0,0-.8-2.01A2.493,2.493,0,0,0,43.118-10.359Zm0-2.754a6.694,6.694,0,0,1,2.871.6A5.03,5.03,0,0,1,48.1-10.629a6.437,6.437,0,0,1,.973,2.637,17.028,17.028,0,0,1,.105,2.531H40.434a3.174,3.174,0,0,0,1.207,2.7,2.843,2.843,0,0,0,1.664.48,2.4,2.4,0,0,0,1.676-.586A2.783,2.783,0,0,0,45.6-3.75h3.41a4.237,4.237,0,0,1-1.184,2.309A5.8,5.8,0,0,1,43.235.422a6.478,6.478,0,0,1-4.3-1.57q-1.863-1.57-1.863-5.109a7.1,7.1,0,0,1,1.682-5.086A5.75,5.75,0,0,1,43.118-13.113Zm25.8.34H72.3l1.945,9.2,1.992-9.2h3.48L76.02,0H72.586l-2-9.3L68.555,0H65.086L61.5-12.773h3.586l1.992,9.164ZM87.4-14.3H84.009v-3.082H87.4Zm-3.387,1.523H87.4V0H84.009Zm7.709,2.5v-2.379H93.5v-3.562h3.3v3.563h2.074v2.379H96.8v6.75a1.52,1.52,0,0,0,.2.979,2.194,2.194,0,0,0,1.219.193q.152,0,.322-.006t.334-.018v2.5L97.3.176q-2.367.082-3.234-.82a2.442,2.442,0,0,1-.562-1.77v-7.863ZM110.466-13.1a5.453,5.453,0,0,1,2.15.41,3.76,3.76,0,0,1,1.588,1.254,3.332,3.332,0,0,1,.645,1.471,18.109,18.109,0,0,1,.117,2.467V0h-3.41V-7.77a3.417,3.417,0,0,0-.352-1.664,1.765,1.765,0,0,0-1.734-.891,2.387,2.387,0,0,0-2.01.885,4.049,4.049,0,0,0-.686,2.525V0h-3.328V-17.215h3.328v6.105a4.1,4.1,0,0,1,1.682-1.553A4.753,4.753,0,0,1,110.466-13.1Zm19.355-4.172h3.609V-3.105h8.555V0H129.82ZM151.6-6.527h4.383l-2.156-6.8Zm.223-10.746H155.9L162.021,0h-3.914l-1.113-3.551H150.63L149.435,0h-3.773Zm22.392,14.7a4.642,4.642,0,0,0,1.2-.152,5.95,5.95,0,0,0,.809-.293l-1.746-1.664,1.863-1.945,1.746,1.664a8.16,8.16,0,0,0,.574-1.477,8.5,8.5,0,0,0,.258-2.215,7.377,7.377,0,0,0-1.189-4.494,4.072,4.072,0,0,0-3.475-1.588,4.238,4.238,0,0,0-3.422,1.523,6.958,6.958,0,0,0-1.277,4.559q0,3.551,1.828,5.086A4.26,4.26,0,0,0,174.218-2.578Zm8.309-6.34a11.491,11.491,0,0,1-.562,3.867,6.443,6.443,0,0,1-1.348,2.473l1.992,1.863-1.887,1.969L178.636-.715A8.693,8.693,0,0,1,177,.094a8.826,8.826,0,0,1-2.777.387,7.946,7.946,0,0,1-5.578-2.016q-2.672-2.426-2.672-7.125,0-4.734,2.742-7.16a8.094,8.094,0,0,1,5.566-1.98,7.983,7.983,0,0,1,5.625,2.1A8.779,8.779,0,0,1,182.527-8.918ZM186.6,0a7.985,7.985,0,0,1,.785-3.34,9.442,9.442,0,0,1,3.375-3.6A24.75,24.75,0,0,0,193.751-9.3a3.5,3.5,0,0,0,1.043-2.437,2.7,2.7,0,0,0-.6-1.793,2.1,2.1,0,0,0-1.711-.715,2.087,2.087,0,0,0-2.074,1.137,5.638,5.638,0,0,0-.375,2.086H186.79a8.209,8.209,0,0,1,.785-3.5,4.89,4.89,0,0,1,4.746-2.543,6.018,6.018,0,0,1,4.289,1.494,5.166,5.166,0,0,1,1.594,3.955,5.354,5.354,0,0,1-1.125,3.352,11.208,11.208,0,0,1-2.426,2.168l-1.336.949q-1.254.891-1.717,1.289a3.778,3.778,0,0,0-.779.926h7.418V0Z" transform="translate(-1.328 18.301)" fill="none" stroke="#666" stroke-width="1"/>
</svg>
