<?xml version="1.0" encoding="utf-8"?>
<!-- Generator: Adobe Illustrator 26.3.1, SVG Export Plug-In . SVG Version: 6.00 Build 0)  -->
<svg version="1.1" id="レイヤー_1" xmlns="http://www.w3.org/2000/svg" xmlns:xlink="http://www.w3.org/1999/xlink" x="0px"
	 y="0px" viewBox="0 0 120 300" style="enable-background:new 0 0 120 300;" xml:space="preserve">
<style type="text/css">
	.st0{enable-background:new    ;}
	.st1{fill:#141414;}
</style>
<g id="グループ_6466" transform="translate(-128 -1869)">
	<g class="st0">
		<path class="st1" d="M232.3,1888.2c0,0.3-0.3,0.4-0.9,0.4c-0.3,1-0.7,2.4-1.9,3.6c-0.4,0.4-0.8,0.1-0.6-0.4
			c0.8-1.5,1.1-2.9,1.2-4.5c0-0.2,0.1-0.3,0.4-0.3C231,1887.2,232.3,1887.8,232.3,1888.2z M232.6,1885.5c-0.9,0.1-1.7,0.2-2.6,0.2
			c-0.1,0.5-0.4,0.9-0.7,0.8c-0.4-0.1-0.6-0.8-0.6-1.9c0-0.2,0.1-0.2,0.2-0.2c0.8,0,1.6,0,2.3,0c1.2-1.6,2.3-3.6,2.9-5.2
			c0.1-0.2,0.2-0.2,0.4-0.1c0.9,0.3,1.7,0.9,1.7,1.3c0,0.3-0.6,0.3-1,0.3c-0.7,1-1.7,2.6-2.7,3.8c1.1,0,2-0.1,2.8-0.1
			c-0.1-0.3-0.2-0.7-0.3-1c-0.2-0.5,0.2-0.8,0.6-0.5c1,0.7,1.8,1.6,1.6,2.5c-0.1,0.5-0.5,0.8-1.1,0.7c-0.4-0.1-0.5-0.5-0.6-1
			c-0.4,0.1-0.8,0.2-1.2,0.2c0,0,0,0.1,0,0.1c0,0.2-0.2,0.3-0.5,0.3v3c0,2.1,0,3.5,0,4.1c0,0.4-0.3,0.7-0.9,0.7
			c-0.4,0-0.5-0.2-0.5-0.6c0-0.6,0.1-2,0.1-4.2V1885.5z M229.3,1879.7c-0.3-0.4,0-0.8,0.5-0.6c0.4,0.2,0.8,0.4,1.1,0.6
			c0.7-1.3,1.2-2.7,1.6-4.2c0-0.2,0.2-0.3,0.4-0.2c0.9,0.3,1.9,1,1.9,1.4c0,0.2-0.4,0.3-0.9,0.2c-0.6,1-1.4,2.3-2.2,3.5
			c0.3,0.4,0.5,0.8,0.5,1.2c0,0.5-0.3,0.9-0.9,0.9c-0.5,0-0.7-0.6-1-1.3C229.9,1880.7,229.6,1880.2,229.3,1879.7z M237.4,1889.5
			c-0.1,0.5-0.6,0.8-1.2,0.7c-0.5-0.1-0.6-0.7-0.7-1.3c-0.1-0.4-0.2-0.8-0.4-1.2c-0.2-0.5,0.2-0.8,0.7-0.5
			C236.8,1887.8,237.7,1888.6,237.4,1889.5z M244.6,1879.4c0.3-0.4,0.6-0.8,0.8-0.8c0.4,0,1.7,0.9,1.7,1.3c0,0.2-0.3,0.5-0.7,0.7
			c0,3-0.2,8.4-1.2,10.6c-0.7,1.4-1.6,2-3,2c-0.4,0-0.6-0.2-0.8-0.5c-0.2-0.4-0.5-0.5-0.9-0.6c-0.3-0.1-0.3-0.3-0.3-0.4
			s0.2-0.3,0.4-0.2c0.5,0.1,1.2,0.2,1.8,0.2c0.8,0,1.2-0.3,1.6-1c1-1.9,1.2-7,1.1-10.3h-5.3c-0.6,1.1-1.4,2.2-2.4,3.2
			c-0.4,0.4-0.9,0.1-0.6-0.4c1.6-2.5,2.6-5,3-7.3c0-0.2,0.2-0.3,0.4-0.2c0.7,0.1,2.1,0.8,2.1,1.2c0,0.3-0.4,0.4-1,0.4
			c-0.3,0.7-0.6,1.5-1.1,2.4H244.6z M240.2,1885.8c-0.3-0.6-0.6-1.1-0.9-1.6c-0.3-0.4,0-0.9,0.5-0.6c1.4,0.5,2.6,1.6,2.6,2.6
			c0,0.6-0.4,1-1,1C240.9,1887.1,240.6,1886.6,240.2,1885.8z"/>
	</g>
	<g class="st0">
		<path class="st1" d="M241.7,1911.7c0,2.8-3.1,5.5-6.1,8.5c-0.1,0.1-0.1,0.2,0,0.2c0.2,0,3,0.2,4.8,0.2c0.7,0,1.1-0.2,1.7-1.7
			c0.2-0.6,0.7-0.6,0.7,0c0,0.6-0.3,1.7-0.5,2.5c-0.2,0.6-0.4,0.6-1.3,0.6c-1,0-6.1-0.1-6.3-0.1c-0.2,0-1,0-1.1,0
			c-0.3,0-0.5-0.4-0.2-0.7c0.3-0.3,0.6-0.6,0.7-0.7c3.3-3.3,5.7-5.8,5.7-8.5c0-1.8-0.9-2.8-2.5-2.8c-1.2,0-1.9,0.5-2.9,1.6
			c-0.6,0.7-1.1,0.3-0.6-0.4c0.9-1.5,2.3-2.7,4.3-2.7C239.6,1907.8,241.7,1908.9,241.7,1911.7z"/>
	</g>
	<g class="st0">
		<path class="st1" d="M229.1,1946.4c-0.6,0.2-0.8-0.3-0.3-0.6c2.8-2.1,4.8-4.5,5.8-7c0.1-0.2,0.2-0.2,0.4-0.2
			c0.6,0.2,1.9,0.9,1.8,1.3c0,0.3-0.4,0.4-1,0.3C234.6,1942,232.4,1944.9,229.1,1946.4z M241.6,1944.5c0.3-0.4,0.6-0.7,0.8-0.7
			c0.4,0,1.6,0.9,1.6,1.2c0,0.2-0.3,0.5-0.7,0.7c-0.1,1.9-0.3,4.8-0.9,6c-0.5,1-1.2,1.6-2.5,1.6c-0.6,0-0.7-0.2-0.8-0.5
			c-0.2-0.3-0.4-0.4-0.8-0.6c-0.3-0.1-0.4-0.3-0.3-0.5c0-0.1,0.2-0.3,0.4-0.2c0.5,0.1,0.9,0.1,1.6,0.1c0.7,0,1-0.4,1.2-0.7
			c0.5-1,0.7-3.8,0.7-5.6h-4.7c0.7,0.1,1.5,0.4,1.5,0.7c0,0.2-0.3,0.4-0.8,0.4c-0.5,1.6-1.1,2.9-2.1,4c-1.1,1.3-2.6,2.4-4.9,3
			c-0.6,0.2-0.8-0.4-0.2-0.7c1.9-0.9,3-1.8,4-3c1-1.2,1.5-2.4,1.8-4.1c0-0.2,0.1-0.3,0.2-0.4h-3.5c-0.3,0-0.4-0.1-0.4-0.4
			c0-0.3,0.2-0.4,0.4-0.4H241.6z M240,1936.5c0.3-0.4,0.7-1,1-1c0.5,0,1.8,1.1,1.8,1.5c0,0.2,0,0.4-1,0.6c0.9,2.9,2.7,4.4,5.8,5.8
			c0.4,0.2,0.4,0.5-0.1,0.7c-0.3,0.1-0.6,0.3-0.8,0.6c-0.3,0.3-0.4,0.3-0.9,0.1c-2.6-1.4-4.5-4.3-5.1-7.5h-6.2
			c-0.3,0-0.4-0.1-0.4-0.4c0-0.3,0.2-0.4,0.4-0.4H240z"/>
	</g>
	<g class="st0">
		<path class="st1" d="M244.9,1975.4c0,3.8-3.1,5.8-7.2,5.8c-0.7,0-0.7-0.6-0.1-0.7c3.5-0.7,5.7-2.1,5.7-5.4c0-2.1-1.1-3.9-3.1-4.8
			c-0.1,0.8-0.3,1.6-0.6,2.5c-1.2,3.2-4.5,7.2-6.9,7.2c-1.1,0-2.1-1.5-2.3-3.8c-0.2-2.5,0.8-4.4,2.1-5.6c1.2-1,3-1.8,4.9-1.8
			C242.2,1968.8,244.9,1971.8,244.9,1975.4z M239,1969.9c-0.5-0.1-1.1-0.2-1.7-0.2c-1.7,0-3.1,0.6-4.1,1.5c-1.1,1-1.7,2.4-1.6,4.4
			c0.1,1.5,0.6,2.5,1.2,2.5c1.9,0,4.8-3.9,5.7-6.6C238.9,1971,239,1970.4,239,1969.9z"/>
	</g>
	<g class="st0">
		<path class="st1" d="M244,2001.6c0,0.4-0.4,0.5-1.2,0.6c-0.8,0.1-2.6,0.4-3.9,0.5c0.7,0.3,1.1,0.7,1.1,1c0,0.4-0.3,0.8-0.4,1.2
			c-0.9,2.9-3,5.7-6,7.2c-0.6,0.3-1-0.3-0.5-0.6c2.6-1.9,4.7-5,5.1-7.7c0.1-0.4-0.2-0.6-0.6-0.9c-1,0.2-1.7,0.3-2.2,0.3
			c-0.3,0-0.7-0.2-1.2-0.5c-0.6,1.8-1.5,3.9-3.2,5.7c-0.4,0.5-1.1,0.1-0.7-0.5c1.3-2,2.6-4.7,2.9-7.8c0-0.4,0-0.5-0.5-0.9
			c-0.4-0.3-0.9-0.5-0.9-0.8c0-0.2,0.4-0.4,0.7-0.4c0.8,0,2.3,0.5,2.3,1.3c0,0.4-0.1,1.3-0.5,2.5c0.3,0.1,0.7,0.2,0.8,0.2
			c0.8,0,3-0.4,3.9-0.6c1.6-0.3,2.5-0.8,3.4-0.8C243.3,2000.6,244,2001.1,244,2001.6z"/>
	</g>
	<g class="st0">
		<path class="st1" d="M238,2034.4c-0.4,2.1-2.3,5.7-6.2,7.4c-0.7,0.3-1-0.4-0.4-0.8c3.3-2.1,4.9-5.2,4.9-6.6c0-0.7-0.9-0.8-0.9-1.2
			c0-0.3,0.5-0.6,0.9-0.6c0.5,0,1.2,0.3,1.6,0.6c1-0.7,2-1.5,2.7-2.4c0.3-0.4,0.3-0.5-0.1-0.5c-0.5,0-3.7,0.6-5.1,0.9
			c-1.9,0.4-3,0.8-3.6,0.8c-0.8,0-1.8-1-1.8-2.2c0-0.4,0.4-0.5,0.6-0.3c0.6,0.4,0.9,0.8,1.6,0.8c0.9,0,6.4-0.8,7.5-0.9
			c0.9-0.1,1.3-0.4,1.8-0.4c0.7,0,2,1.1,2,1.8c0,0.5-0.9,0.7-1.5,1.1c-1,0.7-2.4,1.7-4,2.5L238,2034.4z"/>
	</g>
	<g class="st0">
		<path class="st1" d="M231.3,2061.8c0.5,0.1,1.1-0.1,1.9-0.4c1.2-0.5,3.5-1.4,5.6-2.2c1.5-0.6,3.1-1,4.6-1c0.8,0,1.7,0.3,1.7,0.9
			c0,0.4-0.3,0.7-1,0.7c-0.8,0-1.7-0.2-2.6,0.2c-2,0.8-3.6,3.7-3.6,6.2c0,3,2.2,3.7,4.8,3.4c0.8-0.1,1.3,0.2,1.2,0.6
			c0,0.7-0.7,1-1.7,1c-3.4,0.3-5.7-1.4-5.7-4.6c0-2.4,1-4.2,2.5-6.1c0.4-0.4,0.2-0.5-0.3-0.4c-1.5,0.4-3.6,1.6-5.1,2.4
			c-0.6,0.3-1.5,0.9-2.2,0.9c-1.2,0-2.3-1-2.3-2.1c0-0.3,0.2-0.4,0.5-0.2C230.1,2061.3,230.8,2061.7,231.3,2061.8z M244.9,2065.1
			c0,0.5-0.3,0.7-0.7,0.7c-0.5,0-0.6-0.3-1.1-0.9c-0.3-0.4-0.8-0.8-1.2-1.2c-0.2-0.2-0.1-0.6,0.2-0.5
			C243.5,2063.2,244.9,2064.1,244.9,2065.1z M246.6,2063.2c0,0.4-0.3,0.7-0.7,0.7c-0.3,0-0.5-0.2-0.9-0.6c-0.4-0.5-1-0.9-1.5-1.2
			c-0.3-0.2-0.2-0.6,0.2-0.6C245.1,2061.5,246.6,2062.2,246.6,2063.2z"/>
	</g>
	<g class="st0">
		<path class="st1" d="M188.8,1891.3c2.1,0.3,5.4,0.2,7.9,0c0.6,0,0.6,0.5,0.1,0.6c-0.4,0.1-0.5,0.2-0.6,0.5
			c-0.2,0.3-0.3,0.4-0.8,0.4c-2,0.1-6.2,0.2-8.3-0.5c-1.8-0.6-2.8-1.7-3.5-3.5c-0.2,0.5-0.4,0.9-0.7,1.3c-0.9,1.4-2,2.5-3.8,3.3
			c-0.6,0.2-0.8-0.3-0.3-0.6c1.4-1,2.1-1.9,2.9-3.1c0.7-1.2,1.2-2.4,1.4-4.2c0-0.3,0.1-0.4,0.3-0.4c0.7,0,1.9,0.4,1.9,0.8
			c0,0.2-0.3,0.4-0.8,0.4c-0.2,0.6-0.3,1.1-0.5,1.6c0.7,1.9,1.7,2.7,3.4,3.2v-8.2h-3.6v0.8c0,0.4-0.3,0.6-0.9,0.6
			c-0.4,0-0.6-0.2-0.6-0.5c0-1.4,0.1-5.5-0.1-7.4c0-0.2,0.1-0.3,0.3-0.3c0.3,0,1.4,0.4,1.8,0.8h7.6c0.3-0.4,0.7-0.9,1-0.9
			c0.4,0,1.7,0.9,1.7,1.4c0,0.3-0.4,0.5-0.8,0.6c0,1.5,0,4.6,0,5.3c0,0.6-0.3,0.8-0.9,0.8c-0.5,0-0.6-0.4-0.6-0.7v-0.5h-3.4
			c0.1,0.1,0.1,0.1,0.1,0.2c0,0.2-0.1,0.3-0.4,0.4v2.9h3.2c0.4-0.7,1-1.4,1.3-1.4c0.4,0,1.8,1.3,1.8,1.8c0,0.3-0.4,0.5-1,0.5h-5.3
			V1891.3z M192.5,1882.1c0-1.4,0-3.4,0-4.4h-8.6c0,0.6,0,2.3,0,2.7l0,1.7H192.5z"/>
	</g>
	<g class="st0">
		<path class="st1" d="M187.2,1914c0,0.3-0.1,0.4-0.8,0.6c-0.1,5.4-2.3,7.5-6.9,8.8c-0.6,0.1-0.8-0.5-0.2-0.7
			c4.1-1.7,5.8-3.6,5.5-9.1c0-0.3,0-0.4,0.3-0.4C185.7,1913.3,187.2,1913.5,187.2,1914z M193.7,1912.2c0.4-0.7,1-1.4,1.4-1.4
			c0.4,0,1.9,1.3,1.9,1.8c0,0.3-0.3,0.5-1.2,0.5h-16.2c-0.3,0-0.4-0.1-0.4-0.4c0-0.3,0.2-0.4,0.4-0.4H193.7z M191.9,1907
			c0.5-0.7,1-1.4,1.4-1.4c0.4,0,1.9,1.2,1.9,1.8c0,0.3-0.4,0.5-1.2,0.5h-12.4c-0.3,0-0.4-0.1-0.4-0.4c0-0.3,0.2-0.4,0.4-0.4H191.9z
			 M189.4,1913.3c1.4,0,2.2,0.2,2.2,0.6c0,0.3-0.3,0.5-1,0.6c0,1,0,5.7,0,6.2c0,0.7,0.1,0.9,2.3,0.9c2.1,0,2.7-0.3,2.9-0.7
			c0.2-0.4,0.3-1,0.4-1.2c0.1-0.4,0.5-0.4,0.5,0c0,0.3,0.1,0.7,0.1,1.1c0.1,0.6,0.4,0.6,0.4,1.1c0,0.4-0.8,1.2-4.3,1.2
			c-3.4,0-3.8-0.5-3.8-2.2c0-0.7,0.1-5.9-0.1-7.1C189.1,1913.4,189.1,1913.3,189.4,1913.3z"/>
	</g>
	<g class="st0">
		<path class="st1" d="M194.5,1943.8c0,1-0.9,1.4-2.2,1.8c-0.8,0.3-2.7,0.9-4,1.4c0,0.5,0,1,0,1.4c0,0.5-0.2,0.8-0.6,0.8
			c-0.5,0-0.8-0.3-0.8-0.8c0-0.2,0-0.5,0.1-0.8c-1.4,0.7-2.2,1.3-2.2,2.3c0,0.9,1.1,1.2,2.1,1.2c1.7,0,2.7-0.4,3.5-0.4
			c0.6,0,1.2,0.2,1.2,0.8c0,0.6-1.4,1.1-4.1,1.1c-2.6,0-3.9-0.9-3.9-2.4c0-1.2,0.8-2.1,3.4-3.4c0-0.3,0-0.6,0-1c-0.1-1-0.6-2-1.6-2
			c-1.3,0-1.9,1.6-3.4,3.5c-0.3,0.4-0.5,0.7-1,0.7s-0.7-0.3-0.7-0.7c0-0.4,0.1-0.8,0.6-1.3c1.3-1.3,2.9-3.1,3.9-5.2
			c-0.8,0.1-1.5,0.2-2.5,0.2c-1.4,0-2.2-0.7-2.5-2.3c-0.1-0.5,0.2-0.6,0.5-0.3c1,0.9,1.5,1.3,2.7,1.3c0.7,0,1.5,0,2.2-0.1
			c0.2-0.6,0.4-1,0.4-1.3c0.1-0.4,0.1-0.8-0.2-1.1c-0.3-0.4-0.6-0.6-0.6-0.8c0-0.3,0.6-0.4,0.9-0.4c0.6,0,1.5,0.2,1.5,0.7
			c0,0.4-0.4,1.7-0.8,2.7c2.1-0.5,2.9-1.4,3.8-1.4c0.4,0,0.9,0.2,1,0.7c0,0.5-0.7,0.7-1.2,0.9c-0.5,0.2-2.7,0.7-4.1,0.9
			c-0.4,0.7-1.1,2-1.5,2.6c1.3-0.4,2.6-0.2,3.3,1.5c1.2-2.1,2.6-2.8,4-2.8C193.2,1941.8,194.5,1942.7,194.5,1943.8z M192.9,1943.5
			c0-0.6-0.5-0.9-1.3-0.9c-0.9,0-2,0.6-2.6,1.7c-0.4,0.6-0.6,1.2-0.7,1.8c1.3-0.6,2.6-1,3-1.3
			C192.3,1944.4,192.9,1944.2,192.9,1943.5z"/>
	</g>
	<g class="st0">
		<path class="st1" d="M195.4,1976.9c0,0.8-0.4,1.3-1,1.3c-0.7,0-0.7-1.3-0.9-2.3c-0.3-1.6-1.2-3-2.3-3c-1.5,0-3.1,3.8-4.3,5.9
			c-0.7,1.3-1,1.7-1.9,1.7c-1.7,0-3.4-2-3.4-4.3c0-1.6,0.2-2.2,0.2-3.1c0-1.1-0.3-1.4-1.2-2.4c-0.3-0.3-0.1-0.6,0.4-0.5
			c1.3,0.2,2.5,1.4,2.5,2.4c0,1-0.7,2.2-0.7,3.6c0,1.8,1.2,2.7,2,2.7c0.6,0,1.1-0.9,1.7-1.9c1.9-2.9,3.1-5,4.7-5
			c1,0,1.8,0.4,2.5,1.2C194.7,1974.1,195.4,1975.6,195.4,1976.9z"/>
	</g>
	<g class="st0">
		<path class="st1" d="M181.5,2003.5c0.5,0,1-0.2,1.4-0.4c2-0.9,4.5-2.7,7.3-2.7c3.1,0,5.2,2.2,5.2,4.6c0,4.5-4.8,6-10,5.5
			c-0.7-0.1-0.7-0.7,0-0.8c4.2-0.3,8.4-1.4,8.4-4.9c0-1.6-1.1-3.4-3.5-3.4c-2.3,0-4.5,1.8-5.4,2.4c-0.8,0.6-2.4,1.6-3.1,1.6
			c-0.9,0-1.7-0.8-1.9-1.7c-0.1-0.4-0.1-0.8,0-1.1c0.1-0.3,0.4-0.4,0.6-0.2C180.6,2002.7,181,2003.5,181.5,2003.5z"/>
	</g>
	<g class="st0">
		<path class="st1" d="M193.3,2038.3c0,2.4-1.9,4.2-5.1,4.2c-1.7,0-3.5-1-3.5-3.1c0-0.5,0-1.1,0.1-1.7c-1.6-0.5-3.5-1.4-3.5-2.6
			c0-0.9,1.3-2,1.8-2.7c0.3-0.5,0.3-0.7,0-1.3c-0.3-0.4-0.7-0.8-1.3-1.5c-0.3-0.3-0.1-0.6,0.4-0.5c1.3,0.4,2.5,1.3,2.9,2.4
			c0.2,0.6,0,1.1-0.7,1.5c-0.8,0.5-2,1.3-2,1.8c0,0.6,1.4,1.1,2.8,1.4c0.2-1.5,0.6-3,0.8-4c0.2-1.1,0.5-2.7,0.5-3.5
			c0-0.6-0.3-0.9-1-1.3c-0.4-0.3-0.8-0.5-0.8-0.7c0-0.2,0.4-0.4,0.8-0.4c1.1,0,2.6,0.9,2.6,2.1c0,0.6-0.6,2.5-0.9,4
			c-0.2,0.9-0.6,2.5-0.9,4c2,0.2,2.4,0.4,2.4,0.8c0,0.4-0.2,0.8-1.4,0.8c-0.4,0-0.8,0-1.3-0.1c-0.1,0.5-0.1,0.9-0.1,1.2
			c0,1.6,1.1,2,2.3,2c2.7,0,3.6-1.6,3.6-3.2c0-2.2-2.3-3.6-3.4-4.3c-0.5-0.3-0.3-0.8,0.3-0.7
			C190.8,2033.7,193.3,2035.7,193.3,2038.3z"/>
	</g>
	<g class="st0">
		<path class="st1" d="M189.3,2064.6c1.5-0.6,1.9-0.8,2.7-0.8c0.8,0,1.5,0.2,1.5,0.7c0,0.3-0.1,0.6-1.1,0.8
			c-0.9,0.1-2.5,0.4-4.4,1.1c0.6,1.5,1.5,3.4,1.6,3.9c0.3,1,0,1.2-0.3,1.3c-0.4,0.1-0.9-0.1-1.1-0.4c-0.3-0.6-0.9-2.5-1.5-4.3
			c-2.1,0.9-4.1,2-4.9,2c-0.7,0-1.8-0.5-2-1.3c-0.1-0.3,0.1-0.5,0.4-0.5c0.3,0,0.8,0.3,1.5,0.2c0.7,0,2.8-0.8,4.7-1.6
			c-0.2-0.7-0.5-1.6-0.9-2.6c-1.2,0.4-2.7,0.9-3.2,0.9c-0.8,0-1.8-0.8-2-1.3c-0.1-0.4,0-0.6,0.5-0.5c0.5,0.2,1.2,0.3,1.7,0.3
			c0.4,0,1.5-0.3,2.5-0.6c-0.3-0.9-0.7-1.8-0.9-2.2c-0.2-0.5-0.5-0.7-1-0.8c-0.4-0.1-0.8-0.2-0.8-0.5c0-0.3,0.6-0.6,1.3-0.6
			c0.6,0,1.7,0.2,1.9,0.7c0.1,0.3,0.1,0.6,0.2,1.2c0.1,0.4,0.3,1.1,0.5,1.8c0.4-0.1,0.7-0.3,0.9-0.4c1.2-0.6,1.5-0.9,2.4-0.9
			c0.5,0,1,0.3,1,0.6c0,0.3-0.1,0.5-0.9,0.8c-0.5,0.2-1.9,0.7-3.1,1.1c0.3,0.9,0.6,1.8,0.9,2.5L189.3,2064.6z"/>
	</g>
	<g class="st0">
		<path class="st1" d="M192.8,2092.9c0.5-0.5,1-0.1,0.7,0.4c-1.7,2.6-4.6,4.8-8.4,6.5c-0.6,0.3-0.8,0.7-1.3,0.7
			c-0.6,0-1.5-1.1-1.5-1.7c0-0.4,0.2-0.5,0.3-1.1c0.2-1.6,0.3-3.9,0.1-5.3c-0.1-0.8-0.4-1.1-0.9-1.4c-0.4-0.2-1-0.4-1-0.7
			c0-0.3,0.6-0.6,1-0.6c1.2,0,2.6,0.7,2.6,1.3c0,0.5-0.2,1.2-0.2,1.7c0,1-0.2,3.4-0.3,4.9c0,0.7,0.1,0.9,0.7,0.7
			C188.3,2097.1,190.7,2095,192.8,2092.9z"/>
	</g>
	<g class="st0">
		<path class="st1" d="M190.5,2120.6c-0.6,0.8-1.5,1.8-2.5,2.8c0.1,0.1,0.2,0.1,0.3,0.2c0.3,0.3,0.4,0.6,0.5,1.2
			c0.2,1.6,0.1,4.6,0,6.1c-0.1,0.6-0.5,0.9-0.9,0.9c-0.6,0-0.9-0.7-0.9-1.4c0-0.4,0.2-0.8,0.3-1.3c0.2-1.1,0.2-3.3,0.1-4.1
			c0-0.2-0.1-0.4-0.2-0.6c-2.1,1.9-4.5,3.7-6.7,4.7c-0.8,0.4-1.1-0.4-0.5-0.8c3.7-2.3,7.6-5.8,8.9-8.1c0.4-0.7,0.3-0.9-0.3-1.7
			c-0.4-0.4-0.2-0.6,0.3-0.6c1,0,2.4,1,2.4,1.7C191.1,2119.8,190.8,2120.3,190.5,2120.6z"/>
	</g>
	<g class="st0">
		<path class="st1" d="M182.5,2158.1c0,1.4,0.5,2,0.5,2.7c0,0.5-0.2,0.8-0.8,0.8c-0.8,0-1.4-1.7-1.4-3.1c0-3.6,1.6-6.3,1.6-8.2
			c0-1-0.4-1.4-0.9-2.3c-0.2-0.4,0-0.6,0.5-0.4c0.8,0.3,1.5,1,1.8,1.7c0.2,0.6,0.3,1,0,1.8c-0.5,1.4-1.1,2.3-1.3,3.3
			c-0.1,0.4,0.1,0.5,0.4,0.2c0.6-0.7,1.4-1.6,2.7-2.5c1.6-1.1,3.4-1.6,5.1-1.6c1.7,0,2.6,0.6,2.6,1.1c0,0.4-0.2,0.6-0.7,0.9
			c-0.7,0.4-1.8,1.1-2.5,1.5c-0.5,0.3-0.8-0.1-0.5-0.5c0.3-0.3,0.8-0.7,1-1.1c0.4-0.5,0.3-0.7-0.5-0.7c-0.9,0-2.6,0.3-4.1,1.2
			C183.8,2154.2,182.5,2156.3,182.5,2158.1z M191.2,2159c1,0,1.8-0.1,2.4-0.1c0.5,0,1,0.1,1,0.7c0,0.8-1.3,1-3,1
			c-2.9,0-5.2-1.5-5.7-4.2c-0.1-0.6,0.5-0.6,0.7-0.3C187.2,2157.5,188.3,2159,191.2,2159z"/>
	</g>
	<g class="st0">
		<path class="st1" d="M132,1882.9c0.7,3-0.5,5.5-2.1,5.5c-0.5,0-0.9-0.3-0.9-0.9c0-0.9,0.9-1.1,1.4-1.9c0.7-0.9,0.7-1.9,0.7-2.6
			C131.1,1882.3,131.9,1882.4,132,1882.9z M134.8,1880c1.4,0,2.3,0.2,2.3,0.7c0,0.4-0.4,0.6-1,0.7c0,1-0.1,8.1-0.1,8.7
			c0,1,0.2,1.3,3,1.3c2.6,0,3.1-0.4,3.3-1c0.2-0.5,0.3-1.3,0.4-1.7c0.1-0.5,0.7-0.4,0.8,0c0,0.3,0,1,0.1,1.5c0,0.7,0.5,0.8,0.5,1.2
			c0,0.5-0.9,1.3-4.9,1.3c-4.1,0-4.5-0.6-4.5-2.4c0-0.8,0.1-8.4-0.1-10C134.3,1880.2,134.5,1880,134.8,1880z M136.5,1875.7
			c1.4,0.2,3.4,1.2,3.6,2.5c0.2,0.7-0.1,1.2-0.8,1.3c-0.7,0.2-1.1-0.5-1.7-1.4c-0.5-0.7-1-1.2-1.5-1.7
			C135.8,1876.1,135.9,1875.6,136.5,1875.7z M144.2,1882.4c1.3,0.6,3,2.3,3,3.6c0,0.7-0.4,1.2-1.1,1.1c-0.7,0-0.9-0.9-1.3-1.9
			c-0.4-0.9-0.7-1.6-1.1-2.2C143.4,1882.5,143.6,1882.1,144.2,1882.4z"/>
	</g>
	<g class="st0">
		<path class="st1" d="M133.3,1918.5c0.9-0.3,1.6-0.7,2.3-1c0.8-0.3,1,0.2,0.3,0.7c-1.5,1.1-3.4,2-6,3c-0.1,0.5-0.2,1-0.6,1
			c-0.4,0-0.8-0.8-0.9-1.9c0-0.2,0.1-0.3,0.2-0.3c1.2-0.3,2.2-0.6,3.2-0.9c0-1.6,0-4.3,0-6.9h-2.5c-0.3,0-0.4-0.1-0.4-0.4
			c0-0.3,0.2-0.4,0.4-0.4h2.5c0-2.3-0.1-4.3-0.2-5c0-0.2,0.1-0.3,0.3-0.3c0.3,0,2.3,0.1,2.3,0.6c0,0.4-0.4,0.6-1.1,0.7v4h0.5
			c0.4-0.6,0.9-1.3,1.2-1.3c0.4,0,1.5,1.2,1.5,1.7c0,0.3-0.4,0.4-0.8,0.4h-2.3V1918.5z M138.3,1913.4c0,3,0,6.5,0,6.9
			c0,1.1,0.2,1.3,3.9,1.3c3.1,0,3.7-0.3,3.9-0.8c0.2-0.4,0.4-1.1,0.4-1.3c0.1-0.4,0.5-0.4,0.5,0c0,0.2,0,0.8,0.1,1.2
			c0.1,0.6,0.5,0.5,0.5,1c0,0.5-0.9,1.3-5.4,1.3c-4.7,0-5.4-0.5-5.4-2.4c0-0.4,0-3.5,0-6.6l-2.2,0.9c-0.2,0.1-0.4,0.1-0.6-0.2
			c-0.1-0.3,0-0.4,0.2-0.5l2.5-1.1c0-2.3-0.1-4.5-0.2-5.3c0-0.3,0-0.4,0.4-0.4c1.4,0,2.2,0.2,2.2,0.6c0,0.4-0.5,0.6-1,0.7
			c0,0.4,0,1.9,0,3.8l2.6-1.1c0-1.8,0-4.6-0.2-5.8c0-0.2,0.1-0.3,0.3-0.3c1.2,0,2.4,0.1,2.4,0.6c0,0.3-0.4,0.6-1,0.7
			c0,0.8,0,2.7,0,4.3l2.3-1c0.2-0.5,0.6-1.1,0.9-1.2c0.5,0,1.6,0.9,1.6,1.3c0,0.2-0.2,0.4-0.6,0.6c0.1,1.8,0,4.6-0.1,6.1
			c-0.2,1.3-1,1.9-2.1,2c-0.4,0-0.6-0.2-0.6-0.5c0-0.3-0.2-0.5-0.6-0.6c-0.4-0.2-0.3-0.6,0.1-0.5c0.3,0,0.7,0.1,1,0.1
			c0.5,0,0.7-0.3,0.8-0.8c0.2-1.3,0.2-3.9,0.2-5.7l-2.8,1.2v0.9c0,1.2,0.1,6.4,0.1,7.1c0,0.5-0.3,0.7-1,0.7c-0.4,0-0.6-0.2-0.6-0.6
			c0-0.8,0.2-5.6,0.2-6.9v-0.7L138.3,1913.4z"/>
	</g>
	<g class="st0">
		<path class="st1" d="M141.9,1951c0,0.4-0.3,0.7-0.7,0.7c-1,0-2-1.9-4.5-2.9c-0.2,2-1.1,3.3-3.4,3.3c-1.5,0-2.8-0.8-2.8-2.3
			c0-1.7,1.7-2.5,3.6-2.5c0.5,0,1,0,1.4,0.1c0-2.1-0.1-4.9-0.5-6.9c-0.1-0.6-0.3-1.4-0.8-1.7c-0.5-0.4-1-0.5-1-0.9
			c0-0.4,0.8-0.7,1.3-0.7c0.8,0,1.2,0.1,1.4,0.8c0.2,0.7,0.4,2,0.5,3.6c0.9-0.1,1.6-0.4,2.3-0.7c0.6-0.3,1-0.6,1.5-0.6
			c0.5,0,1,0.3,1,0.7c0,0.4-0.3,0.7-1,1.1c-1,0.4-2.6,0.6-3.8,0.4c0.2,1.9,0.2,4,0.3,5.2c1.7,0.4,3.2,1.1,4.3,2
			C141.7,1950.2,141.9,1950.6,141.9,1951z M135.4,1948.4c-0.7-0.2-1.2-0.2-1.6-0.2c-1.1,0-2.2,0.4-2.2,1.3c0,0.9,0.8,1.3,1.5,1.3
			C134.5,1950.8,135.3,1949.9,135.4,1948.4z"/>
	</g>
	<g class="st0">
		<path class="st1" d="M137.5,1967.6c0.3,0.6,0.3,0.9-0.5,1.6c-1.3,1.2-3.3,3.1-4.2,4.1c-0.5,0.5-0.7,0.8-0.7,1.3
			c0,0.3,0.3,0.7,1.1,1.3c1.2,0.9,2.6,2,3.5,2.8c1.2,1.1,1.6,2,1.6,2.9c0,0.7-0.4,0.9-0.8,0.9c-0.3,0-0.5-0.2-0.9-0.9
			c-0.4-0.8-0.8-1.3-1.4-2.1c-0.7-0.8-2.3-2.3-3.2-3.1c-0.6-0.5-1-1.1-1-1.7c0-0.7,0.4-1.3,1.1-2.2c0.8-1,2.4-2.8,3.2-3.8
			c0.4-0.5,0.5-1,0.4-1.4c-0.1-0.4-0.2-0.6-0.3-0.8c-0.1-0.3,0.1-0.5,0.5-0.3C136.6,1966.4,137.2,1967,137.5,1967.6z"/>
	</g>
</g>
</svg>
