<?xml version="1.0" encoding="utf-8"?>
<!-- Generator: Adobe Illustrator 26.3.1, SVG Export Plug-In . SVG Version: 6.00 Build 0)  -->
<svg version="1.1" id="レイヤー_1" xmlns="http://www.w3.org/2000/svg" xmlns:xlink="http://www.w3.org/1999/xlink" x="0px"
	 y="0px" viewBox="0 0 184.8 263.6" style="enable-background:new 0 0 184.8 263.6;" xml:space="preserve">
<g id="グループ_3528" transform="translate(-612 -2659.76)">
	<path id="パス_11909" d="M778.5,2686.1c0,1.8,0,2.3-0.1,4c0,1.6,0,1.6-0.1,2.3v0.1c0,0.3,0.1,0.4,0.5,0.4c1.7,0,2-0.1,2.1-0.6
		c0-1.9-0.1-4-0.1-6.3v-3.1c4-0.4,4-0.4,9.5-1.2c0.8,0.8,1.5,1.7,2.2,2.7c0.8,1.1,0.9,1.3,1.3,1.3c0.5,0,0.8-0.7,0.8-1.9
		c0.1-0.9-0.3-1.7-1-2.2c-2.1-1.3-4.4-2.3-6.7-3.2l-0.3,0.4c1,0.7,2,1.4,2.9,2.2c-5.5,0.4-5.5,0.4-11.7,0.5c2.9-1.6,5.8-3.3,8.5-5.2
		c0.5,0.1,1,0.2,1.5,0.2c0.3,0,0.5-0.2,0.5-0.4c0-0.3-0.7-0.8-3.5-2.1c-1.5,1.7-3.2,3.3-5,4.8c-1,0.9-1,0.9-3.4,2.7
		c-2.2,0-3.4,0.1-3.6,0.1c-2.1,0-6.1-0.1-7.9-0.2c0.5,3.3,0.7,3.9,1.1,3.9c0.3,0,0.4-0.2,0.6-1.5c3.4-0.1,3.4-0.1,11.6-0.7V2686.1z
		 M780.8,2664.1v-2.6c1.6-0.7,1.7-0.7,1.7-1c0-0.3-0.5-0.4-4.2-0.8c0.1,1.6,0.1,2.3,0.1,3.9v0.5h-10.1c-1.1,0-2.1-0.2-3.2-0.4
		l0.2,1.5c1-0.2,2-0.3,3-0.3h10.1v3.3h-7.8c-0.9,0-1.9-0.1-2.8-0.3l0.2,1.4c0.9-0.1,1.8-0.2,2.7-0.2h7.8v3.5H767
		c-1,0-2.1-0.1-3.1-0.3l0.2,1.4c1-0.2,2-0.2,3-0.3h10.4c-0.7,1.2-1.5,2.4-2.4,3.5c-1-0.5-2.1-0.9-3.2-1.3c-0.4-0.1-0.9-0.4-1.7-0.6
		l-0.2,0.4c1.4,0.9,2.7,2,3.9,3.1c1.5,1.7,1.5,1.7,1.7,1.8c0.4,0.4,0.5,0.5,0.8,0.5c0.5,0,0.8-0.7,0.8-1.8c0-0.8-0.3-1.2-1.3-1.8
		c1.7-1.2,3.3-2.5,4.7-3.9h15.9c0.3,0,0.4-0.1,0.4-0.2c0-0.1-0.1-0.2-0.2-0.3c-1.1-1-2.2-1.9-3.3-2.7c-1,1-1.3,1.3-2.3,2.4h-10.1
		v-3.5h11.1c0.1,0,0.2-0.1,0.3-0.2c0-0.1,0-0.2-0.1-0.3c-1.3-1-1.7-1.3-2.9-2.3c-0.9,0.8-1.2,1.1-2,1.9h-6.3v-3.3H795
		c0.1,0,0.3-0.1,0.3-0.2c0-0.1,0-0.2-0.1-0.3c-1-0.9-2.1-1.8-3.3-2.6c-0.9,0.9-1.2,1.2-2.1,2.2L780.8,2664.1z M764.6,2692.3
		c4-1.5,5.5-2.4,9.8-5.6c0.5,0,1,0.1,1,0.1c0.4,0,0.7-0.2,0.7-0.4c0-0.3-0.7-0.6-3.4-1.7c-0.9,1.2-1.9,2.2-3,3.1
		c-1.7,1.5-3.5,2.9-5.4,4.1L764.6,2692.3z M783.3,2685c3,1.6,5.6,3.8,7.9,6.3c0.4,0.4,0.6,0.5,0.8,0.5c0.4,0,0.7-0.8,0.7-1.8
		c0.1-1.1-0.5-2.1-1.5-2.5c-2.4-1.3-5-2.3-7.7-2.9L783.3,2685z M781,2725h7.5v1.4c0,0.3,0.1,0.4,0.6,0.4c1.6,0,2.1-0.1,2.1-0.7
		c-0.1-2.1-0.2-4.9-0.2-9.7v-2.9c1-0.7,1.2-0.9,1.2-1.2c0-0.1-0.1-0.3-0.4-0.5c-0.9-0.7-1.2-0.9-2.2-1.7c-0.7,0.8-0.7,0.8-1.5,1.7
		h-16.6c-0.9-0.6-1.8-1.2-2.7-1.7c0.1,1.7,0.1,3.6,0.1,7.2c0,3.3,0,6.7-0.1,9.4c0,0.3,0.2,0.4,0.6,0.4c1.3,0,2-0.2,2-0.6v-1.5h7.1
		v5.5h-11.2c-1.3,0.1-2.5,0-3.7-0.3l0.3,1.3c1.2-0.2,2.3-0.3,3.5-0.2h11.2v1.6c0,4.1,0,6.4-0.1,9.1v0.1c0,0.2,0.2,0.4,0.5,0.4
		c0.6,0,1.3-0.1,1.9-0.2c0.2-0.1,0.4-0.3,0.3-0.5c-0.1-2.1-0.1-2.1-0.1-8.9v-1.6h15.4c0.2,0,0.3-0.1,0.3-0.2c0-0.1-0.1-0.2-0.3-0.4
		c-1.6-1.4-1.6-1.4-3.5-2.9c-0.7,0.8-1.5,1.7-2.5,2.7H781V2725z M788.4,2717.9h-17.2v-5.2h17.2V2717.9z M788.4,2718.8v5.4h-17.2
		v-5.4H788.4z M779,2761c1.5,1,2,1.5,2,2.1c0,0.9-1.1,2.4-5.4,7.7c-2.2,2.7-2.8,3.7-2.8,4.8c0.1,1.1,0.6,2.2,1.4,3
		c1.9,2.1,3.6,4.2,5.3,6.5c1.2,1.6,2.2,3.3,3,5.1c0.6,1.3,0.8,1.5,1.2,1.5c0.8,0,1.2-0.8,1.2-2.2c0-0.8-0.2-1.6-0.5-2.4
		c-0.9-1.7-2.7-3.7-6.6-7.3c-0.9-0.7-1.7-1.5-2.5-2.4c-0.6-0.5-1-1.1-1.1-1.9c0-0.7,0.5-1.5,1.7-2.9c2.1-2.2,4.3-4.3,6.6-6.2
		c1.9-1.5,2.1-1.8,2.1-2.2c0-0.5-0.2-0.9-0.8-1.4c-1.1-1-2.5-1.7-4-1.9C779.5,2760.8,779.3,2760.9,779,2761L779,2761z M784.1,2814.8
		c2.1,1.6,4,3.6,5.5,5.7c1.6,2.4,1.6,2.4,1.8,2.6c0.1,0.1,0.3,0.2,0.5,0.2c0.6,0,1.3-1.2,1.3-2.4c0-1.3-0.5-2.1-1.9-3.2
		c-2.2-1.4-4.5-2.6-7-3.5L784.1,2814.8z"/>
	<path id="パス_11910" d="M700.7,2664.9c2.8-0.5,5.6-1.1,8.4-1.9c0.5,0.1,1,0.2,1.6,0.3c0.4,0,0.6-0.2,0.6-0.4
		c0-0.3-0.8-0.8-3.4-2.3c-2.6,1.2-5.4,2.1-8.2,2.7c-4.6,1-9.2,1.7-13.9,2.1l0.1,0.6c4.1,0,8.1-0.3,12.2-0.7v5.9h-8.4
		c-1.3,0-2.6-0.1-3.9-0.3l0.2,1.4c1.2-0.2,2.3-0.2,3.5-0.3h8.6v6.6h-10.5c-1.4,0-2.9-0.1-4.3-0.4l0.2,1.4c1.1-0.1,2.7-0.2,4.1-0.2
		h10.5v9.1c0,0.4-0.1,0.5-0.6,0.6c-1.9,0-1.9,0-7.1-0.4l0,0.6c1.6,0.2,3.2,0.5,4.8,1c0.9,0.4,1.2,0.8,1.3,2.1c3.6-0.8,4.3-1.3,4.3-3
		v-0.3c0-5.8,0-8.8,0-9v-0.6h14.3c0.2,0,0.4-0.1,0.4-0.2c0-0.1,0-0.2-0.1-0.3c-1.1-1-2.2-2-3.4-2.9c-1,1.1-1.4,1.4-2.4,2.6h-8.8
		v-6.6h12.3c0.3,0,0.4-0.1,0.4-0.3c0-0.1-0.1-0.2-0.1-0.2c-1.5-1.3-1.9-1.7-3.5-3c-0.9,1.1-1.2,1.4-2.2,2.6h-6.9V2664.9z
		 M694.2,2721.3v1.1c0.1,0.3,0.2,0.4,0.4,0.4c0.6,0,1.2,0,1.8-0.1c0.1-0.1,0.2-0.2,0.2-0.5c-0.1-2.2-0.1-3.4-0.1-5.3v-3.9
		c0.8-0.4,1-0.7,1-0.9c0-0.1-0.1-0.3-0.3-0.5c-0.8-0.7-1-0.9-1.9-1.6c-0.6,0.7-0.8,0.9-1.4,1.6h-7.4c-1.1-0.7-1.5-0.9-2.6-1.6
		c0.1,2.1,0.1,5.3,0.1,14.6c0,9,0,14.8-0.1,17.8c0,0.3,0.1,0.4,0.5,0.4c0.6,0,1.2,0,1.7-0.1c0.3-0.1,0.3-0.2,0.4-0.4v-20.9H694.2z
		 M694.2,2720.5h-7.7v-3.7h7.7V2720.5z M694.2,2716h-7.7v-3.5h7.7V2716z M711.5,2721.3v18c0,0.4-0.1,0.5-0.6,0.5
		c-2.2,0-3-0.1-5.9-0.3v0.5c0.1,0,0.8,0.1,2.1,0.4c0.7,0.1,1.3,0.2,1.9,0.5c0.6,0.4,1.1,1,1.3,1.7c3.1-0.7,3.8-1.2,3.9-2.8
		c0-3.4,0-3.4,0-9.4v-17.3c1-0.7,1.1-0.8,1.1-1c0-0.1-0.1-0.3-0.4-0.5c-0.9-0.7-1.2-0.9-2.2-1.6c-0.6,0.7-0.8,0.9-1.5,1.6h-7.5
		c-1.1-0.7-1.4-0.9-2.6-1.6c0.1,1.4,0.1,1.7,0.1,6.9c0,2,0,3.1-0.1,5.4c0,0.4,0.1,0.5,1,0.5c1,0,1.3-0.1,1.3-0.5v-0.9H711.5z
		 M711.5,2720.5h-8.1v-3.7h8.1V2720.5z M711.5,2716h-8.1v-3.5h8.1V2716z M694.2,2736.9h9.1v1.3c0,0.3,0.2,0.3,0.5,0.3
		c0.5,0,1,0,1.5-0.1c0.3-0.1,0.3-0.2,0.3-0.5v0c-0.1-2.8-0.1-4.2-0.1-6.6v-4c1-0.5,1.2-0.6,1.2-0.9c0-0.1-0.1-0.3-0.4-0.5
		c-0.8-0.7-1-0.9-1.8-1.5c-0.6,0.6-0.9,0.8-1.5,1.4h-8.4c-1.2-0.7-1.5-0.9-2.7-1.5c0.1,1.4,0.1,4.7,0.1,9c0,1.6,0,3.2-0.1,6.2
		c0,0.3,0.1,0.4,0.5,0.4c0.5,0,1-0.1,1.5-0.2c0.3-0.1,0.3-0.1,0.3-0.4L694.2,2736.9z M703.3,2730.6h-9.1v-4h9.1V2730.6z
		 M703.3,2731.4v4.6h-9.1v-4.6L703.3,2731.4z M685.2,2767.6c0.6,1.1,1.5,2,2.6,2.6c1,0.5,2.1,0.8,3.2,0.8c0.6,0,1.1-0.1,1.7-0.1
		c-1.2,3-2.7,5.8-4.5,8.5c-0.5,0.8-1.1,1.5-1.7,2.2c-0.3,0.3-0.5,0.8-0.4,1.3c0,1.4,0.5,2.6,1.1,2.6c0.4,0,0.8-0.3,1.3-1.3
		c0.3-0.6,3.1-6.7,4.2-9.1c1-2.2,1.6-3.6,1.9-4.4c5.7-1.3,8-2.2,8-3.2c0-0.6-1-1.1-2.4-1.1c-0.3,0-0.6,0.1-0.8,0.3c-1,0.9-1.3,1-4,2
		c1.3-2.7,2.1-4.1,2.2-4.4c0.2-0.3,0.3-0.6,0.4-0.9c0-0.5-0.5-0.9-1.7-1.5c-0.9-0.5-1.9-0.7-2.9-0.8c-0.3,0-0.6,0.1-0.9,0.3
		c1.7,0.9,2.3,1.6,2.3,2.8c-0.1,1.8-0.6,3.5-1.3,5.1c-1.1,0.3-2.2,0.4-3.3,0.4c-1.8,0-2.8-0.5-4.5-2.1L685.2,2767.6z M704.5,2769.9
		c2.6,0.9,3.7,1.4,4.6,2.5c-1.3,0.3-1.4,0.3-1.9,0.5c-1.3,0.2-2.5,0.8-3.4,1.7c-1,1.1-1.3,2.2-1.3,5.1c0,0.4,0,0.7,0.1,3.6
		c-0.7-0.1-1.4-0.2-2.2-0.2c-4,0-6.7,1.8-6.7,4.3c0,2.3,2.2,3.8,5.5,3.8c1.7,0.1,3.4-0.5,4.7-1.5c0.7-0.8,1.1-1.9,1-3.1v-0.7
		c1.7,0.7,3.1,1.8,4.4,3.2c0.8,0.8,0.9,0.9,1.3,0.9c0.4,0,0.7-0.5,0.7-1.2c0-1.1-0.5-2.2-1.4-2.8c-1.6-1.1-3.3-1.9-5.1-2.3
		c-0.4-2-0.6-4.1-0.7-6.2c0-2.5,0.9-3.3,3.8-3.3c1.2-0.1,2.5,0.1,3.5,0.8c0.2,0.2,0.5,0.3,0.8,0.3c0.5,0,0.9-0.4,0.9-0.9
		c0,0,0-0.1,0-0.1c0-0.8-0.9-1.9-2.3-2.8c-1.8-1.2-4-1.9-6.2-2L704.5,2769.9z M702.7,2786.1c0,2.3-1.5,3.5-4.4,3.5
		c-2.2,0-3.6-0.8-3.6-2.1c0-1.7,1.9-2.7,4.9-2.7c1,0,2.1,0.1,3.1,0.4L702.7,2786.1z M698,2811c1.5,1,2,1.5,2,2.1
		c0,0.9-1.1,2.4-5.4,7.7c-2.2,2.7-2.8,3.7-2.8,4.8c0.1,1.1,0.6,2.2,1.4,3c1.9,2.1,3.6,4.2,5.3,6.5c1.2,1.6,2.2,3.3,3,5.1
		c0.6,1.3,0.8,1.5,1.2,1.5c0.8,0,1.2-0.8,1.2-2.2c0-0.8-0.2-1.6-0.5-2.4c-0.9-1.7-2.7-3.7-6.6-7.3c-0.9-0.7-1.7-1.5-2.5-2.4
		c-0.6-0.5-1-1.1-1.1-1.9c0-0.7,0.5-1.5,1.7-2.9c2.1-2.2,4.3-4.3,6.6-6.2c1.9-1.5,2.1-1.8,2.1-2.2c0-0.5-0.2-0.9-0.8-1.4
		c-1.1-1-2.5-1.7-4-1.9C698.5,2810.8,698.3,2810.9,698,2811L698,2811z M704.1,2864.8c2.1,1.6,4,3.6,5.5,5.7c1.6,2.4,1.6,2.4,1.8,2.6
		c0.1,0.1,0.3,0.2,0.5,0.2c0.6,0,1.3-1.2,1.3-2.4c0-1.3-0.5-2.1-1.9-3.2c-2.2-1.4-4.5-2.6-7-3.5L704.1,2864.8z"/>
	<path id="パス_11908" d="M612.3,2689.3c2.2-0.9,4.3-2.1,6.3-3.5c3.3-2.2,6.2-5,8.7-8.1c3.4,2.3,6.3,5.3,8.6,8.8
		c0.3,0.5,0.5,1,0.9,1.4c0.2,0.3,0.5,0.5,0.8,0.6c0.6,0,1-0.7,1-1.9c0.1-1.3-0.4-2.6-1.4-3.6c-1.4-1.6-4.2-3.4-9.3-6.1
		c2.8-3.7,2.8-3.7,4.5-6.3c1.3-1.9,1.3-1.9,2.1-2.4c0.3-0.1,0.4-0.4,0.5-0.7c0-0.7-2.1-2.5-2.8-2.5c-0.3,0-0.6,0.1-0.8,0.3
		c-1.1,0.5-2.2,0.9-3.4,1c-2.5,0.5-5,0.8-7.6,1c-1.6,0-2.3-0.5-3.4-2.4c-0.1,0.2-0.2,0.5-0.3,0.7c0.1,0.8,0.3,1.5,0.8,2.2
		c0.8,1.4,1.5,2.1,2.3,2.1c0.2,0,0.4,0,0.6-0.1c1-0.4,2-0.7,3-1c2.5-0.8,5-1.3,7.6-1.6c-0.6,1.6-1.5,3.2-2.4,4.6
		c-2,3.2-4.3,6.2-6.9,9c-2.9,3-6.2,5.7-9.7,7.9L612.3,2689.3z M620.2,2727.4c1.5,1.2,2.9,2.6,4.2,4.1c1.3,1.6,2.5,3.4,3.5,5.3
		c0.5,1,0.8,1.3,1.3,1.3c0.7,0,1.2-1,1.2-2.4c0-1.5-0.7-2.5-3.1-4.5c1.3-0.8,1.9-1.3,3.8-2.7c1.3-1,2.3-1.8,3.1-2.3
		c1.4-1,2.3-1.7,2.7-2c0.6-0.6,1.3-1,2-1.3c0.7-0.3,0.7-0.3,0.9-0.3c0.3-0.1,0.4-0.4,0.4-0.7c0-0.5-0.5-1.2-1.5-2.2
		c-1.2-1.2-1.9-1.7-2.5-1.7c-0.3,0-0.6,0.1-0.9,0.3c-0.3,0.2-0.7,0.4-1.2,0.4c-0.3,0.1-2.2,0.3-5.5,0.8c-3.9,0.6-7.9,1.1-11.9,1.3
		c-0.8,0.1-1.5-0.1-2.2-0.4c-0.7-0.4-1.3-1-1.7-1.8c-0.1,0.3-0.2,0.5-0.2,0.8c0.2,1,0.6,2,1.3,2.7c0.9,1.2,1.8,1.9,2.4,1.9
		c0.4,0,0.7-0.1,1-0.3c1.5-0.7,3-1.2,7.1-1.9c3.7-0.8,7.4-1.3,11.2-1.6c0.4,0,0.6,0.1,0.6,0.3s-0.3,0.6-1.2,1.7
		c-2.5,3.1-5.3,6-8.2,8.7c-1.9-1.4-3.9-2.7-6-3.6L620.2,2727.4z M619.7,2811.9c1.5,0.4,2.6,1.7,2.7,3.2c0.2,2.1,0.3,4.1,0.3,6.2
		c0,9.2-0.2,13.9-0.8,15.6c-0.1,0.3-0.2,0.7-0.2,1c0,1.2,1.4,3.1,2.3,3.1c0.3,0,0.5-0.1,0.6-0.3c0.2-0.4,0.2-0.8,0.2-1.2
		c0-0.5,0-1.2,0-1.9c-0.1-3-0.1-3-0.1-4.1v-5.3c0-1.1,0-2.2,0-4.5c3.1,0.9,6,2.5,8.5,4.7c0.9,0.9,1,0.9,1.3,0.9
		c0.5,0,0.9-0.6,0.9-1.7c0-1.3-0.6-2-2.2-2.8c-2.7-1-5.5-1.7-8.4-2c0-4.2,0.2-6.9,0.6-7.8c0.2-0.5,0.2-0.5,0.2-0.8
		c0-0.7-0.9-1.4-2.4-2c-0.8-0.4-1.7-0.6-2.7-0.6C620.3,2811.6,620,2811.7,619.7,2811.9z M619.3,2876.6l-1.9,5
		c-0.4,1-0.8,2.1-1.3,3.1c-0.5-1.5-0.7-3.1-0.7-4.8c0-1.5,0.1-3,0.5-4.5c0.5-2,1.1-3.9,1.9-5.7c0.7-1.4,0.8-1.6,0.8-2.2
		c-0.1-1.1-0.6-2.1-1.3-2.8c-1-1.3-1.6-1.7-2.4-1.8c0.6,1,1,2.2,1,3.4c-0.1,1.1-0.2,2.3-0.5,3.3c-0.6,2.2-1,4.5-1.3,6.8
		c-0.2,1.3-0.3,2.6-0.3,3.9c-0.1,2.6,0.4,5.2,1.3,7.7c0.4,1,0.9,1.5,1.5,1.5c0.4,0,0.7-0.2,0.9-0.6c0.1-0.5,0.1-1,0.1-1.5
		c0-1.3,0.2-2.6,0.6-3.8c1-4.2,1.5-6.4,1.6-6.8L619.3,2876.6z M623.9,2867.5c1.3,1.4,3.1,2.1,4.9,2c0.3,0,0.7,0,1.5-0.1
		c-0.6,0.4-1.8,1.4-3.4,2.8l0.4,0.4c1.5-1,3-1.8,4.6-2.6c1.6-0.6,3.4-1.1,5.1-1.3c0.8-0.1,1-0.4,1-0.8s-0.4-0.9-1.1-1.3
		c-0.4-0.3-0.8-0.4-1.3-0.5c-0.3,0-0.3,0-0.8,0.3c-2.3,1-4.7,1.6-7.2,1.6c-1.2,0-2.4-0.3-3.3-1L623.9,2867.5z M623.7,2878.4
		c-0.3,0.9-0.4,1.9-0.4,2.8c-0.1,1.8,0.6,3.5,1.9,4.7c1.6,1.4,4.8,2.2,9.3,2.2c1.5,0.1,3-0.1,4.5-0.4c0.5-0.2,0.8-0.5,0.8-0.9
		c-0.3-1.1-1.1-1.9-2.3-2.1c-0.2,0-0.4,0-0.5,0.1c-0.6,0.3-1.2,0.5-1.9,0.6c-1,0.2-2,0.3-3.1,0.3c-5.6,0-7.8-1.6-7.8-5.6
		c0-0.5,0-1,0.1-1.5L623.7,2878.4z M636.2,2914.1c-2.6,0-4.6,2.1-4.6,4.6c0,2.6,2.1,4.6,4.6,4.6c2.6,0,4.6-2.1,4.6-4.6
		C640.9,2916.2,638.8,2914.1,636.2,2914.1C636.2,2914.1,636.2,2914.1,636.2,2914.1z M636.2,2915.2c1.9,0,3.5,1.5,3.5,3.5
		c0,0,0,0,0,0c0,1.9-1.5,3.5-3.4,3.5c0,0,0,0,0,0c-1.9,0-3.5-1.6-3.5-3.5C632.7,2916.8,634.2,2915.2,636.2,2915.2
		C636.2,2915.2,636.2,2915.2,636.2,2915.2L636.2,2915.2z"/>
	<path id="パス_11911" d="M629.3,2762.6c-0.3-0.3-0.3-0.3-0.8-0.3c-1.2,0.1-2.4,0.6-3.3,1.4c-0.8,0.6-1.2,1.2-1.2,1.7
		c0,0.2,0.1,0.4,0.1,0.5c0.3,0.6,0.4,0.9,0.5,2.6c0.1,1.3,0.3,9.5,0.3,12.9c0.1,6.8,0.1,7.7,0.4,8.6c0.1,0.5,0.5,0.8,1,0.8
		c0.3,0,0.6-0.2,0.7-0.5c0.3-0.6,0.3-1.4,0.3-4.7c0-1.2-0.2-12.6-0.2-14c-0.1-4-0.1-4-0.1-4.4c0-1.9,0.2-2.6,0.9-3.5
		C628.2,2763.3,628.7,2762.9,629.3,2762.6z"/>
</g>
</svg>
