<svg xmlns="http://www.w3.org/2000/svg" width="275.14" height="69.298" viewBox="0 0 275.14 69.298">
  <path id="kokoro" d="M-39.75-13.56a23.2,23.2,0,0,1,1.71,3.36c.63,1.56.93,2.82,2.01,2.85a1.529,1.529,0,0,0,1.62-1.68c.09-2.01-2.55-4.5-4.47-5.43C-39.72-14.88-40.11-14.19-39.75-13.56Zm-11.19-9.78a18.15,18.15,0,0,1,2.31,2.58c.96,1.23,1.56,2.28,2.58,2.04a1.511,1.511,0,0,0,1.17-2.01c-.42-1.95-3.39-3.42-5.46-3.75C-51.27-24.63-51.48-23.88-50.94-23.34Zm-2.67,6.03c.33,2.46.18,13.83.18,15.03,0,2.76.66,3.63,6.81,3.63,6.09,0,7.41-1.29,7.41-2.01,0-.66-.63-.84-.69-1.86-.03-.75-.06-1.71-.09-2.22a.572.572,0,0,0-1.14-.06,21.651,21.651,0,0,1-.63,2.49c-.3.84-.96,1.44-4.92,1.44-4.26,0-4.5-.51-4.5-1.95,0-.93.03-11.58.09-13.08.93-.15,1.56-.45,1.56-1.02,0-.69-1.38-1.02-3.45-1.02C-53.46-17.94-53.67-17.76-53.61-17.31Zm-4.92,3.81a5.935,5.935,0,0,1-.99,3.9c-.84,1.14-2.13,1.47-2.13,2.82a1.28,1.28,0,0,0,1.38,1.35c2.34,0,4.17-3.81,3.12-8.25A.7.7,0,0,0-58.53-13.5Zm32.28,7.08-.03-6.15v-.48h3.6l-.03,6.63ZM-22.65-21c0,1.23,0,3.87-.03,6.75h-3.6c0-2.1.03-5.43.12-6.75Zm-2.49-1.2a7.641,7.641,0,0,0-3.03-1.32.409.409,0,0,0-.42.42c.45,4.05.12,17.79.12,21.06,0,.57.27.87.84.87.96,0,1.41-.36,1.41-1.02l-.03-3.03h3.51v1.95a.917.917,0,0,0,.93,1.02c.84,0,1.38-.21,1.38-1.14,0-1.98-.27-13.56-.06-17.22.51-.21.96-.48.96-.87,0-.63-1.74-1.95-2.37-1.95-.3,0-.87.66-1.32,1.23ZM-15.12-4.38V-6.87H-7.2v2.49Zm7.92-5.94v2.25h-7.92c.03-.87.03-1.68.06-2.1a3.242,3.242,0,0,0,.63-.15Zm-7.35-1.2a7.8,7.8,0,0,0-2.37-.96.372.372,0,0,0-.42.39c.33,3.12.12,10.95.09,13.32a.738.738,0,0,0,.81.84c.9,0,1.35-.3,1.35-.96l-.03-4.29H-7.2c-.03.66-.03,1.29-.06,1.77-.06.69-.27.96-.93.96-.36,0-1.14-.09-1.38-.09-.57,0-.63.72-.03.99,1.41.54.72,1.59,1.89,1.59A2.393,2.393,0,0,0-5.22-.48c.03-3.21,0-6.96.06-9.33.57-.24,1.08-.51,1.08-.9,0-.54-1.83-2.04-2.55-2.04-.21,0-.81.66-1.23,1.23Zm3.75-3.3v-2.46h5.4c.99,0,1.47-.21,1.47-.6,0-.66-1.95-2.25-2.46-2.25-.39,0-1.08.87-1.62,1.65H-10.8V-20.7h6.66c1.05,0,1.53-.21,1.53-.63,0-.69-2.01-2.37-2.58-2.37-.42,0-1.14.96-1.71,1.8h-3.9v-1.26c.84-.18,1.44-.42,1.44-.99,0-.72-2.73-.84-3.24-.84-.27,0-.45.15-.42.42.06.6.12,1.56.15,2.67h-5.67c-.39,0-.66.15-.66.6,0,.48.27.6.66.6h5.7c.03.72.03,1.47.03,2.22h-4.92c-.39,0-.66.15-.66.6,0,.48.27.6.66.6h4.92v2.46h-6.78c-.39,0-.66.15-.66.6,0,.48.27.6.66.6H-3.6c1.02,0,1.47-.21,1.47-.6,0-.66-1.92-2.25-2.46-2.25-.39,0-1.05.87-1.62,1.65ZM10.92-9.6c.27-.42.69-1.05,1.11-1.68a33.5,33.5,0,0,1-.63,6.57c-.24.93-.6.78-1.11.24-.36-.39-.87-1.02-1.44-1.77ZM5.67-11.64c0-1.53,4.47-2.88,5.25-3.09.63-.18.84.09.66.6A31.221,31.221,0,0,1,7.71-7.89,13.616,13.616,0,0,1,5.67-11.64Zm2.46,6.6c.36.6.66,1.11.84,1.38a6.534,6.534,0,0,1,1.2,2.22c.21.9.48,1.53,1.05,1.53.78,0,1.26-.57,1.53-1.59.45-1.68.57-6.81.69-11.52,1.92-2.16,4.65-4.47,7.05-4.47a1.833,1.833,0,0,1,1.83,2.07c0,2.88-1.65,6.51-1.65,9.24,0,2.1,1.05,4.59,3.99,4.59A7.338,7.338,0,0,0,29.94-4.2c.33-.42.03-.9-.51-.66a10.963,10.963,0,0,1-4.56,1.08c-1.32,0-1.98-.84-1.98-2.61.03-2.58,1.5-5.97,1.5-8.88a3.217,3.217,0,0,0-3.42-3.51c-2.46,0-4.65,1.35-7.17,3.42a1.521,1.521,0,0,0-.27-.48c.03-2.01.09-4.38.09-5.4,0-1.62-.57-1.98-2.82-1.98-1.05,0-1.74.45-1.74.84s.66.6,1.35.87a1.5,1.5,0,0,1,1.17,1.41c.12.69.24,1.98.33,3.42a1.753,1.753,0,0,0-.57-.06,13.028,13.028,0,0,0-5.97,2.52,3.135,3.135,0,0,0-1.38,2.34A2.9,2.9,0,0,0,5.13-9.57,16.539,16.539,0,0,1,6.99-6.96C5.94-5.55,4.95-4.29,4.32-3.42a3.463,3.463,0,0,0-.75,1.86A1.055,1.055,0,0,0,4.5-.42c.45,0,.9-.24,1.41-1.05ZM48.18-2.13c-1.41,0-2.73-.51-2.7-1.53a1.236,1.236,0,0,1,1.41-1.23c1.23,0,2.1.96,2.22,2.73C48.81-2.13,48.48-2.13,48.18-2.13Zm-.81-9.81c1.62-1.41,3.3-2.79,5.37-4.35.84-.66,2.25-1.44,2.25-2.31,0-.99-1.65-2.61-3.21-2.61a6.708,6.708,0,0,0-2.28.54c-2.37.78-5.19,1.8-6.27,1.8a4.556,4.556,0,0,1-2.19-1.2c-.51-.39-.87-.21-.87.51a3.574,3.574,0,0,0,3.03,3.24c1.56,0,6.45-3.39,8.19-3.39.48,0,.72.33.36.96a26.012,26.012,0,0,1-4.83,5.16c-1.62,1.38-4.56,3.54-5.85,4.77-.9.9-1.14,1.74-.81,2.37.33.69,1.11.66,1.89,0,.78-.69,1.68-1.74,3.27-3.09a6.162,6.162,0,0,1,4.2-1.44,4.075,4.075,0,0,1,4.35,4.14,4.146,4.146,0,0,1-2.67,4.2,4.148,4.148,0,0,0-4.2-3.48,2.754,2.754,0,0,0-3,2.73c0,2.07,1.95,3.12,4.5,3.12,4.2,0,7.62-2.22,7.62-6.15C56.22-10.47,52.35-12.93,47.37-11.94ZM-134.025,26.33c-.57-.36-1.05-.12-.9.66a3.525,3.525,0,0,0,2.79,2.76c1.41,0,6.54-2.07,7.59-2.31.9-.21,1.17-.21.54,1.05-1.92,3.81-6.87,8.94-12.99,11.82a.731.731,0,1,0,.54,1.35,29.815,29.815,0,0,0,14.55-12c.6-.93,1.53-1.17,1.53-1.89,0-1.08-1.92-2.4-3-2.4-.63,0-.87.3-1.71.57a32.7,32.7,0,0,1-6.75,1.38C-132.555,27.32-133.035,26.96-134.025,26.33Zm11.16,8.91c-.78-.15-1.29.51-.63,1.05a19.351,19.351,0,0,1,2.85,2.79c.87,1.05,1.23,2.13,2.25,2.13a1.181,1.181,0,0,0,1.26-1.2C-117.045,37.61-119.955,35.81-122.865,35.24Zm35.04-7.95c-.51,0-1.2.36-2.13.51-3.69.6-10.95,1.74-12.63,1.74a6.087,6.087,0,0,1-2.82-.96c-.48-.27-.99-.09-.87.48a4.22,4.22,0,0,0,3.33,3.06,20.9,20.9,0,0,0,3.27-.87,80.2,80.2,0,0,1,10.92-2.01c.72-.03.87.15.45.78a22.508,22.508,0,0,1-5.07,5.16,16.906,16.906,0,0,0-3.54-1.77c-.87-.33-1.26.33-.69.87a35.208,35.208,0,0,1,3.15,3.18c1.65,1.95,1.86,3.27,2.85,3.27a1.131,1.131,0,0,0,1.2-1.29,4.367,4.367,0,0,0-1.59-3.24,52.04,52.04,0,0,0,5.34-4.17c.99-.9,2.43-1.14,2.43-2.04C-84.225,29.15-86.295,27.29-87.825,27.29Zm14.88,4.53c-.48-.3-.84-.09-.84.42,0,1.41,1.47,3.27,2.76,3.27a24.558,24.558,0,0,0,3.33-.51c1.41-.24,7.74-.99,10.08-.99,2.25,0,2.82.15,3.93.15.93,0,1.23-.39,1.23-.84,0-1.29-1.89-1.98-3.12-1.98-1.2,0-1.89.3-4.44.63-2.07.27-8.76.96-10.35.96A4.932,4.932,0,0,1-72.945,31.82Zm39.15-9.09c-.63,0-1.89.54-1.89.96,0,.39.36.48,1.23.9.54.27.72.39.81,1.38.15,1.68.12,3.27.12,6.12,0,5.91-.57,8.61-.57,9.75,0,1.56.6,2.46,1.53,2.46.75,0,1.2-.54,1.2-1.95,0-1.38-.24-6.21-.24-8.88,0-1.86.06-4.05.15-5.85s.57-2.58.57-3.27C-30.885,23.45-32.715,22.73-33.795,22.73Zm4.2,9.78c3.57,1.86,4.2,3.51,5.16,3.51.87,0,1.2-.6,1.2-1.32,0-1.89-3.15-3.33-6-3.33C-30.195,31.37-30.285,32.15-29.595,32.51Zm21.75-2.79c1.41,1.23,2.79,2.4,3.51,3.18.87.93,1.56,1.2,2.19.72s.6-1.65-.3-2.55a8.305,8.305,0,0,0-4.92-2.22C-8,28.76-8.265,29.36-7.845,29.72Zm4.29-4.89a24.912,24.912,0,0,1,3.21,3c.96,1.11,1.65,1.29,2.19.93.72-.48.84-1.65-.06-2.64a8.513,8.513,0,0,0-4.89-2.22C-3.765,23.81-4.1,24.41-3.555,24.83Zm-3.09,13.92c-.42-.24-.75,0-.72.54.09,1.65,2.22,3.3,3.63,3.3a6.766,6.766,0,0,0,2.61-1.08c5.22-2.97,10.68-7.95,13.32-12.39a.649.649,0,0,0-1.08-.72c-3.21,4.02-8.52,8.94-13.92,11.31a2.414,2.414,0,0,1-2.22-.03C-5.445,39.47-6.225,38.99-6.645,38.75Zm44.07-.51c-.63,0-1.77.09-3.87.27.48-1.5.9-3.06,1.08-3.81.21-.72.66-1.08.66-1.59,0-.63-1.44-1.62-2.34-1.62a5.041,5.041,0,0,0-1.44.36,20.4,20.4,0,0,1-4.32.84,3.177,3.177,0,0,1-1.65-.63c-.6-.39-1.02-.06-.9.57a2.76,2.76,0,0,0,2.31,2.34c1.17,0,4.26-1.41,5.07-1.53.42-.06.48-.03.42.36a28.9,28.9,0,0,1-.9,4.95c-2.91.33-6.96.84-7.65.84a5.539,5.539,0,0,1-1.86-.36c-.63-.18-.99.12-.78.81a2.819,2.819,0,0,0,2.43,1.77,8.039,8.039,0,0,0,2.13-.42,37.09,37.09,0,0,1,7.86-1.02c3-.03,4.17.36,5.28.36a.877.877,0,0,0,.99-.9C39.945,38.99,38.805,38.3,37.425,38.24Zm15.78-6.42c-.48-.3-.84-.09-.84.42,0,1.41,1.47,3.27,2.76,3.27a24.558,24.558,0,0,0,3.33-.51c1.41-.24,7.74-.99,10.08-.99,2.25,0,2.82.15,3.93.15.93,0,1.23-.39,1.23-.84,0-1.29-1.89-1.98-3.12-1.98-1.2,0-1.89.3-4.44.63-2.07.27-8.76.96-10.35.96A4.932,4.932,0,0,1,53.205,31.82Zm50.7-4.92c-1.23-.03-2.67.66-5.04,1.17a45.467,45.467,0,0,1-5.79.93,5.246,5.246,0,0,1-1.26-.24,15.213,15.213,0,0,0,.69-3.69c0-1.2-2.37-2.01-3.51-2.01-.51,0-1.08.33-1.08.66,0,.39.72.75,1.29,1.2.66.54.78.78.72,1.35a27.093,27.093,0,0,1-4.35,11.7c-.57.9.39,1.44,1.05.72a23.54,23.54,0,0,0,4.8-8.61,3.6,3.6,0,0,0,1.77.72,26,26,0,0,0,3.27-.45c.66.51.99.84.9,1.38-.6,3.96-3.81,8.7-7.71,11.52-.75.54-.21,1.38.69.93A18.13,18.13,0,0,0,99.4,33.32c.18-.6.66-1.2.66-1.8,0-.42-.63-.99-1.62-1.44,1.95-.27,4.53-.66,5.79-.81,1.32-.15,1.86-.33,1.86-.93C106.1,27.62,105.105,26.93,103.9,26.9Zm25.44,5.49a41.9,41.9,0,0,0,6.03-3.75c.9-.66,2.25-.93,2.25-1.68,0-.96-1.92-2.67-3.03-2.67-.75,0-1.41.45-2.76.66-1.59.24-9.84,1.38-11.19,1.38-1.11,0-1.5-.54-2.46-1.17a.554.554,0,0,0-.9.45c.09,1.68,1.62,3.24,2.76,3.24a46.682,46.682,0,0,0,5.46-1.14c2.04-.42,6.84-1.32,7.62-1.32.69,0,.72.18.21.78a19,19,0,0,1-4.08,3.63,4.021,4.021,0,0,0-2.37-.93c-.69,0-1.41.42-1.41.87,0,.54,1.35.75,1.35,1.77,0,2.16-2.49,6.81-7.38,9.9-.99.63-.51,1.71.57,1.26a15.8,15.8,0,0,0,9.27-11.07Z" transform="translate(137.515 24.99)"/>
</svg>
