<svg xmlns="http://www.w3.org/2000/svg" width="63.376" height="15.008" viewBox="0 0 63.376 15.008">
  <path id="ラクツ" d="M11.312-13.248V1.088a.3.3,0,0,0,.32.336h3.536a.311.311,0,0,0,.336-.336V.96a.311.311,0,0,0-.336-.336H12.384c-.224,0-.272-.064-.272-.288V-12.5c0-.224.048-.288.272-.288h2.784a.311.311,0,0,0,.336-.336v-.128a.311.311,0,0,0-.336-.336H11.632A.3.3,0,0,0,11.312-13.248ZM23.1-10.736c-.352-.176-.5.048-.368.336a1.843,1.843,0,0,0,1.808,1.136,11.393,11.393,0,0,0,3.136-.56c.432-.144.656-.3.656-.624,0-.288-.464-.5-1.008-.5a18.555,18.555,0,0,1-2.976.592A3.253,3.253,0,0,1,23.1-10.736ZM21.536-7.392c-.288-.208-.544-.064-.5.256a1.871,1.871,0,0,0,1.44,1.552A6.348,6.348,0,0,0,24-5.952a36.508,36.508,0,0,1,3.9-.832c.464-.048.448.032.352.3A10.9,10.9,0,0,1,22.5-.736c-.576.256-.32.816.224.656a11.424,11.424,0,0,0,6.8-5.776c.192-.336.656-.608.656-.928,0-.432-.928-1.136-1.648-1.136-.272,0-.384.16-.8.24-.9.176-4.272.784-5.136.784A1.593,1.593,0,0,1,21.536-7.392ZM45.728-9.984c-.368,0-.7.336-1.12.4a8.637,8.637,0,0,1-2.624.16A3.808,3.808,0,0,0,42.032-10c0-.608-1.312-1.248-1.92-1.248-.3,0-.5.112-.5.272,0,.144.112.256.416.56a1.372,1.372,0,0,1,.528,1.488A13.546,13.546,0,0,1,38.176-3.36c-.272.432.176.768.576.384A13.607,13.607,0,0,0,41.84-8.624a1.275,1.275,0,0,0,.736.368c.528,0,1.664-.432,2.544-.56.208-.032.288.032.24.288A11.837,11.837,0,0,1,39.68-.8c-.592.32-.336.864.272.624,3.68-1.472,5.552-4.656,6.608-7.632.192-.544.64-.7.64-1.056A2.014,2.014,0,0,0,45.728-9.984Zm13.68.08c-.416-.224-.672.048-.464.448.256.5.64,1.248.864,1.776s.48.72.816.72c.368,0,.624-.272.624-.736C61.248-8.64,60.192-9.488,59.408-9.9ZM63.2-9.92c0,.176.288.3.528.528a.659.659,0,0,1,.192.864,13.785,13.785,0,0,1-7.392,7.344c-.448.208-.24.72.176.608a13.438,13.438,0,0,0,8.24-7.088c.352-.7.592-.928.592-1.248,0-.592-.992-1.344-1.616-1.344C63.68-10.256,63.2-10.128,63.2-9.92Zm-6.9,1.2c-.416-.224-.688.048-.464.448.256.5.656,1.312.88,1.84s.48.72.816.72c.368,0,.624-.272.624-.736C58.16-7.392,57.088-8.288,56.3-8.72ZM74.688,1.088V-13.248a.3.3,0,0,0-.32-.336H70.832a.311.311,0,0,0-.336.336v.128a.311.311,0,0,0,.336.336h2.784c.224,0,.272.064.272.288V.336c0,.224-.048.288-.272.288H70.832A.311.311,0,0,0,70.5.96v.128a.311.311,0,0,0,.336.336h3.536A.3.3,0,0,0,74.688,1.088Z" transform="translate(-11.312 13.584)"/>
</svg>
