<svg xmlns="http://www.w3.org/2000/svg" width="238.574" height="37.543" viewBox="0 0 238.574 37.543">
  <path id="LOGO" d="M1772.115,265.7a18.781,18.781,0,0,1-10.242,2.957c-10.637,0-18.271-7.929-18.271-17.727v-.1c0-9.8,7.732-17.827,18.369-17.827s18.271,7.927,18.271,17.727v.1a17.679,17.679,0,0,1-3.055,9.9l3.547,3.005-4.826,5.366Zm-20.584-14.97v.1c0,5.909,4.333,10.832,10.44,10.832a10.378,10.378,0,0,0,4.531-.934l-5.614-4.777,4.826-5.419,5.666,5.124a12.1,12.1,0,0,0,.934-4.726v-.1c0-5.911-4.333-10.835-10.44-10.835S1751.531,244.818,1751.531,250.727ZM1608,268.064V233.59h7.583v27.579h17.187v6.895Zm211.865,0v-6.007l11.474-9.407c4.284-3.545,5.96-5.417,5.96-8.274,0-2.9-1.922-4.481-4.63-4.481-2.659,0-4.481,1.478-7.041,4.63l-5.319-4.286c3.4-4.629,6.7-7.141,12.853-7.141,7.141,0,11.867,4.187,11.867,10.64v.1c0,5.763-2.953,8.618-9.059,13.346l-5.616,4.333h15.021v6.55Zm-120.246,0-3.153-7.731h-14.577l-3.15,7.731h-7.731l14.773-34.719h6.995l14.773,34.719ZM1684.6,253.635h9.16l-4.579-11.179Z" transform="translate(-1607.399 -232.4)" fill="rgba(0,0,0,0)" stroke="#1a1311" stroke-miterlimit="10" stroke-width="1.2"/>
</svg>
