<?xml version="1.0" encoding="utf-8"?>
<!-- Generator: Adobe Illustrator 25.4.1, SVG Export Plug-In . SVG Version: 6.00 Build 0)  -->
<svg version="1.1" id="レイヤー_1" xmlns="http://www.w3.org/2000/svg" xmlns:xlink="http://www.w3.org/1999/xlink" x="0px"
	 y="0px" viewBox="0 0 80 80" style="enable-background:new 0 0 80 80;" xml:space="preserve">
<style type="text/css">
	.st0{enable-background:new    ;}
	.st1{fill:#FFFFFF;}
</style>
<g id="グループ_4850" transform="translate(-1317 -4962)">
	<circle id="楕円形_25" cx="1357" cy="5002" r="40"/>
	<g class="st0">
		<path class="st1" d="M1340.4,5003.4v4.1c0,0.3,0.1,0.5,0.4,0.7s0.7,0.2,1.3,0.3c0.2,0,0.2,0.1,0.2,0.3c0,0.1,0,0.2,0,0.3
			c-0.4,0-0.8,0-1.3-0.1c-0.5,0-1,0-1.6,0c-0.3,0-0.7,0-1.2,0c-0.4,0-0.9,0-1.2,0.1c0-0.1,0-0.2,0-0.3c0-0.2,0.1-0.3,0.2-0.3
			c0.5-0.1,0.9-0.2,1.1-0.3c0.2-0.1,0.3-0.3,0.3-0.6v-10.2c0-0.3-0.1-0.5-0.3-0.6c-0.2-0.1-0.6-0.2-1.1-0.3c-0.1,0-0.2-0.1-0.2-0.4
			c0-0.1,0-0.2,0-0.3c0.4,0,0.8,0,1.2,0.1c0.4,0,0.8,0,1.2,0h2.8c1.4,0,2.5,0.3,3.2,1c0.7,0.7,1.1,1.6,1.1,2.6
			c0,0.4-0.1,0.9-0.3,1.3s-0.5,0.8-0.8,1.2c-0.4,0.4-0.8,0.6-1.4,0.9c-0.5,0.2-1.2,0.3-1.8,0.3H1340.4z M1341.5,5002.5
			c0.9,0,1.7-0.2,2.2-0.6c0.5-0.4,0.8-1.1,0.8-2.1c0-0.4,0-0.8-0.1-1.2c-0.1-0.4-0.3-0.7-0.5-1s-0.5-0.5-0.9-0.7
			c-0.4-0.2-0.8-0.2-1.4-0.2h-1.1v5.7H1341.5z"/>
		<path class="st1" d="M1353.8,5000.3c0.4,0,0.7,0.1,0.9,0.3s0.3,0.4,0.3,0.6c0,0.1,0,0.2,0,0.2c0,0.1-0.1,0.1-0.2,0.2
			s-0.2,0.2-0.4,0.3c-0.2,0.1-0.4,0.2-0.8,0.4c-0.1-0.1-0.3-0.3-0.4-0.4c-0.2-0.1-0.4-0.2-0.5-0.2c-0.2,0-0.4,0.1-0.6,0.2
			c-0.2,0.1-0.3,0.3-0.5,0.5c-0.1,0.2-0.2,0.5-0.3,0.8c-0.1,0.3-0.1,0.6-0.1,0.9v3.4c0,0.3,0.2,0.5,0.5,0.7c0.3,0.1,0.7,0.2,1.3,0.3
			c0.1,0,0.2,0.1,0.2,0.2c0,0.1,0,0.2,0,0.3c-0.1,0-0.3,0-0.6,0c-0.2,0-0.4,0-0.7,0c-0.2,0-0.5,0-0.7,0c-0.3,0-0.5,0-0.7,0
			c-0.4,0-0.7,0-1.1,0c-0.4,0-0.8,0-1.1,0.1c0-0.1,0-0.2,0-0.3c0-0.1,0.1-0.2,0.2-0.2c0.3-0.1,0.6-0.1,0.8-0.2
			c0.2-0.1,0.4-0.3,0.4-0.5v-5.1c0-0.3,0-0.5,0-0.7c0-0.2-0.1-0.3-0.2-0.4c-0.1-0.1-0.2-0.2-0.3-0.2c-0.2-0.1-0.4-0.1-0.6-0.1
			c-0.2,0-0.3-0.1-0.3-0.3c0-0.1,0-0.2,0-0.3c0.2,0,0.4,0,0.7,0c0.3,0,0.6,0,0.8-0.1c0.3-0.1,0.6-0.1,0.8-0.2
			c0.2-0.1,0.4-0.1,0.5-0.1c0.2,0,0.3,0.1,0.3,0.3v1.3c0.4-0.5,0.9-0.9,1.3-1.2C1352.8,5000.5,1353.3,5000.3,1353.8,5000.3z"/>
		<path class="st1" d="M1363.4,5007.1c0.1-0.1,0.2-0.1,0.3-0.1c0.1,0,0.3,0.1,0.4,0.3c-0.2,0.2-0.4,0.5-0.6,0.7s-0.5,0.4-0.8,0.6
			c-0.3,0.2-0.7,0.3-1.1,0.4s-0.9,0.2-1.4,0.2c-0.5,0-1-0.1-1.5-0.3c-0.5-0.2-0.9-0.4-1.3-0.8c-0.4-0.4-0.7-0.8-0.9-1.3
			c-0.2-0.5-0.3-1.2-0.3-1.9c0-0.7,0.1-1.3,0.4-1.9c0.3-0.6,0.6-1.1,1-1.5c0.4-0.4,0.9-0.7,1.4-1s1-0.3,1.5-0.3
			c1.2,0,2.1,0.4,2.7,1.1c0.6,0.7,0.8,1.7,0.8,2.8c0,0.1,0,0.1-0.1,0.1l-5.8,0.3c0,0.5,0.1,1,0.2,1.4c0.1,0.4,0.4,0.8,0.6,1.1
			c0.3,0.3,0.6,0.6,1,0.8c0.4,0.2,0.8,0.3,1.3,0.3c0.4,0,0.8-0.1,1.2-0.3C1362.8,5007.7,1363.2,5007.4,1363.4,5007.1z M1360.2,5001
			c-0.7,0-1.2,0.3-1.6,0.8c-0.4,0.5-0.6,1.2-0.6,2l3.8-0.2c0.2,0,0.3-0.1,0.3-0.3c0-0.3,0-0.5-0.1-0.8s-0.2-0.5-0.4-0.8
			c-0.2-0.2-0.4-0.4-0.6-0.6C1360.8,5001.1,1360.5,5001,1360.2,5001z"/>
		<path class="st1" d="M1370.7,5006.8c0.6-1.6,1.1-2.8,1.4-3.7c0.3-0.9,0.5-1.4,0.5-1.6c0-0.1,0-0.2-0.1-0.3
			c-0.1-0.1-0.3-0.2-0.6-0.2c-0.2,0-0.3-0.1-0.3-0.3c0,0,0-0.1,0-0.1c0-0.1,0-0.1,0-0.1c0.5,0,1.1,0.1,1.7,0.1c0.3,0,0.6,0,0.8,0
			c0.2,0,0.5,0,0.7,0c0,0.1,0.1,0.2,0.1,0.3c0,0.1,0,0.1-0.1,0.2c0,0-0.1,0.1-0.2,0.1c-0.2,0.1-0.5,0.3-0.7,0.4s-0.4,0.3-0.5,0.6
			l-2.9,7.2c-0.1,0-0.2,0-0.3,0c-0.1,0-0.2-0.1-0.3-0.2c-0.1-0.1-0.2-0.3-0.3-0.6l-2.7-6.4c-0.1-0.2-0.2-0.4-0.2-0.5
			s-0.1-0.2-0.2-0.3c-0.1-0.1-0.2-0.1-0.3-0.1c-0.1,0-0.3-0.1-0.5-0.1c-0.2,0-0.3-0.1-0.3-0.3c0-0.1,0-0.2,0.1-0.3
			c0.3,0,0.6,0,0.9,0s0.6,0,1,0c0.4,0,0.8,0,1.1,0s0.7,0,1,0c0,0.1,0.1,0.2,0.1,0.3c0,0.2-0.1,0.2-0.3,0.3c-0.3,0.1-0.5,0.1-0.6,0.2
			c-0.1,0.1-0.1,0.1-0.1,0.2c0,0.1,0,0.2,0.1,0.5c0.1,0.3,0.2,0.6,0.4,1L1370.7,5006.8z"/>
	</g>
</g>
</svg>
