<?xml version="1.0" encoding="utf-8"?>
<!-- Generator: Adobe Illustrator 25.4.1, SVG Export Plug-In . SVG Version: 6.00 Build 0)  -->
<svg version="1.1" id="レイヤー_1" xmlns="http://www.w3.org/2000/svg" xmlns:xlink="http://www.w3.org/1999/xlink" x="0px"
	 y="0px" viewBox="0 0 80 80" style="enable-background:new 0 0 80 80;" xml:space="preserve">
<style type="text/css">
	.st0{enable-background:new    ;}
	.st1{fill:#FFFFFF;}
</style>
<g id="グループ_4850" transform="translate(-1317 -4962)">
	<circle id="楕円形_25" cx="1357" cy="5002" r="40"/>
	<g class="st0">
		<path class="st1" d="M1347.3,5005.8v-8.4c0-0.3-0.1-0.5-0.3-0.6s-0.6-0.2-1.1-0.3c-0.1,0-0.2-0.1-0.2-0.3c0-0.1,0-0.2,0-0.3
			c0.3,0,0.7,0,1,0.1c0.3,0,0.7,0,1,0c0.3,0,0.6,0,0.9,0c0.3,0,0.6,0,0.9-0.1c0,0.1,0,0.2,0,0.3c0,0.2-0.1,0.3-0.2,0.3
			c-0.5,0.1-0.8,0.2-0.9,0.3c-0.2,0.1-0.2,0.3-0.2,0.6v11.8c0,0-0.1,0-0.1,0c-0.1,0-0.1,0-0.2,0c-0.1,0-0.2,0-0.3-0.1
			s-0.2-0.1-0.3-0.3l-8.1-10.7v9.4c0,0.3,0.1,0.5,0.3,0.6c0.2,0.1,0.5,0.2,1.1,0.3c0.1,0,0.2,0.1,0.2,0.3c0,0.1,0,0.2,0,0.3
			c-0.3,0-0.7,0-1-0.1c-0.3,0-0.7,0-1,0c-0.3,0-0.6,0-0.9,0c-0.4,0-0.7,0-1,0.1c0-0.1,0-0.2,0-0.3c0-0.2,0.1-0.3,0.2-0.3
			c0.5-0.1,0.8-0.2,1-0.3c0.2-0.1,0.2-0.3,0.2-0.6v-10.3c0-0.2-0.1-0.4-0.2-0.5s-0.5-0.2-0.9-0.3c-0.1,0-0.2-0.1-0.2-0.3
			c0-0.1,0-0.1,0-0.2c0,0,0-0.1,0-0.1c0.3,0,0.5,0,0.8,0.1c0.2,0,0.4,0,0.7,0c0.2,0,0.5,0,0.6,0c0.4,0,0.6,0,0.8,0
			c0.1,0,0.2,0.1,0.3,0.2L1347.3,5005.8z"/>
		<path class="st1" d="M1359.1,5007.1c0.1-0.1,0.2-0.1,0.3-0.1c0.1,0,0.3,0.1,0.4,0.3c-0.2,0.2-0.4,0.5-0.6,0.7
			c-0.2,0.2-0.5,0.4-0.8,0.6c-0.3,0.2-0.7,0.3-1.1,0.4s-0.9,0.2-1.4,0.2c-0.5,0-1-0.1-1.5-0.3c-0.5-0.2-0.9-0.4-1.3-0.8
			c-0.4-0.4-0.7-0.8-0.9-1.3c-0.2-0.5-0.3-1.2-0.3-1.9c0-0.7,0.1-1.3,0.4-1.9c0.3-0.6,0.6-1.1,1-1.5c0.4-0.4,0.9-0.7,1.4-1
			s1-0.3,1.5-0.3c1.2,0,2.1,0.4,2.7,1.1c0.6,0.7,0.8,1.7,0.8,2.8c0,0.1,0,0.1-0.1,0.1l-5.8,0.3c0,0.5,0.1,1,0.2,1.4
			c0.1,0.4,0.4,0.8,0.6,1.1c0.3,0.3,0.6,0.6,1,0.8c0.4,0.2,0.8,0.3,1.3,0.3c0.4,0,0.8-0.1,1.2-0.3
			C1358.5,5007.7,1358.8,5007.4,1359.1,5007.1z M1355.8,5001c-0.7,0-1.2,0.3-1.6,0.8c-0.4,0.5-0.6,1.2-0.6,2l3.8-0.2
			c0.2,0,0.3-0.1,0.3-0.3c0-0.3,0-0.5-0.1-0.8s-0.2-0.5-0.4-0.8c-0.2-0.2-0.4-0.4-0.6-0.6C1356.4,5001.1,1356.2,5001,1355.8,5001z"
			/>
		<path class="st1" d="M1362.7,5001.7c-0.1-0.2-0.3-0.3-0.5-0.4s-0.4-0.2-0.7-0.2c-0.2,0-0.3-0.1-0.3-0.3c0,0,0-0.1,0-0.1
			c0-0.1,0-0.1,0-0.2c0.3,0,0.7,0,1,0c0.3,0,0.7,0,1.1,0c0.8,0,1.6,0,2.2-0.1c0,0,0,0.1,0,0.1c0,0,0,0.1,0,0.1
			c0,0.2-0.1,0.3-0.3,0.3c-0.3,0-0.6,0.1-0.7,0.1s-0.2,0.1-0.2,0.2c0,0.2,0.1,0.4,0.3,0.6l1.5,1.9l1.4-2c0.1-0.2,0.2-0.4,0.2-0.5
			c0-0.1,0-0.1-0.1-0.2c-0.1,0-0.3-0.1-0.6-0.1c-0.2,0-0.3-0.1-0.3-0.3c0,0,0-0.1,0-0.1c0,0,0-0.1,0.1-0.1c0.5,0,1.1,0.1,1.7,0.1
			c0.5,0,1,0,1.5-0.1c0,0.1,0.1,0.2,0.1,0.3c0,0.2-0.1,0.3-0.3,0.3c-0.3,0-0.6,0.1-0.8,0.2c-0.2,0.1-0.4,0.3-0.6,0.5l-1.9,2.7
			l2.4,3.1c0.3,0.3,0.5,0.6,0.7,0.7c0.2,0.1,0.5,0.2,0.7,0.3c0.1,0,0.2,0.1,0.2,0.3c0,0.1,0,0.2,0,0.3c-0.4,0-0.8,0-1.2-0.1
			c-0.4,0-0.8,0-1.1,0c-0.3,0-0.7,0-1.1,0c-0.4,0-0.8,0-1.2,0.1c0-0.1,0-0.2,0-0.3c0-0.2,0.1-0.2,0.2-0.3c0.3-0.1,0.5-0.1,0.7-0.2
			c0.2-0.1,0.2-0.2,0.2-0.3c0-0.1,0-0.1-0.1-0.2c-0.1-0.1-0.1-0.2-0.2-0.3l-1.6-2.2l-1.4,2c-0.1,0.1-0.1,0.2-0.2,0.3
			c0,0.1-0.1,0.2-0.1,0.2c0,0.2,0.1,0.3,0.3,0.3c0.2,0.1,0.4,0.1,0.8,0.2c0.1,0,0.2,0.1,0.2,0.3c0,0.1,0,0.2,0,0.3
			c-0.3,0-0.7,0-1-0.1c-0.3,0-0.6,0-1,0c-0.3,0-0.6,0-1,0c-0.3,0-0.7,0-1,0.1c0-0.1,0-0.2,0-0.3c0-0.1,0.1-0.2,0.2-0.3
			c0.3-0.1,0.6-0.2,0.9-0.3c0.3-0.1,0.6-0.3,0.8-0.6l2-2.8L1362.7,5001.7z"/>
		<path class="st1" d="M1377.3,5007.8c0.1-0.1,0.1-0.1,0.2-0.1s0.1,0,0.1,0c0.1,0,0.2,0.1,0.3,0.3c-0.3,0.4-0.7,0.7-1.1,0.9
			s-0.8,0.4-1.3,0.4c-0.3,0-0.5,0-0.8-0.1c-0.2-0.1-0.4-0.2-0.6-0.4c-0.2-0.2-0.3-0.4-0.4-0.7c-0.1-0.3-0.1-0.7-0.1-1.2v-5.5h-1.2
			v-0.2c0-0.1,0-0.2,0-0.3s0.1-0.1,0.2-0.1c0.4,0,0.7-0.1,0.9-0.3c0.2-0.2,0.4-0.4,0.6-0.7c0.2-0.3,0.3-0.6,0.4-0.9
			c0.1-0.3,0.3-0.4,0.4-0.4h0.4v2.1h2.3c0,0.3,0,0.5-0.1,0.6c-0.1,0.1-0.2,0.2-0.3,0.2h-1.9v5c0,0.4,0,0.8,0.1,1
			c0,0.3,0.1,0.5,0.2,0.6c0.1,0.1,0.2,0.2,0.3,0.3c0.1,0,0.2,0.1,0.4,0.1c0.2,0,0.4-0.1,0.6-0.2
			C1376.9,5008.1,1377.1,5008,1377.3,5007.8z"/>
	</g>
</g>
</svg>
