<svg xmlns="http://www.w3.org/2000/svg" width="107.369" height="18.719" viewBox="0 0 107.369 18.719">
  <path id="パス_22222" data-name="パス 22222" d="M1.828-17.273H5.438V-3.105h8.555V0H1.828ZM22.193,0H18.607V-17.273h3.586Zm5.7-17.273h3.785L38.562-5.215V-17.273h3.363V0H38.316L31.261-12.27V0H27.9Zm32.564,3.059H51.321v3.668h8.391v3H51.321v4.441h9.563V0H47.794V-17.273H60.462Zm14.7-3.059h3.668V-6.656a6,6,0,0,0,.422,2.6Q79.91-2.6,82.113-2.6t2.848-1.453a6,6,0,0,0,.422-2.6V-17.273h3.668V-6.656A8.893,8.893,0,0,1,88.2-2.367Q86.6.445,82.113.445T76.02-2.367a8.893,8.893,0,0,1-.855-4.289Zm29.459,5.5a2.338,2.338,0,0,0-.709-1.922,3.077,3.077,0,0,0-1.986-.574H98.564v5.086h3.363a2.916,2.916,0,0,0,1.986-.621A2.487,2.487,0,0,0,104.623-11.777ZM108.2-11.8q0,3.059-1.547,4.324a6.812,6.812,0,0,1-4.418,1.266H98.564V0H94.978V-17.273H102.5a6.128,6.128,0,0,1,4.148,1.336A5.176,5.176,0,0,1,108.2-11.8Z" transform="translate(-1.328 17.773)" fill="none" stroke="#666" stroke-width="1"/>
</svg>
