<svg xmlns="http://www.w3.org/2000/svg" width="374.328" height="33.228" viewBox="0 0 374.328 33.228">
  <path id="パス_22222" data-name="パス 22222" d="M18.468-23.76a1.185,1.185,0,0,1,.36-.072q.36,0,.5.468L25.416-5.9,30.528-20.52a3.328,3.328,0,0,0,.108-.4,1.669,1.669,0,0,0,.036-.324A.807.807,0,0,0,30.15-22a5.775,5.775,0,0,0-1.674-.4q-.4-.036-.4-.612a2.367,2.367,0,0,1,.072-.576q.936.072,1.962.126t1.818.054q.864,0,1.854-.054t1.566-.126a1.549,1.549,0,0,0,.036.288,1.549,1.549,0,0,1,.036.288q0,.576-.432.648a5.627,5.627,0,0,0-1.638.414,1.622,1.622,0,0,0-.81.954L24.948.36a1.261,1.261,0,0,1-.4.072q-.432,0-.648-.648L17.892-17.172,11.772.36a.8.8,0,0,1-.36.072q-.432,0-.648-.648L3.024-21.168a1.331,1.331,0,0,0-.666-.756,6.2,6.2,0,0,0-1.782-.432q-.4-.108-.4-.684a3.032,3.032,0,0,1,.072-.54q.5.036,1.1.072t1.188.054l1.152.036q.558.018.99.018.9,0,2.178-.054t2.394-.126A3.1,3.1,0,0,1,9.324-23q0,.54-.4.612a5.19,5.19,0,0,0-1.62.378.865.865,0,0,0-.576.81.959.959,0,0,0,.108.432L12.276-5.9ZM55.332-.108a21.479,21.479,0,0,0,7.02-2.232c4.536-2.412,7.164-6.408,7.164-10.908a10.991,10.991,0,0,0-3.456-8.46,13.678,13.678,0,0,0-9.288-3.312,17.456,17.456,0,0,0-12.384,5.04,11.251,11.251,0,0,0-3.24,7.128,6.914,6.914,0,0,0,.828,3.276A22.409,22.409,0,0,1,43.56-6.192a7.067,7.067,0,0,0,1.008,2.3,2.089,2.089,0,0,0,1.584.756c1.332,0,3.1-1.764,5.364-5.364,2.736-4.392,4.752-9.648,4.752-12.456a4.7,4.7,0,0,0-1.116-2.988,8.287,8.287,0,0,1,1.26-.072,11.884,11.884,0,0,1,6.228,1.656A8.93,8.93,0,0,1,66.708-14.4a12.805,12.805,0,0,1-3.2,8.676c-2.052,2.376-4.536,3.852-8.424,5ZM54.4-23.8a4.018,4.018,0,0,1,.5,1.8c0,2.232-1.908,6.876-4.572,11.124C48.564-8.064,46.836-6.12,46.044-6.12c-.4,0-.864-.4-1.368-1.044a8.423,8.423,0,0,1-1.44-4.752C43.236-17.46,48.132-22.68,54.4-23.8Zm51.768,3.24c-.324,9.216-.756,13.9-1.62,18.288-.216.972-.432,1.188-1.188,1.188-.5,0-3.816-.216-6.192-.4v.54l1.512.324a10.53,10.53,0,0,1,2.052.54c.792.36,1.08.828,1.224,1.908a6.731,6.731,0,0,0,3.1-.792,3.452,3.452,0,0,0,1.728-2.7c.828-3.276,1.3-8.136,1.8-18.252,1.152-.756,1.3-.864,1.3-1.044a.525.525,0,0,0-.18-.288c-1.044-.828-1.368-1.08-2.448-1.836a10.418,10.418,0,0,0-1.368,1.692H101.7c.216-3.456.252-4.176.324-6.948,1.224-.54,1.512-.72,1.512-.972,0-.108-.108-.18-.324-.252-.5-.144-2.124-.4-3.78-.612.072,1.224.108,1.836.108,2.484,0,1.872-.072,4.752-.144,6.3h-1.62a16.045,16.045,0,0,1-3.384-.324l.288,1.368a21.255,21.255,0,0,1,3.1-.216H99.36a49.162,49.162,0,0,1-.9,7.416A25.875,25.875,0,0,1,93.24-1.908,17.351,17.351,0,0,1,88.2,2.3l.252.576A19.416,19.416,0,0,0,92.7.36a21.235,21.235,0,0,0,6.8-9.108c1.224-3.024,1.908-6.66,2.16-11.808Zm-24.84,6.948A35.778,35.778,0,0,1,85.788-9.72,37.589,37.589,0,0,1,76.284,1.3l.288.468A21.361,21.361,0,0,0,82.692-2.7a35.576,35.576,0,0,0,4.536-5.472,27.394,27.394,0,0,1,2.664,3.456c.684,1.116.936,1.4,1.26,1.4.54,0,.828-.792.828-2.088,0-1.332-.288-1.656-3.744-4.428.9-1.548,1.44-2.592,2.376-4.536,1.332-.324,1.44-.36,1.44-.612s-.9-.72-3.276-1.62a28.015,28.015,0,0,1-2.2,5.472,26.066,26.066,0,0,0-5-2.916Zm6.264-10.8v-4.1c1.116-.324,1.476-.5,1.476-.756,0-.36-.5-.432-4.1-.828a14.7,14.7,0,0,1,.216,2.448v3.24H81.144a25.873,25.873,0,0,1-4.1-.324l.216,1.4a24.864,24.864,0,0,1,3.888-.252H96.588c.144,0,.288-.108.288-.216a.457.457,0,0,0-.144-.252,33.6,33.6,0,0,0-2.916-2.664,21.03,21.03,0,0,0-1.692,2.3ZM76.572-11.484c3.1-2.3,3.672-2.952,7.7-8.568,1.332-.18,1.692-.288,1.692-.612,0-.252-.36-.432-3.744-1.512a16.907,16.907,0,0,1-1.332,3.42,29.855,29.855,0,0,1-4.608,6.876Zm11.3-10.224a26.57,26.57,0,0,1,5.832,6.12c.612,1.044.684,1.116.9,1.116s.4-.18.5-.5a7.715,7.715,0,0,0,.252-1.8c0-.828-.216-1.152-1.332-1.98a33.165,33.165,0,0,0-5.9-3.348Zm44.388,5.58h7.488v1.584c.036.324.144.468.5.468a12.337,12.337,0,0,0,1.8-.216.363.363,0,0,0,.252-.4v-.072c-.144-6.228-.144-7.416-.144-9.468V-26.5c1.08-.5,1.4-.756,1.4-1.044,0-.144-.108-.324-.432-.576a22.1,22.1,0,0,0-2.124-1.62c-.648.72-.864.936-1.476,1.62h-16.92a15.125,15.125,0,0,0-2.772-1.908,25.356,25.356,0,0,1,.108,2.88c0,6.12-.036,9.972-.108,12.924v.108c0,.288.108.4.4.4a12.573,12.573,0,0,0,1.836-.252c.216-.072.288-.144.324-.432v-1.728h7.524v4.644H119.2a29.516,29.516,0,0,1-4.32-.4l.324,1.4a28.784,28.784,0,0,1,3.816-.18h9.18a29.3,29.3,0,0,1-4.536,5.04A33.18,33.18,0,0,1,114.192.828l.288.54a35.441,35.441,0,0,0,8.028-3.924,33.566,33.566,0,0,0,7.416-6.48v3.888c0,.4-.036,1.728-.108,3.96-.036,1.332-.036,1.908-.072,3.6,0,.252.216.4.612.4a10.146,10.146,0,0,0,1.548-.18c.4-.108.5-.216.5-.612-.144-4.248-.144-4.392-.144-7.992v-4.1a34.231,34.231,0,0,0,5.94,6.624,25.505,25.505,0,0,0,7.668,4.572A3.267,3.267,0,0,1,146.7-.54a2.251,2.251,0,0,1,1.4-.828V-1.8a24.22,24.22,0,0,1-9.972-4.032,23.213,23.213,0,0,1-5.328-4.824H147.42c.144,0,.324-.144.324-.252a.43.43,0,0,0-.144-.288c-1.728-1.476-1.728-1.476-3.24-2.808l-2.088,2.52H132.264Zm0-.828V-21.78h7.488v4.824Zm-2.34,0H122.4V-21.78h7.524Zm2.34-5.652v-4.68h7.488v4.68Zm-2.34,0H122.4v-4.68h7.524Zm24.228-.72a1.562,1.562,0,0,0-.4.972,5.141,5.141,0,0,0,.936,2.412,3.973,3.973,0,0,0,2.772,2.124,2.372,2.372,0,0,0,1.44-.5c3.384-1.836,11.628-4.284,16.092-4.824a18.659,18.659,0,0,0-5.868,4.14,13.339,13.339,0,0,0-3.924,8.784A9.561,9.561,0,0,0,169.38-2.16,14.868,14.868,0,0,0,176.724.432c.756,0,1.3-.432,1.3-1.008A2.948,2.948,0,0,0,176.94-2.3a1.793,1.793,0,0,0-1.512-.576,10.879,10.879,0,0,1-3.636-.864A7.305,7.305,0,0,1,167-10.764c0-6.156,5.94-12.024,12.1-12.024a4.924,4.924,0,0,1,1.008.072,5.1,5.1,0,0,0,.684.036c.684,0,1.116-.36,1.116-.9,0-.468-.324-.936-1.044-1.368a4.808,4.808,0,0,0-1.944-.756,4.535,4.535,0,0,0-1.26.288,39.431,39.431,0,0,1-4.86,1.188c-2.484.468-4.536.936-5.832,1.26-8.1,1.944-9,2.124-10.008,2.124a2.04,2.04,0,0,1-1.62-.612A3.919,3.919,0,0,1,154.152-23.328Zm22.1,5.58a17.269,17.269,0,0,1,2.772,3.816c1.116,2.34,1.116,2.34,1.584,2.34.612,0,1.116-.648,1.116-1.512s-.5-1.692-1.8-2.88a18.36,18.36,0,0,0-3.2-2.232Zm3.78-2.052A17.183,17.183,0,0,1,184-14.688c.288.5.5.684.828.684.54,0,.9-.612.9-1.476,0-.972-.468-1.728-1.836-2.772a17.508,17.508,0,0,0-3.456-2.052Zm32.184,2.52h5.544c.18,0,.324-.108.324-.216a1.026,1.026,0,0,0-.144-.288c-1.152-.972-1.512-1.26-2.664-2.3-.756.828-1.008,1.08-1.8,1.98h-6.3a18.449,18.449,0,0,1-3.528-.18l.252,1.152a18.094,18.094,0,0,1,3.276-.144h2.664v5.148h-5.256a10.573,10.573,0,0,1-3.06-.252l.252,1.224a18.2,18.2,0,0,1,3.06-.144h5V-1.188c0,.432-.108.54-.54.576h-.9a43.566,43.566,0,0,1-5.04-.324v.612c4.032.576,4.68.936,4.9,2.628a6.194,6.194,0,0,0,2.88-.864,2.006,2.006,0,0,0,1.116-2.052c-.036-1.98-.036-2.628-.036-4.572V-11.3h9.5a.291.291,0,0,0,.324-.252.658.658,0,0,0-.216-.36c-.9-.756-1.908-1.548-2.916-2.412-.9.936-1.188,1.224-2.016,2.2h-4.68ZM194.292-6.912c1.8.288,2.16.576,2.484,2.16a3.953,3.953,0,0,0,2.736-1.3A5.474,5.474,0,0,0,200.628-9.9a8.376,8.376,0,0,0-1.26-4.644,13.342,13.342,0,0,0-2.592-3.276,53.442,53.442,0,0,0,4.392-8.352c1.368-.4,1.548-.5,1.548-.792,0-.144-.108-.324-.36-.576-.9-.756-1.188-1.008-2.124-1.764a20.374,20.374,0,0,0-1.548,1.512h-4.1a19.632,19.632,0,0,0-2.772-1.872c.18,2.484.216,4.716.216,11.016,0,7.092,0,8.82-.072,20.736V2.2c0,.36.288.5.972.5a6.04,6.04,0,0,0,1.044-.108c.324-.072.4-.18.4-.5-.072-2.412-.072-2.412-.072-7.452Zm0-20.052h4.428a53.856,53.856,0,0,1-2.844,9.4,8.366,8.366,0,0,1,1.944,2.916,13.073,13.073,0,0,1,.72,4.212,4.881,4.881,0,0,1-.648,2.7c-.216.288-.468.36-1.116.36-.468,0-1.62-.072-2.484-.144Zm20.16,18.108a14.831,14.831,0,0,1,2.016,2.448,37.009,37.009,0,0,1,2.7,4.68A10.939,10.939,0,0,0,220.032.18c.144.324.252.432.432.432.612,0,1.224-1.4,1.224-2.772,0-1.8-1.44-3.24-6.912-7.056Zm-14.76-7.416a30.653,30.653,0,0,0,6.192-4.608,32.082,32.082,0,0,0,5.616-6.7,23.408,23.408,0,0,0,4.14,6.228,22.738,22.738,0,0,0,5.9,4.608,3.362,3.362,0,0,1,2.484-1.98v-.54a17.156,17.156,0,0,1-6.912-3.132,18.354,18.354,0,0,1-5.22-5.688c1.188-.108,1.512-.216,1.512-.54,0-.36-.5-.54-3.708-1.332a25.318,25.318,0,0,1-3.744,6.408,32.308,32.308,0,0,1-6.624,6.8ZM198.324,1.4a21.14,21.14,0,0,0,4.5-4.284,30.009,30.009,0,0,0,3.1-4.356c1.3-.144,1.584-.288,1.584-.576,0-.4-.18-.468-3.6-1.368a30.759,30.759,0,0,1-1.692,4.068,19.676,19.676,0,0,1-4.32,6.12Zm42.624-27.828V-28.44c1.188-.324,1.512-.5,1.512-.792,0-.36-.036-.4-3.852-.9a18.041,18.041,0,0,1,.108,2.484v1.224h-6.84a11.012,11.012,0,0,1-3.132-.36l.252,1.44a16.357,16.357,0,0,1,2.7-.252h7.02c0,1.044-.036,1.584-.108,3.24.036.252.144.288.468.288,1.62,0,1.872-.072,1.908-.468-.036-1.044-.036-1.044-.036-3.06h7.02c0,1.368-.036,1.764-.072,3.312.036.216.144.288.4.288h.072c.072,0,.324-.036.684-.036.972-.072,1.224-.144,1.224-.5-.036-1.908-.036-1.908-.036-3.06h10.836c.144,0,.288-.072.288-.18a.709.709,0,0,0-.144-.288c-1.44-1.224-1.872-1.584-3.348-2.736-.72.684-1.512,1.512-2.412,2.376h-5.22c-.036-.612-.036-1.3-.036-2.016,1.188-.324,1.512-.5,1.512-.792,0-.4-.4-.468-3.852-.864a31.688,31.688,0,0,1,.108,3.672Zm4.284,10.548c2.34-.324,3.276-.5,5.4-.972a7.662,7.662,0,0,0,1.512.324c.216,0,.432-.144.432-.288,0-.288-.216-.468-2.916-2.16a5.11,5.11,0,0,1-1.188.576c-.9.324-3.024.972-4.248,1.3a71.058,71.058,0,0,1-8.676,1.368l.072.54c.612.036,1.152.036,1.44.036a41.492,41.492,0,0,0,6.048-.432V-12.1h-6.12a11.909,11.909,0,0,1-2.592-.288l.252,1.3a11.028,11.028,0,0,1,2.34-.18h5.076a25.7,25.7,0,0,1-1.8,2.3,28.25,28.25,0,0,1-6.408,5.652l.324.4a23.313,23.313,0,0,0,4.644-2.664,20.433,20.433,0,0,0,4.284-3.78v1.98c0,1.368-.072,3.312-.18,5.76,0,.252.144.36.432.36h.108a2.4,2.4,0,0,1,.576-.036c1.008-.036,1.26-.144,1.3-.612-.108-4.464-.108-4.464-.108-7.524,1.872,1.3,2.736,1.908,3.744,2.7a32.2,32.2,0,0,1,3.636,3.42c.288.324.54.5.756.5.288,0,.576-.684.576-1.44,0-2.232-1.044-2.916-8.712-5.724v-1.3h9.036a.594.594,0,0,0,.36-.36.457.457,0,0,0-.036-.216l-2.556-2.2c-.756.828-1.008,1.08-1.728,1.944h-5.076ZM233.64-20.7c-1.152-.792-1.512-1.044-2.7-1.836.108,1.728.144,4.752.144,10.08,0,10.44,0,12.276-.144,14.652V2.3c0,.216.144.324.468.324,1.728,0,2.016-.072,2.052-.432V.684h22.032V2.376c0,.252.108.324.432.324h.648c1.188,0,1.4-.072,1.44-.5-.18-4.284-.216-8.424-.216-21.2,1.008-.5,1.44-.828,1.44-1.116,0-.108-.072-.216-.288-.4-.936-.756-1.224-.972-2.16-1.656-.684.612-.9.792-1.584,1.476Zm21.852.828V-.144H233.46V-19.872Zm26.676,2.916a3.3,3.3,0,0,0-3.312,3.276,3.3,3.3,0,0,0,3.312,3.312,3.3,3.3,0,0,0,3.276-3.312A3.288,3.288,0,0,0,282.168-16.956Zm43.164-2.052V-28.44c1.4-.468,1.584-.54,1.584-.828,0-.4-.108-.4-4.032-.864v11.124H318.24a16.574,16.574,0,0,0-2.664-1.656c.108,3.168.108,3.96.108,5.292,0,5.328-.144,12.924-.288,17.244,0,.4.18.576.684.576,1.44,0,1.836-.108,1.872-.576v-9.18h12.924v6.3c0,.432-.072.5-.4.5a52.03,52.03,0,0,1-6.156-.324l-.072.54c4.284.792,4.5.9,4.788,2.664,2.268-.54,2.952-.756,3.492-1.188.576-.468.756-.972.756-2.16,0-1.476,0-1.764-.036-3.24V-17.5c.936-.5,1.3-.792,1.3-1.116q0-.216-.432-.54c-.72-.468-1.476-.972-2.3-1.512a12.737,12.737,0,0,0-1.332,1.656Zm-7.38,5.22V-18.18h12.924v4.392Zm12.924.828v4.824H317.952V-12.96ZM306.54-29.412a22.958,22.958,0,0,1,4.176,5.22c.288.5.5.684.792.684.54,0,1.224-1.188,1.224-2.088a2.005,2.005,0,0,0-.972-1.656,22.161,22.161,0,0,0-5-2.556Zm-2.3,8.1a21.969,21.969,0,0,1,3.672,4.284c.828,1.368,1.008,1.584,1.368,1.584.468,0,1.08-1.152,1.08-2.088a1.863,1.863,0,0,0-.9-1.692,18.573,18.573,0,0,0-5.04-2.484Zm10.692-6.8a15.864,15.864,0,0,1,3.132,5.94c.468,1.332.648,1.656.972,1.656.576,0,1.3-1.4,1.3-2.556,0-1.368-1.44-2.88-4.968-5.328Zm12.492,8.208a42.457,42.457,0,0,0,5.652-6.372c1.368-.108,1.836-.288,1.836-.648s-.144-.432-4-1.692a20.666,20.666,0,0,1-1.188,3.168,31.174,31.174,0,0,1-2.772,5.22Zm-23,11.772c.288.108.684.288,1.224.5a3.5,3.5,0,0,1,1.116.54c.5.468.684,1.152.684,2.484a25.821,25.821,0,0,1-.324,4.068,10.166,10.166,0,0,0-.18,1.368c0,.648.324,1.008.864,1.008a2.711,2.711,0,0,0,2.484-2.7,13.044,13.044,0,0,0-.432-2.556,8.85,8.85,0,0,1-.54-2.628,6.72,6.72,0,0,1,.54-2.3L314.64-21.1l-.576-.288c-.576,1.224-.576,1.224-1.692,3.672-1.836,3.96-1.836,3.96-3.528,7.092-.36.684-.648,1.224-.792,1.584-.36.684-.612.972-1.008.972a2.907,2.907,0,0,1-.684-.108c-.144-.036-.432-.108-.9-.216-.18-.072-.468-.108-.864-.216Zm70.092,7.6A26.583,26.583,0,0,1,363.06-2.988a12.137,12.137,0,0,1-4.608-4.032h15.48c.216,0,.36-.072.36-.216a.5.5,0,0,0-.144-.324c-1.476-1.332-1.908-1.728-3.384-2.952-.972,1.116-1.224,1.476-2.124,2.664H358.056c.18-.576.252-.9.468-1.764,1.26-.252,1.512-.36,1.512-.612,0-.324-.54-.468-3.96-1.044a20.682,20.682,0,0,1-.54,3.42h-9.828a21,21,0,0,1-4.032-.36l.216,1.4a29.171,29.171,0,0,1,3.816-.216h9.576a10.862,10.862,0,0,1-4.32,5.544c-2.628,1.98-4.356,2.664-9.5,3.708l.18.612c5.22-.612,8.244-1.548,11.2-3.384A11.073,11.073,0,0,0,357.8-6.984a11.954,11.954,0,0,0,3.384,4.536c2.7,2.484,5.472,3.744,10.692,4.9.612-1.62,1.152-2.124,2.628-2.412ZM355.14-26.028a14.8,14.8,0,0,0,1.764-1.62c.216-.18.5-.468.864-.828,1.188-.072,1.692-.252,1.692-.612q0-.216-.324-.324a31.567,31.567,0,0,0-3.528-.936,32.809,32.809,0,0,1-1.3,4.32h-4.1c-1.116-.828-1.476-1.08-2.7-1.872.108,2.232.144,3.924.144,8.6,0,3.456-.036,5.148-.144,8.5,0,.36.144.468.5.468a9.06,9.06,0,0,0,1.656-.144.438.438,0,0,0,.324-.468v-.9h15.7v.756c.036.324.144.4.5.4a8.014,8.014,0,0,0,1.62-.144c.252-.072.324-.18.324-.468-.108-2.88-.144-5.832-.144-9.324v-3.96c1.08-.648,1.332-.828,1.332-1.044,0-.144-.144-.288-.468-.54-.9-.648-1.188-.864-2.124-1.476-.576.684-.756.9-1.332,1.62Zm-5.148,4.32V-25.2h15.7v3.492Zm15.7.828v3.42h-15.7v-3.42Zm0,4.248v3.96h-15.7v-3.96Z" transform="translate(-0.18 30.348)" fill="#fff"/>
</svg>
