<svg xmlns="http://www.w3.org/2000/svg" width="327.132" height="153.192" viewBox="0 0 327.132 153.192">
  <path id="パス_22222" data-name="パス 22222" d="M17.6-24.66a32.25,32.25,0,0,0,1.512-3.528c1.44-.144,1.908-.324,1.908-.612s-.4-.468-2.2-.936c-.468-.144-1.188-.324-2.088-.612A44.087,44.087,0,0,1,12.96-19.4a29.163,29.163,0,0,1-2.736,4.824l.4.324c2.808-2.88,3.924-4.464,6.552-9.576H29.736a104.706,104.706,0,0,1-.684,11.124c-.324,2.556-.576,3.636-.936,4.248-.216.36-.432.432-1.332.432-.792,0-1.62-.036-5.544-.288l-.036.468a18.875,18.875,0,0,1,3.276.792c.828.324,1.08.684,1.3,1.872,4.068-.576,4.716-1.3,5.472-5.94A94.8,94.8,0,0,0,32.22-23.04c1.3-.756,1.332-.792,1.332-1.044,0-.144-.108-.288-.4-.576-.972-.756-1.26-1.008-2.3-1.728-.576.684-.756.936-1.368,1.728ZM3.924-29.3a21.152,21.152,0,0,1,4.14,5.076c.36.684.612.9.9.9.54,0,1.116-1.152,1.116-2.268,0-.756-.36-1.26-1.368-1.908a19.939,19.939,0,0,0-4.464-2.088ZM1.3-21.42a17.717,17.717,0,0,1,4.1,4.9c.288.468.54.684.828.684.54,0,1.008-.9,1.008-1.908a2.19,2.19,0,0,0-1.044-1.98A15.415,15.415,0,0,0,1.62-21.78ZM2.232-7.776C4.356-7.38,4.86-6.7,4.86-4.248a23.55,23.55,0,0,1-.4,4.032,6.154,6.154,0,0,0-.216,1.332.85.85,0,0,0,.792.9A2.771,2.771,0,0,0,7.524-.9a14.981,14.981,0,0,0-.612-3.636,6.4,6.4,0,0,1-.288-1.476,4.584,4.584,0,0,1,.4-1.62L11.772-22.5l-.468-.252C7.7-14.616,5.8-10.332,5.616-9.936c-.792,1.764-.9,1.872-1.368,1.872-.216,0-1.044-.108-1.98-.252ZM17.424-19.332a13.682,13.682,0,0,1-2.412-.252l.288,1.332a7.013,7.013,0,0,1,2.124-.252H22.5v5.76H16.776a26.758,26.758,0,0,0-3.024-1.548c.072,3.564.072,3.636.072,4.464v8.82c.036,1.44.36,1.944,1.368,2.268,1.044.324,1.944.36,10.764.36,6.768,0,8.748-.36,8.748-1.584,0-.432-.324-.684-1.044-.864-.54-.108-.684-.288-.684-.648a1.938,1.938,0,0,1,.036-.4l.468-6.444-.468-.036c-1.62,5.4-2.124,6.948-2.412,7.308-.4.5-1.152.576-5.328.576-6.012,0-7.344-.036-8.208-.108-.72-.108-.936-.324-.936-.972V-11.916H22.5v1.188c0,.252.108.36.4.36a5.059,5.059,0,0,0,1.872-.252c.108-.072.144-.18.144-.4C24.84-13.032,24.8-14,24.8-15.552V-18c.72-.432.936-.648.936-.864,0-.144-.072-.252-.288-.468-.828-.648-1.08-.828-1.944-1.44-.5.612-.684.792-1.188,1.44ZM55.764-.108a21.479,21.479,0,0,0,7.02-2.232c4.536-2.412,7.164-6.408,7.164-10.908a10.991,10.991,0,0,0-3.456-8.46A13.678,13.678,0,0,0,57.2-25.02,17.456,17.456,0,0,0,44.82-19.98a11.251,11.251,0,0,0-3.24,7.128,6.914,6.914,0,0,0,.828,3.276,22.409,22.409,0,0,1,1.584,3.384A7.067,7.067,0,0,0,45-3.888a2.089,2.089,0,0,0,1.584.756c1.332,0,3.1-1.764,5.364-5.364,2.736-4.392,4.752-9.648,4.752-12.456a4.7,4.7,0,0,0-1.116-2.988,8.287,8.287,0,0,1,1.26-.072,11.884,11.884,0,0,1,6.228,1.656A8.93,8.93,0,0,1,67.14-14.4a12.805,12.805,0,0,1-3.2,8.676c-2.052,2.376-4.536,3.852-8.424,5ZM54.828-23.8a4.018,4.018,0,0,1,.5,1.8c0,2.232-1.908,6.876-4.572,11.124C49-8.064,47.268-6.12,46.476-6.12c-.4,0-.864-.4-1.368-1.044a8.423,8.423,0,0,1-1.44-4.752C43.668-17.46,48.564-22.68,54.828-23.8Zm25.2,1.512c1.476,2.412,3.06,3.276,5.976,3.276a13.422,13.422,0,0,0,1.512-.108C86.688-15.408,85.5-9.072,85.5-8.46c0,1.224,1.188,2.808,2.124,2.808a.938.938,0,0,0,.792-.468,7.341,7.341,0,0,1,2.088-2.2,13.842,13.842,0,0,1,7.992-3.1c2.52,0,3.96,1.26,3.96,3.456,0,3.312-2.772,5.94-7.884,7.488A36.205,36.205,0,0,1,88.956.684l.036.5A27.142,27.142,0,0,0,99.5-.5c3.708-1.512,5.76-3.924,5.76-6.8,0-3.132-2.7-5.22-6.768-5.22-2.988,0-6.912,1.188-10.836,3.276a46.7,46.7,0,0,1,1.548-9.9,31.739,31.739,0,0,0,8.064-1.836c1.44-.54,2.016-1.008,2.016-1.584,0-.36-.252-.612-.792-.828a6.078,6.078,0,0,0-1.692-.324.773.773,0,0,0-.684.324,14.356,14.356,0,0,1-6.372,2.376,19.786,19.786,0,0,1,2.2-4.788c.468-.612.54-.756.54-1.08,0-.468-.4-.936-1.08-1.26a8.333,8.333,0,0,0-3.384-.792,2.375,2.375,0,0,0-1.8.684c1.872.144,2.7.72,2.7,1.872a25.067,25.067,0,0,1-.468,2.988c-.432,2.052-.432,2.052-.54,2.592a15.976,15.976,0,0,1-2.556.216,5.447,5.447,0,0,1-4.824-1.98Zm43.632,6.948c-1.512,3.312-1.512,3.312-2.88,5.976a24.163,24.163,0,0,1-2.664,4.248,2.365,2.365,0,0,0-.828,2.016c0,1.548.4,2.484,1.044,2.484.324,0,.612-.216.864-.684.576-1.008,1.764-3.6,3.2-6.984,1.26-2.988,1.98-4.68,2.124-5.04,1.584-3.672,1.584-3.672,2.088-4.9a11.653,11.653,0,0,1,3.78-.756c1.908,0,2.556.864,2.556,3.276a27.847,27.847,0,0,1-2.124,9.684c-.936,2.268-1.512,3.024-2.34,3.024-.756,0-2.808-.9-5.58-2.484L122.58-5c3.816,3.132,3.888,3.2,4,4.212a.837.837,0,0,0,.972.828A5.1,5.1,0,0,0,131-1.584c2.088-2.34,3.924-8.316,3.924-12.924,0-3.78-1.476-5.616-4.572-5.616a12.532,12.532,0,0,0-3.132.432,34.855,34.855,0,0,1,2.3-4.9c.432-.612.5-.756.5-1.044,0-.756-.9-1.4-2.52-1.872a9.864,9.864,0,0,0-2.412-.468,1.627,1.627,0,0,0-1.08.36c2.088.684,2.772,1.3,2.772,2.412a20.294,20.294,0,0,1-1.476,5.9,37.224,37.224,0,0,1-6.12,1.26c-1.332,0-1.98-.468-2.736-1.98a2.38,2.38,0,0,0-.216.792,5.71,5.71,0,0,0,1.188,2.736,2.66,2.66,0,0,0,1.584,1.08,1.883,1.883,0,0,0,1.044-.4,27.871,27.871,0,0,1,4.68-1.872Zm14.832-4.14a10.447,10.447,0,0,1,4.932,4.788,9.247,9.247,0,0,1,1.116,3.456A54.8,54.8,0,0,1,139.032-9.4l.144.5a31.838,31.838,0,0,1,4.5-.324,2.324,2.324,0,0,1,1.476.36,1.363,1.363,0,0,0,.828.252c.9,0,1.44-.72,1.44-1.944a8.486,8.486,0,0,0-2.052-5.112,12.512,12.512,0,0,0-6.588-4.32Zm25.812-9.36a7.489,7.489,0,0,0,1.836,2.88,11.368,11.368,0,0,0,3.276,2.052,32,32,0,0,1-4.248,1.368c-2.16.648-3.2,1.116-3.708,1.656-.468.468-.576.792-.576,2.052a40.178,40.178,0,0,1-.684,4.752c-.18,1.26-.36,2.268-.432,2.988a14.9,14.9,0,0,1-.4,2.16c-.036.252-.108.54-.108.576a4.171,4.171,0,0,0,.756,1.836c.576.828,1.044,1.188,1.584,1.188.4,0,.648-.18,1.008-.72a8.234,8.234,0,0,1,1.98-2.268c2.808-2.448,6.048-3.924,8.6-3.924,2.628,0,4.356,1.548,4.356,3.924,0,2.268-1.116,4.068-3.6,5.832-2.376,1.62-4.86,2.52-9.036,3.2l.108.576a26.426,26.426,0,0,0,8.172-1.4c4.5-1.548,7.092-4.356,7.092-7.668,0-3.276-2.844-5.616-6.876-5.616-3.276,0-7.38,1.548-11.736,4.464.072-2.412.324-5.4.576-7.308.072-.648.108-.972.108-1.152a2.879,2.879,0,0,0-.252-1.152,3.568,3.568,0,0,1-.216-1.044,1.391,1.391,0,0,1,.4-.972,3.55,3.55,0,0,1,1.656-.648,30.784,30.784,0,0,1,6.876-1.008,12.157,12.157,0,0,1,1.764.108c.468.072.648.108.756.108a.79.79,0,0,0,.864-.756,2.6,2.6,0,0,0-.792-1.584,2.239,2.239,0,0,0-1.476-.9c-.828-.18-1.908-.468-2.592-.684-2.448-.828-3.348-1.44-4.572-3.168Zm27,5.508a1.562,1.562,0,0,0-.4.972,5.141,5.141,0,0,0,.936,2.412,3.973,3.973,0,0,0,2.772,2.124,2.372,2.372,0,0,0,1.44-.5c3.384-1.836,11.628-4.284,16.092-4.824a18.659,18.659,0,0,0-5.868,4.14,13.339,13.339,0,0,0-3.924,8.784,9.561,9.561,0,0,0,4.176,8.064A14.868,14.868,0,0,0,213.876.432c.756,0,1.3-.432,1.3-1.008a2.948,2.948,0,0,0-1.08-1.728,1.793,1.793,0,0,0-1.512-.576,10.879,10.879,0,0,1-3.636-.864,7.305,7.305,0,0,1-4.788-7.02c0-6.156,5.94-12.024,12.1-12.024a4.924,4.924,0,0,1,1.008.072,5.1,5.1,0,0,0,.684.036c.684,0,1.116-.36,1.116-.9,0-.468-.324-.936-1.044-1.368a4.808,4.808,0,0,0-1.944-.756,4.535,4.535,0,0,0-1.26.288,39.431,39.431,0,0,1-4.86,1.188c-2.484.468-4.536.936-5.832,1.26-8.1,1.944-9,2.124-10.008,2.124a2.04,2.04,0,0,1-1.62-.612A3.919,3.919,0,0,1,191.3-23.328Zm22.1,5.58a17.269,17.269,0,0,1,2.772,3.816c1.116,2.34,1.116,2.34,1.584,2.34.612,0,1.116-.648,1.116-1.512s-.5-1.692-1.8-2.88a18.361,18.361,0,0,0-3.2-2.232Zm3.78-2.052a17.183,17.183,0,0,1,3.96,5.112c.288.5.5.684.828.684.54,0,.9-.612.9-1.476,0-.972-.468-1.728-1.836-2.772a17.508,17.508,0,0,0-3.456-2.052Zm-207,59.28h.972v.9c0,.288.108.432.288.432h.072a3.913,3.913,0,0,1,.648-.036c.828-.036,1.008-.144,1.08-.576-.036-1.224-.036-2.376-.036-2.808V34.908h4.176c.54,0,.648-.036.648-.216a.657.657,0,0,0-.252-.36c-.936-.9-1.224-1.188-2.2-2.052-.684.72-.9.972-1.584,1.8h-.792V31.416c.936-.216,1.224-.36,1.224-.612,0-.18-.18-.324-.468-.4a20.319,20.319,0,0,0-2.916-.324c.072,1.188.108,1.512.108,3.24v.756h-4V31.452c1.008-.216,1.3-.324,1.3-.612,0-.36,0-.36-3.312-.756.036,1.332.036,1.332.072,4H4.428a11.608,11.608,0,0,1-2.736-.324l.252,1.44a10.928,10.928,0,0,1,2.484-.288H5.22v2.448c0,.612-.036,1.728-.072,3.1-.036.288.108.432.4.432a8.743,8.743,0,0,0,1.3-.144.559.559,0,0,0,.288-.5V39.48H8.136V43.3H5.4A10.281,10.281,0,0,0,3.1,42c.072,1.476.108,2.232.108,5.58,0,1.3-.036,2.124-.108,4.032v.108c0,.324.144.468.432.468A8.821,8.821,0,0,0,4.9,52.044c.18-.072.252-.144.324-.4V50.46H8.136v4.248H4.1a7.16,7.16,0,0,1-2.448-.36l.288,1.476a7.77,7.77,0,0,1,2.124-.288H8.136V56c-.072,4.86-.072,4.86-.108,6.372v.072c0,.288.144.468.432.468h.072a2.239,2.239,0,0,1,.576-.036c.828-.036,1.044-.144,1.116-.612-.072-3.42-.072-3.672-.072-4L10.188,56v-.468h6.66c.4,0,.5-.036.5-.18a.575.575,0,0,0-.108-.288c-.972-1.008-1.3-1.3-2.3-2.232a16.093,16.093,0,0,0-1.584,1.872H10.188V50.46h3.168v.972c0,.216.072.324.36.324a11.013,11.013,0,0,0,1.332-.108c.18-.072.252-.216.288-.576-.036-1.62-.036-2.52-.036-3.528v-3.2c.612-.36.792-.5.792-.72,0-.18-.144-.324-.4-.54-.684-.432-.864-.576-1.548-1.08-.5.54-.648.72-1.152,1.3H10.188Zm0,10.152V44.124h3.168v5.508Zm-2.052,0H5.22V44.124H8.136ZM11.16,34.908V38.8h-4V34.908Zm7.632,15.948c-.036,7.344-.036,7.344-.108,11.52v.18c0,.216.18.36.468.36,1.332,0,1.62-.108,1.728-.612V42.9c.72-.216,1.116-.432,1.116-.684,0-.288-.54-.432-2.664-.684a46.623,46.623,0,0,0,3.744-9.792c1.008-.216,1.3-.36,1.3-.648s-.216-.36-1.692-.684c-.432-.108-1.08-.252-1.872-.432a47.549,47.549,0,0,1-1.836,8.1,43.711,43.711,0,0,1-3.6,9.072l.54.4a42,42,0,0,0,2.88-4.9Zm8.46-19.008c1.008-.216,1.4-.4,1.4-.648,0-.4-.864-.576-3.744-.828.072,2.052.108,3.024.108,4.356V50.46c-.036,5.364-.036,8.532-.036,9.432.072,1.116.324,1.62,1.044,1.908a8.894,8.894,0,0,0,3.168.288,16.4,16.4,0,0,0,4.248-.36,1.482,1.482,0,0,0,1.116-1.26.885.885,0,0,0-.5-.792c-.72-.288-.72-.288-.72-.756v-.468l.468-6.516-.432-.036c-1.188,5.616-1.584,7.272-1.944,7.812-.252.36-.792.468-2.376.468-1.8,0-1.8,0-1.8-.9v-13.9a37.78,37.78,0,0,0,5.292-4c.288-.252.756-.648,1.368-1.152H34.6c.4,0,.684-.144.684-.324,0-.324-.288-.5-3.1-2.016a20.879,20.879,0,0,1-3.06,4.536,16.339,16.339,0,0,1-1.872,2.16ZM55.764,59.892a21.479,21.479,0,0,0,7.02-2.232c4.536-2.412,7.164-6.408,7.164-10.908a10.991,10.991,0,0,0-3.456-8.46A13.678,13.678,0,0,0,57.2,34.98,17.456,17.456,0,0,0,44.82,40.02a11.251,11.251,0,0,0-3.24,7.128,6.914,6.914,0,0,0,.828,3.276,22.409,22.409,0,0,1,1.584,3.384A7.067,7.067,0,0,0,45,56.112a2.089,2.089,0,0,0,1.584.756c1.332,0,3.1-1.764,5.364-5.364,2.736-4.392,4.752-9.648,4.752-12.456a4.7,4.7,0,0,0-1.116-2.988,8.287,8.287,0,0,1,1.26-.072,11.884,11.884,0,0,1,6.228,1.656A8.93,8.93,0,0,1,67.14,45.6a12.805,12.805,0,0,1-3.2,8.676c-2.052,2.376-4.536,3.852-8.424,5ZM54.828,36.2a4.018,4.018,0,0,1,.5,1.8c0,2.232-1.908,6.876-4.572,11.124C49,51.936,47.268,53.88,46.476,53.88c-.4,0-.864-.4-1.368-1.044a8.423,8.423,0,0,1-1.44-4.752C43.668,42.54,48.564,37.32,54.828,36.2Zm26.46,3.924a6.41,6.41,0,0,0,4.644,2.232c1.368,0,2.16-.18,5.94-1.224.324,1.224.9,3.816,1.332,5.76-2.088.612-2.736.828-3.06.936-4.968,1.548-5.544,1.692-6.66,1.692a3.875,3.875,0,0,1-2.7-1.332,1.245,1.245,0,0,0-.108.432c0,1.116,2.484,3.276,3.816,3.276a3.549,3.549,0,0,0,1.584-.612,41.607,41.607,0,0,1,7.452-2.952c1.044,5.112,1.368,7.2,1.368,8.5,0,.18-.036.684-.036.9a4.96,4.96,0,0,0-.072.5c0,.972,1.8,2.952,2.664,2.952.54,0,.828-.4.828-1.224a7.578,7.578,0,0,0-.4-2.124c-.54-1.944-1.4-5.292-2.592-10.08a60.761,60.761,0,0,1,8.46-1.908,13.885,13.885,0,0,0,2.52-.36.617.617,0,0,0,.4-.576c0-.684-1.764-1.548-3.2-1.548a1.153,1.153,0,0,0-.72.252,11.3,11.3,0,0,1-2.3,1.044,55.332,55.332,0,0,1-5.508,1.692c-.468-1.872-.9-3.888-1.224-5.724,2.052-.612,2.412-.72,6.48-2.052,1.548-.5,2.016-.792,2.016-1.332,0-.324-.252-.612-.792-.828a4.927,4.927,0,0,0-1.692-.36c-.324,0-.432.036-.9.432-.972.72-2.2,1.3-5.436,2.448a21.607,21.607,0,0,1-.432-3.78,4.724,4.724,0,0,1,.144-1.116,1.491,1.491,0,0,0,.036-.36c0-.576-.5-1.008-1.4-1.26a12.933,12.933,0,0,0-2.916-.36,2.46,2.46,0,0,0-2.088.684c1.728.144,2.34.432,2.916,1.26s1.116,2.412,1.836,5.544a22.365,22.365,0,0,1-6.192,1.368A6.255,6.255,0,0,1,81.576,39.7Zm63.18,2.88a48.809,48.809,0,0,1-6.984,6.048,45.873,45.873,0,0,1-12.276,6.372v-1.8c0-2.664.216-9.216.4-11.412a19.364,19.364,0,0,1,.468-3.564,1.8,1.8,0,0,0,.18-.756c0-.72-.72-1.44-2.124-2.2a6.794,6.794,0,0,0-2.88-.864,1.719,1.719,0,0,0-1.116.36c1.584.54,2.16.972,2.484,1.872.468,1.332.648,4.824.648,12.78,0,3.888-.036,4.716-.288,5.508-.18.468-.18.468-.18.648,0,.972,1.656,3.1,2.376,3.1a1.107,1.107,0,0,0,.828-.468c.648-.684.684-.684,2.7-1.728a45.417,45.417,0,0,0,10.872-7.344,32.181,32.181,0,0,0,5.364-6.12Zm9.072,9.036a44.162,44.162,0,0,0,6.48-3.132,69.29,69.29,0,0,0,6.912-4.932c.54.576.684.756.792,1.116a16.766,16.766,0,0,1,.216,3.42,49.008,49.008,0,0,1-.648,8.856,2.377,2.377,0,0,0-.216.936c0,1.044,1.62,3.024,2.448,3.024.576,0,.828-.54.828-1.8,0-.216-.036-1.26-.036-2.052-.072-2.052-.144-4.356-.18-6.876a31.96,31.96,0,0,0-.252-5.292c-.18-.432-.792-.972-2.2-2.016,1.548-1.3,1.764-1.476,4.284-3.888,2.556-2.448,2.556-2.448,2.916-2.736,1.4-1.188,1.44-1.26,1.44-1.584,0-.684-.648-1.512-1.872-2.34a5.379,5.379,0,0,0-3.1-1.08,1.566,1.566,0,0,0-.72.144c1.44.792,2.016,1.368,2.016,2.052,0,1.044-2.3,3.96-5.868,7.452A60.877,60.877,0,0,1,153.252,51.54ZM192.78,36.6c1.656,2.124,2.916,2.772,5.364,2.772a13.651,13.651,0,0,0,2.412-.216c-2.556,3.852-4.14,5.724-6.7,7.74-1.008.828-1.044.864-1.044,1.62,0,1.152.4,1.908.972,1.908.36,0,.648-.216,1.332-1.152,2.592-3.312,5.436-5.22,7.812-5.22a2.049,2.049,0,0,1,1.836,1.08,6.06,6.06,0,0,1,.5,2.844,26.008,26.008,0,0,0-4.464,3.2c-1.764,1.692-2.592,3.24-2.592,4.932a3.944,3.944,0,0,0,2.664,3.816c1.44.684,3.924,1.044,7.308,1.044a40.017,40.017,0,0,0,6.444-.5c.72-.144,1.116-.5,1.116-.972,0-.792-1.4-1.8-2.52-1.8a2.659,2.659,0,0,0-.684.108,26.031,26.031,0,0,1-7.236,1.008c-4.032,0-6.012-.936-6.012-2.88a4.818,4.818,0,0,1,1.764-3.348,18.3,18.3,0,0,1,4.212-2.844,34.39,34.39,0,0,1-.252,3.852,3.923,3.923,0,0,0-.036.612,1.08,1.08,0,0,0,1.152,1.08,1.142,1.142,0,0,0,1.008-.684,9.985,9.985,0,0,0,.288-3.1c0-1.548,0-1.764-.036-2.916a58.456,58.456,0,0,1,9.648-3.708c1.008-.216,1.3-.468,1.3-1.116,0-1.44-2.484-3.636-4.068-3.636a1.752,1.752,0,0,0-.828.216c1.044.432,1.656,1.08,1.656,1.692,0,.648-.864,1.224-4.428,3.024-2.916,1.476-2.916,1.476-3.528,1.764a3.992,3.992,0,0,0-4.032-3.6,9.743,9.743,0,0,0-4.644,1.44c.684-.972.972-1.368,1.944-2.88.828-1.26,1.26-1.908,1.908-2.808a57.726,57.726,0,0,0,7.848-2.052c1.08-.36,1.548-.72,1.548-1.152,0-.684-1.008-1.188-2.412-1.188a1.01,1.01,0,0,0-.684.252c-1.188,1.008-2.16,1.44-5.184,2.3.252-.36.252-.36.9-1.4.288-.4.72-1.044,1.044-1.476.432-.54.576-.792.576-1.044,0-.432-.4-.828-1.3-1.188a7.615,7.615,0,0,0-2.808-.612,2.856,2.856,0,0,0-1.62.4c1.872.468,2.556,1.044,2.556,2.016a9.722,9.722,0,0,1-1.26,3.672,19.082,19.082,0,0,1-3.852.468,5.924,5.924,0,0,1-4.5-1.692ZM3.852,119.28a31.973,31.973,0,0,0,6.3-3.528,39.143,39.143,0,0,0,8.712-8.1,30.86,30.86,0,0,1,8.568,8.82,10.709,10.709,0,0,0,.864,1.44,1.135,1.135,0,0,0,.828.576c.612,0,.972-.72.972-1.872a4.772,4.772,0,0,0-1.368-3.564c-1.4-1.584-4.248-3.42-9.324-6.084,2.808-3.672,2.808-3.672,4.536-6.264,1.3-1.944,1.3-1.944,2.052-2.448a.836.836,0,0,0,.468-.684c0-.684-2.052-2.52-2.808-2.52a1.43,1.43,0,0,0-.828.324,9.332,9.332,0,0,1-3.384,1.008,57.24,57.24,0,0,1-7.56,1.008c-1.584,0-2.34-.54-3.384-2.412a1.435,1.435,0,0,0-.252.72A4.446,4.446,0,0,0,9,97.86c.792,1.4,1.548,2.052,2.34,2.052a1.682,1.682,0,0,0,.612-.108,18.8,18.8,0,0,1,3.024-.972,38.427,38.427,0,0,1,7.6-1.584,24.18,24.18,0,0,1-2.448,4.644,64.017,64.017,0,0,1-6.876,8.964,52.027,52.027,0,0,1-9.684,7.884Zm45.684-11.844a32.424,32.424,0,0,1,4.176,4.1,29.606,29.606,0,0,1,3.492,5.292c.468,1.008.756,1.3,1.26,1.3.72,0,1.224-.972,1.224-2.376,0-1.512-.684-2.484-3.1-4.536,1.3-.828,1.944-1.332,3.78-2.736,1.26-.972,2.3-1.764,3.06-2.34,1.4-1.008,2.34-1.728,2.664-1.98a7.369,7.369,0,0,1,2.016-1.332c.72-.252.72-.252.9-.324a.756.756,0,0,0,.432-.72c0-.468-.468-1.152-1.512-2.232-1.188-1.224-1.908-1.728-2.52-1.728a1.625,1.625,0,0,0-.9.252,2.26,2.26,0,0,1-1.152.432c-.324.072-2.16.324-5.544.756a109.7,109.7,0,0,1-11.916,1.3,3.941,3.941,0,0,1-2.2-.432,4.386,4.386,0,0,1-1.728-1.8,1.776,1.776,0,0,0-.216.828,5.54,5.54,0,0,0,1.26,2.736c.864,1.188,1.764,1.872,2.412,1.872a2.282,2.282,0,0,0,1.008-.288c1.476-.72,2.988-1.152,7.092-1.944a85.488,85.488,0,0,1,11.16-1.62c.36,0,.576.108.576.288s-.288.576-1.152,1.692a78.882,78.882,0,0,1-8.244,8.712,31.634,31.634,0,0,0-6.012-3.636Zm30.132-4.464c-.252.252-.288.324-.288.828a6.468,6.468,0,0,0,1.368,3.312q.918,1.188,1.728,1.188a2.87,2.87,0,0,0,.54-.108c.576-.324.9-.36,2.592-.468,1.26-.072,9.5-.288,12.852-.324,6.8-.072,7.668-.108,8.64-.432a1.057,1.057,0,0,0,.828-.972.75.75,0,0,0-.5-.72c-.648-.252-1.44-.324-4.68-.324-1.188,0-12.636.18-14.04.216-4.032.108-4.032.108-4.428.108-1.908,0-2.592-.18-3.492-.864A3.229,3.229,0,0,1,79.668,102.972Zm45-11.088a3.69,3.69,0,0,1,2.736,3.2,58.746,58.746,0,0,1,.252,6.192c0,9.18-.216,13.86-.756,15.588a2.718,2.718,0,0,0-.18,1.008c0,1.188,1.44,3.132,2.3,3.132a.817.817,0,0,0,.648-.324,2.294,2.294,0,0,0,.18-1.224c0-.54,0-1.152-.036-1.908-.072-3.024-.072-3.024-.072-4.1v-5.256c0-1.08,0-2.2-.036-4.464a20.723,20.723,0,0,1,8.46,4.68c.936.864.972.864,1.332.864.54,0,.864-.612.864-1.656,0-1.3-.612-2.016-2.232-2.772a32.545,32.545,0,0,0-8.388-2.016c0-4.176.216-6.876.648-7.848.216-.54.216-.54.216-.792,0-.684-.864-1.4-2.376-1.98a7.271,7.271,0,0,0-2.664-.612A1.448,1.448,0,0,0,124.668,91.884Zm37.4,14.688-1.908,5.04a28.538,28.538,0,0,1-1.3,3.06,13.642,13.642,0,0,1-.684-4.752,19.746,19.746,0,0,1,.468-4.464,30.621,30.621,0,0,1,1.944-5.724c.72-1.44.756-1.584.756-2.16a4.859,4.859,0,0,0-1.332-2.844c-.972-1.26-1.62-1.728-2.412-1.764a6.4,6.4,0,0,1,1.008,3.384,16.851,16.851,0,0,1-.5,3.348,55.087,55.087,0,0,0-1.26,6.8,32.44,32.44,0,0,0-.288,3.852,21.332,21.332,0,0,0,1.26,7.668c.4.972.936,1.476,1.548,1.476a.885.885,0,0,0,.864-.612,5.257,5.257,0,0,0,.108-1.548,14.157,14.157,0,0,1,.612-3.816c1.008-4.176,1.548-6.444,1.62-6.768Zm4.644-9.036a6.344,6.344,0,0,0,4.9,2.016c.324,0,.72-.036,1.476-.072-.576.432-1.8,1.44-3.42,2.808l.36.36a36.764,36.764,0,0,1,4.644-2.556,20.637,20.637,0,0,1,5.112-1.26c.756-.144,1.008-.36,1.008-.828s-.36-.9-1.116-1.332a2.739,2.739,0,0,0-1.26-.5c-.252,0-.324.036-.792.288a19.116,19.116,0,0,1-7.236,1.62,5.635,5.635,0,0,1-3.348-.972Zm-.216,10.872a9.759,9.759,0,0,0-.432,2.844,5.98,5.98,0,0,0,1.944,4.68c1.62,1.44,4.824,2.2,9.324,2.2a18.1,18.1,0,0,0,4.5-.4c.5-.18.792-.468.792-.9a2.77,2.77,0,0,0-2.268-2.124,1.777,1.777,0,0,0-.54.108,5.608,5.608,0,0,1-1.908.576,16.99,16.99,0,0,1-3.06.252c-5.58,0-7.848-1.62-7.848-5.58a14,14,0,0,1,.108-1.512Zm46.944-5.04V91.956c1.08-.252,1.548-.5,1.548-.792,0-.324-.648-.54-2.2-.756-.468-.072-1.152-.144-2.016-.288.072,1.764.108,4.572.108,11.736v1.512H206.6a20.736,20.736,0,0,1-3.888-.324l.288,1.368a20.821,20.821,0,0,1,3.6-.216h4.284c-.036,9.936-.072,15.984-.108,18.072,0,.36.18.468.72.468h.432c1.188-.036,1.548-.144,1.62-.612-.036-3.492-.036-3.492-.108-17.928h10.224c.216,0,.4-.144.4-.288a1.107,1.107,0,0,0-.144-.324,32.318,32.318,0,0,0-3.312-2.808c-.936,1.116-1.224,1.476-2.16,2.592Zm-18.72,7.56h5.04v1.656c0,.4.144.5.612.5,1.4,0,1.764-.144,1.8-.756-.108-7.416-.108-7.416-.108-16.236,1.044-.432,1.3-.612,1.3-.864,0-.144-.072-.288-.36-.54-.828-.72-1.116-.936-2.016-1.656a16.155,16.155,0,0,0-1.476,1.656h-4.284c-1.3-.936-1.728-1.188-2.988-2.016.108,1.548.144,5.364.144,11.448,0,2.232-.072,8.316-.108,10.62.036.288.216.4.54.4h.072a5.121,5.121,0,0,1,.54-.036c.972-.036,1.224-.18,1.3-.648Zm0-15.408h5.04V110.1h-5.04Zm45.684-4.464c1.512,2.16,2.772,3.024,5.9,4.068-.9.252-3.708,1.116-6.48,2.016l.144.468c3.492-.576,5.364-.9,5.652-.936a22.531,22.531,0,0,1,2.988-.252,3.5,3.5,0,0,1,.648.036,3.167,3.167,0,0,0,.5.036.716.716,0,0,0,.72-.684,2.582,2.582,0,0,0-.864-1.62,2.066,2.066,0,0,0-1.548-.756,13.064,13.064,0,0,1-2.628-.4,9.852,9.852,0,0,1-4.68-2.3Zm-5.04,9.612a1.706,1.706,0,0,0-.576,1.3,6.422,6.422,0,0,0,.648,2.3c.5.972,1.08,1.476,1.656,1.476a3.01,3.01,0,0,0,1.4-.54c3.42-1.98,7.236-3.6,8.46-3.6.252,0,.4.072.4.216,0,.216-.144.432-.756,1.26a123.253,123.253,0,0,1-8.82,9.72,39.721,39.721,0,0,1-5.22,4.5,1.123,1.123,0,0,0-.576,1.008c0,1.116.684,2.448,1.3,2.448.252,0,.5-.216.864-.684a37.34,37.34,0,0,1,3.708-4.428c2.232-2.268,4.428-3.564,6.048-3.564a2.07,2.07,0,0,1,2.16,2.052,23.213,23.213,0,0,0,.468,2.772,4.26,4.26,0,0,0,2.016,2.808c1.332.828,3.06,1.152,5.8,1.152,3.132,0,4.212-.288,4.212-1.116,0-.432-.252-.756-.9-1.26a3.5,3.5,0,0,0-1.728-.828,1.243,1.243,0,0,0-.468.108,3.447,3.447,0,0,1-1.26.4,21.15,21.15,0,0,1-2.232.144c-2.52,0-3.168-.432-3.636-2.52-.576-2.376-.828-3.024-1.62-3.744a3.544,3.544,0,0,0-2.376-.9,8.607,8.607,0,0,0-4.032,1.26c2.2-2.376,5.976-6.084,7.2-7.092a7.352,7.352,0,0,1,2.016-1.44c.9-.36,1.044-.468,1.044-.9,0-1.008-1.98-3.024-2.952-3.024-.18,0-.288.036-.612.252-.468.324-.684.4-3.384,1.26-4.68,1.512-5.328,1.692-6.192,1.692a1.635,1.635,0,0,1-1.152-.432A3.877,3.877,0,0,1,235.368,100.668Zm42.516-8.28c2.34.4,2.88.972,3.132,3.06.288,2.412.288,2.412.5,16.884-.612-.036-1.08-.036-1.368-.036a15.39,15.39,0,0,0-5.22.864c-2.268.864-3.492,2.232-3.492,3.96,0,2.412,2.376,3.924,6.156,3.924a11.978,11.978,0,0,0,3.672-.54,3.505,3.505,0,0,0,2.556-3.564c0-.648,0-.648-.072-2.34a19.212,19.212,0,0,1,8.1,4.572c.4.324.612.468.864.468.468,0,.72-.5.72-1.368,0-1.26-.684-2.232-2.232-3.1a23.1,23.1,0,0,0-7.6-2.628c-.216-2.34-.4-6.552-.4-9.4v-1.584a3.167,3.167,0,0,0,2.412.9,15.307,15.307,0,0,0,5-1.116c1.656-.612,2.124-.9,2.124-1.44,0-.324-.18-.54-.756-.864a4.586,4.586,0,0,0-1.548-.468c-.216,0-.4.108-.792.4a11.808,11.808,0,0,1-5.472,2.124,1.182,1.182,0,0,1-.972-.4v-.684a18.514,18.514,0,0,1,.72-5.184c.288-.72.288-.72.288-1.008,0-.72-.576-1.224-1.8-1.548a10.966,10.966,0,0,0-2.88-.432A2.2,2.2,0,0,0,277.884,92.388Zm3.6,21.672c0,2.448-.108,3.2-.576,3.78-.684.9-2.412,1.476-4.5,1.476-2.556,0-4.032-.828-4.032-2.268,0-1.8,2.664-3.06,6.372-3.06C279.9,113.988,280.332,113.988,281.484,114.06Zm34.164-24.048c1.368,2.2,3.132,3.312,6.084,3.924-.9.324-3.384,1.44-6.084,2.664l.18.5c7.452-2.16,7.452-2.16,8.964-2.2.972,0,1.476-.288,1.476-.792a1.791,1.791,0,0,0-.756-1.224,2.783,2.783,0,0,0-1.944-.864h-.828a10.584,10.584,0,0,1-6.732-2.3Zm2.664,32.832a16.572,16.572,0,0,0,5.652-4.212A17.569,17.569,0,0,0,328.428,107a9.506,9.506,0,0,0-1.368-5.292A5.694,5.694,0,0,0,322.6,99.3c-1.836,0-3.024.4-6.084,2.052-1.872,1.008-2.808,1.4-3.312,1.4-.936,0-1.656-.9-1.98-2.484a1.95,1.95,0,0,0-.576,1.332,4.543,4.543,0,0,0,.972,2.412,3.29,3.29,0,0,0,2.376,1.62c.576,0,.792-.144,1.476-.828,2.484-2.7,5-4.248,6.912-4.248,2.124,0,3.42,2.2,3.42,5.76a22.138,22.138,0,0,1-3.06,10.944,19.89,19.89,0,0,1-4.752,5.184Z" transform="translate(-1.296 30.348)" fill="#fff"/>
</svg>
