<svg xmlns="http://www.w3.org/2000/svg" width="289.26" height="92.688" viewBox="0 0 289.26 92.688">
  <path id="パス_22222" data-name="パス 22222" d="M29.3-7.74v1.26c0,.324.144.468.468.468.18,0,1.44-.144,1.512-.18.216-.072.288-.216.36-.54-.072-1.44-.072-2.844-.072-4.932v-2.664c.828-.4,1.152-.648,1.152-.9,0-.072-.144-.252-.4-.468a21.2,21.2,0,0,0-1.98-1.584c-.576.648-.792.864-1.368,1.584H24.372v-2.88c.936-.288,1.044-.324,1.188-.468,0,0,.036-.072.144-.252a.035.035,0,0,0,.036-.036.839.839,0,0,0-.324-.252,21.387,21.387,0,0,0-3.528-.5c.036.252.072,1.476.144,3.636v.756H17.748a14.979,14.979,0,0,0-2.736-1.584c.036,1.368.072,2.088.072,2.988,0,4.644-.036,6.66-.072,8.208.036.288.144.4.432.4,1.584,0,1.836-.072,1.908-.612V-7.74h4.68v5.976a80.61,80.61,0,0,1-8.82.576c.648,3.492.756,3.816,1.08,3.816s.54-.432.72-1.368C25.668-.972,25.668-.972,30.6-2.268a18.06,18.06,0,0,1,1.944,3.6c.216.576.432.828.72.828.54,0,1.116-1.188,1.116-2.376,0-.972-.36-1.548-1.692-2.736A31.7,31.7,0,0,0,27.9-6.408l-.36.4a19.871,19.871,0,0,1,2.592,3.1c-1.8.324-4.68.756-5.76.864V-7.74Zm0-.828H24.372v-6.3H29.3Zm-7.272,0h-4.68v-6.3h4.68ZM5.364-12.96c.792-4.9.792-4.9,1.008-6.732H10.08v1.908c0,.18.216.288.648.288H11.2c.864-.036,1.224-.216,1.3-.72-.036-1.476-.036-1.98-.036-3.96V-26.64c.9-.36,1.332-.612,1.332-.936q0-.162-.324-.432c-.936-.756-1.224-1.008-2.232-1.764-.648.756-.828,1.008-1.476,1.8H5.148A13.73,13.73,0,0,1,2.016-28.3l.252,1.4a17.151,17.151,0,0,1,2.88-.252H10.08v6.624H6.732c-.828-.54-1.656-1.08-2.52-1.656A72.048,72.048,0,0,1,2.448-10.62a.793.793,0,0,0-.036.288c0,.216.108.252.864.324,1.368-.072,1.476-.108,1.62-.648.18-.684.216-.936.324-1.476h4.86A55.492,55.492,0,0,1,8.892-2.16C8.6-1.044,8.388-.828,7.668-.828c-.324,0-2.016-.108-2.628-.18C3.1-1.224,3.1-1.224,2.448-1.26v.576a11.8,11.8,0,0,1,3.312.9c.648.36.792.612,1.008,1.944A5.7,5.7,0,0,0,9.4,1.4C10.26.9,10.62.216,11.124-1.548c.612-2.124.72-2.988,1.224-8.784q.054-.378.108-1.188c1.116-.72,1.116-.72,1.116-.936,0-.108-.144-.288-.36-.5l-1.98-1.476c-.576.612-.756.792-1.332,1.476ZM26.1-27.4a41.326,41.326,0,0,1,3.6,4.248c-1.908.144-8.208.54-10.98.648a43.315,43.315,0,0,0,4.1-5.544c1.224-.18,1.728-.36,1.728-.72,0-.324-.792-.576-4.176-1.332a18.866,18.866,0,0,1-1.368,4.608,23.168,23.168,0,0,1-1.332,3.024c-1.008,0-2.2.036-2.7.036H14c.648,3.744.684,3.78,1.008,3.78.288,0,.576-.54.828-1.62,3.96-.432,9.18-1.3,14.256-2.3A15.917,15.917,0,0,1,31.1-20.7c.576,1.224.576,1.224.72,1.368a.768.768,0,0,0,.432.252.9.9,0,0,0,.612-.432,3.71,3.71,0,0,0,.4-1.728,4.483,4.483,0,0,0-.144-1.224c-.216-.684-1.512-1.836-3.708-3.312-1.8-1.188-1.944-1.3-2.916-1.98Zm19.332,5.8a34.111,34.111,0,0,1-4.1-.36l.252,1.4a25.784,25.784,0,0,1,3.492-.216h8.172c-.18,1.764-.216,2.052-.324,2.952a26.428,26.428,0,0,1-5.8,13.644A24.916,24.916,0,0,1,40,1.872l.288.5a25.207,25.207,0,0,0,7.38-4.536,24.915,24.915,0,0,0,7.56-13.788,32.029,32.029,0,0,0,.648-4.824H66.42c-.216,9.18-1.26,17.28-2.376,18.936-.288.432-.792.54-2.232.54-.576,0-1.044-.036-7.092-.468l-.072.576A30.024,30.024,0,0,1,60.084.072c.648.252.792.54,1.044,1.764A9.661,9.661,0,0,0,64.764.864c1.116-.612,1.8-1.692,2.3-3.492,1.044-3.816,1.728-9.828,1.944-17.424,1.008-.432,1.4-.684,1.4-.972,0-.144-.108-.324-.4-.576-1.008-.792-1.3-1.044-2.34-1.836-.684.792-.864,1.044-1.476,1.836H55.944c.18-2.016.216-2.592.432-6.12,1.008-.5,1.224-.684,1.224-1.008,0-.18-.108-.288-.36-.36a26.292,26.292,0,0,0-3.672-.5,16.348,16.348,0,0,1,.108,1.692c0,1.188-.18,4.1-.36,6.3Zm64.836-.612c.252,0,.36-.072.36-.252a.486.486,0,0,0-.18-.36c-1.368-1.224-1.836-1.584-3.312-2.736-.972,1.08-1.224,1.4-2.088,2.52H98.676v-5.4c1.26-.324,1.512-.468,1.512-.756,0-.468-.936-.612-4.14-.792a26.4,26.4,0,0,1,.18,3.2v3.744H90.54a22.3,22.3,0,0,1-2.988-.252L87.8-22a20.1,20.1,0,0,1,2.736-.216h3.888v1.368A37.964,37.964,0,0,1,92.88-9.54,21.73,21.73,0,0,1,87.8-1.152a18.812,18.812,0,0,1-3.924,3.24l.324.54A12.88,12.88,0,0,0,87.732.54a22.155,22.155,0,0,0,5.8-6.408,25.473,25.473,0,0,0,2.88-9.972h7.812A75.9,75.9,0,0,1,103.212-4.1c-.5,2.34-.864,2.916-1.8,2.916-.216,0-.648-.036-1.08-.036-.252-.036-.72-.072-1.44-.108-1.8-.072-2.592-.144-4.464-.36v.576a14.333,14.333,0,0,1,4.248,1.08,1.976,1.976,0,0,1,1.188,1.728A7.9,7.9,0,0,0,103.1.936a3.7,3.7,0,0,0,1.98-2.592,49.663,49.663,0,0,0,1.224-7.956c.288-4.464.288-4.464.4-5.616.9-.288,1.3-.576,1.3-.936q0-.216-.432-.54c-.9-.648-1.188-.864-2.2-1.548a14.092,14.092,0,0,0-1.332,1.584H96.516c.108-1.3.216-3.132.324-5.544ZM79.092-18.756c.036,4.572.036,4.572.036,5.544l-.108,15.3v.144c0,.36.18.5.576.5a11.848,11.848,0,0,0,1.44-.108c.288-.072.36-.216.4-.54,0-1.332,0-1.476-.036-3.168C81.36-2.7,81.36-2.7,81.36-5.112v-1.62c2.052.468,2.232.648,2.376,2.376A4.828,4.828,0,0,0,87.3-6.084a6.437,6.437,0,0,0,1.188-3.924,9.52,9.52,0,0,0-1.548-5.04,12.123,12.123,0,0,0-3.2-3.168,91.733,91.733,0,0,0,4.86-8.028c1.332-.288,1.62-.432,1.62-.72,0-.18-.108-.324-.4-.54-1.224-.972-1.224-.972-2.376-1.836a10.5,10.5,0,0,1-1.332,1.548H81.54a20.541,20.541,0,0,0-2.592-1.548c.072,1.116.072,1.116.072,2.016Zm2.268-8.208h4.68a57.872,57.872,0,0,1-3.348,8.856,10.362,10.362,0,0,1,2.664,3.24,10.777,10.777,0,0,1,.864,4.428,7.041,7.041,0,0,1-.4,2.484c-.252.576-.432.72-1.116.72a25.74,25.74,0,0,1-3.348-.18Zm63.36,5.832c1.044,0,1.368-.108,1.368-.432,0-.288-1.08-.936-3.816-2.3a20.549,20.549,0,0,1-3.024,5.436,29.757,29.757,0,0,1-2.736,3.312,37.276,37.276,0,0,1-3.852-12.924c1.332-.36,1.656-.54,1.656-.864,0-.36,0-.36-4.284-1.008.144,2.232.18,3.24.18,5.436V-1.44c0,.432-.144.576-.612.612-2.34-.036-2.412-.036-6.8-.324l-.036.576A16.553,16.553,0,0,1,127.332.576c.756.36,1.008.756,1.188,1.908,2.2-.4,3.2-.792,3.816-1.44.4-.432.5-.828.5-1.872l-.18-10.332-.18-13.9c.612,3.2.72,3.78,1.008,5.112a30.706,30.706,0,0,0,5.868,12.852A22.656,22.656,0,0,0,145.44-1.44c.936-1.908,1.188-2.124,2.952-2.412l.036-.468a20.307,20.307,0,0,1-7.128-4.5,23.88,23.88,0,0,1-4.392-5.58,41.979,41.979,0,0,0,7.416-6.732Zm-28.62,2.52a15.925,15.925,0,0,1,2.88-.216h5.94A33.916,33.916,0,0,1,120.6-8.46a32.4,32.4,0,0,1-6.336,7.38l.324.468a28.073,28.073,0,0,0,7.6-6.8,33,33,0,0,0,5.328-10.656c1.008-.324,1.4-.612,1.4-.864,0-.144-.108-.324-.432-.612-.9-.756-1.188-1.008-2.124-1.8-.612.684-.828.936-1.44,1.692h-5.94a11.73,11.73,0,0,1-3.168-.36Zm38.484-4.716a1.562,1.562,0,0,0-.4.972,5.141,5.141,0,0,0,.936,2.412A3.973,3.973,0,0,0,157.9-17.82a2.372,2.372,0,0,0,1.44-.5c3.384-1.836,11.628-4.284,16.092-4.824a18.659,18.659,0,0,0-5.868,4.14,13.339,13.339,0,0,0-3.924,8.784,9.561,9.561,0,0,0,4.176,8.064A14.868,14.868,0,0,0,177.156.432c.756,0,1.3-.432,1.3-1.008a2.948,2.948,0,0,0-1.08-1.728,1.793,1.793,0,0,0-1.512-.576,10.879,10.879,0,0,1-3.636-.864,7.305,7.305,0,0,1-4.788-7.02c0-6.156,5.94-12.024,12.1-12.024a4.924,4.924,0,0,1,1.008.072,5.1,5.1,0,0,0,.684.036c.684,0,1.116-.36,1.116-.9,0-.468-.324-.936-1.044-1.368a4.808,4.808,0,0,0-1.944-.756,4.535,4.535,0,0,0-1.26.288,39.431,39.431,0,0,1-4.86,1.188c-2.484.468-4.536.936-5.832,1.26-8.1,1.944-9,2.124-10.008,2.124a2.04,2.04,0,0,1-1.62-.612A3.919,3.919,0,0,1,154.584-23.328Zm22.1,5.58a17.269,17.269,0,0,1,2.772,3.816c1.116,2.34,1.116,2.34,1.584,2.34.612,0,1.116-.648,1.116-1.512s-.5-1.692-1.8-2.88a18.361,18.361,0,0,0-3.2-2.232Zm3.78-2.052a17.183,17.183,0,0,1,3.96,5.112c.288.5.5.684.828.684.54,0,.9-.612.9-1.476,0-.972-.468-1.728-1.836-2.772a17.508,17.508,0,0,0-3.456-2.052ZM32.436,33.18c.216,0,.36-.072.36-.18,0-.072-.036-.144-.144-.252-1.4-1.26-1.872-1.62-3.312-2.772-.936.972-1.188,1.3-2.124,2.376H15.408a10.711,10.711,0,0,1-2.88-.324l.252,1.4a12.4,12.4,0,0,1,2.664-.252h3.708a64.721,64.721,0,0,1-1.224,6.552H15.48a12.83,12.83,0,0,1-3.24-.324l.288,1.44a11.877,11.877,0,0,1,2.952-.288h2.268a60.7,60.7,0,0,1-2.376,8.316,1.113,1.113,0,0,0-.072.288c0,.252.288.324,1.4.324,1.008,0,1.224-.072,1.4-.54.252-.9.324-1.188.576-1.98H29.016c-.828,5.724-1.3,7.92-2.232,10.44-.54,1.476-.9,1.836-1.836,1.836-1.08,0-4.176-.252-8.028-.612l-.072.648c3.528.684,4.392.9,5.184,1.3a2.464,2.464,0,0,1,1.476,2.016,9.015,9.015,0,0,0,3.132-.72,4.914,4.914,0,0,0,2.2-2.556c1.044-2.448,1.872-5.94,2.628-11.376,1.188-.54,1.548-.792,1.548-1.08,0-.144-.072-.288-.324-.468-1.08-.864-1.4-1.116-2.484-1.908-.5.54-1.044,1.08-1.62,1.656H18.936c.72-2.988.972-4.068,1.332-5.58h14c.252,0,.4-.072.4-.18,0-.072-.036-.144-.144-.288-1.368-1.26-1.764-1.656-3.2-2.844-.936,1.044-1.224,1.368-2.16,2.484H20.448c.324-1.584.756-3.744,1.3-6.552ZM4.1,31.128a20.314,20.314,0,0,1,4.248,5.184c.288.5.5.684.756.684.54,0,1.044-1.008,1.044-2.052,0-.936-.324-1.44-1.4-2.124a21.394,21.394,0,0,0-4.392-2.052Zm-2.88,7.416A19.1,19.1,0,0,1,5.4,43.62c.288.468.54.684.864.684.54,0,1.08-1.044,1.08-2.088,0-1.512-1.152-2.34-5.868-4.1Zm.828,13.284C4,53.016,4.176,53.2,4.536,53.844a5.7,5.7,0,0,1,.432,2.484,19.2,19.2,0,0,1-.324,3.348,9.72,9.72,0,0,0-.216,1.692.883.883,0,0,0,.864.972,2.815,2.815,0,0,0,2.592-3.1,11.3,11.3,0,0,0-.792-3.852,5.539,5.539,0,0,1-.36-1.62,5.479,5.479,0,0,1,.576-2.088l5.148-14.616-.5-.216C10.332,40.488,6.48,48.8,5.868,49.92,5.04,51.5,4.68,51.936,4.212,51.936a9.537,9.537,0,0,1-1.98-.54Zm41.868-2.34a16.743,16.743,0,0,1-2.34,3.2c-.576.576-.612.648-.612,1.08a6.671,6.671,0,0,0,.4,1.98c.216.54.5.828.828.828.36,0,.5-.216,1.224-1.944a25.212,25.212,0,0,1,3.168,3.924c.108.252.5,1.368.612,1.728.18.684.468.972.864.972.864,0,1.548-1.692,1.548-3.744a10.778,10.778,0,0,0-.108-1.692c-.252-2.772-.36-4.5-.36-6.444,0-.54,0-1.008.036-1.872a52.1,52.1,0,0,1,5.472-5.688c2.88-2.556,4.752-3.636,6.3-3.636,1.4,0,2.2,1.008,2.2,2.772,0,1.332-.072,1.836-.9,5.688a37.536,37.536,0,0,0-.9,6.408c0,3.276,1.476,5.04,4.212,5.04,2.556,0,5.364-1.476,7.956-4.14l-.288-.432a13.164,13.164,0,0,1-6.7,2.556,3.154,3.154,0,0,1-1.836-.54c-.648-.468-.9-1.224-.9-2.664a34.69,34.69,0,0,1,.648-5.9c.684-3.708.72-3.96.72-5.328a4.517,4.517,0,0,0-.972-3.168,3.72,3.72,0,0,0-2.844-1.3c-1.584,0-3.276.756-5.8,2.556a58.524,58.524,0,0,0-6.264,5.508,8.488,8.488,0,0,1,.072-1.332,23.539,23.539,0,0,1,1.152-2.34c.468-.756.5-.828.5-1.044,0-.288-.252-.576-1.044-1.4a15.941,15.941,0,0,1,.648-2.844c.36-1.08.36-1.08.36-1.476,0-.684-.72-1.584-1.872-2.376a4.857,4.857,0,0,0-2.3-.972.7.7,0,0,0-.468.18c1.728,1.3,2.052,1.908,2.052,4a29.451,29.451,0,0,1-.252,3.816,17.969,17.969,0,0,1-5.184,2.16c-.756,0-1.548-.576-2.34-1.728a3.087,3.087,0,0,0-.108.612c0,1.152,1.728,3.276,2.664,3.276.324,0,.54-.108,1.224-.576.648-.468,2.556-1.764,3.636-2.484-.036.54-.036.54-.108,1.26-.036.936-.036.936-.072,1.512Zm3.888-3.348c-.108,1.476-.144,2.3-.144,4.068-.036,5.364-.036,5.364-.108,6.732a31.417,31.417,0,0,1-3.816-2.916c.684-1.44,1.08-2.232,1.908-3.816C47.268,47.184,47.3,47.184,47.808,46.14Zm34.02-9.792A8.911,8.911,0,0,0,83.7,39.516a9.093,9.093,0,0,0,3.492,2.232A7.592,7.592,0,0,0,83.7,43.656a3.717,3.717,0,0,0-1.116,2.484A5.371,5.371,0,0,0,84.168,49.7a8.832,8.832,0,0,0,2.88,1.836c-.036.9-.072,1.368-.072,1.8,0,3.132.9,5.292,2.772,6.7a8.23,8.23,0,0,0,4.9,1.476c5,0,8.748-3.312,8.748-7.668,0-3.672-2.268-6.66-7.6-9.936l-.4.468c3.42,2.628,5.436,6.012,5.436,9a6.053,6.053,0,0,1-1.188,3.672A7,7,0,0,1,93.96,59.5c-3.636,0-5.688-2.052-5.688-5.724,0-.468.036-.9.108-1.764a14.591,14.591,0,0,0,3.816.648c.756,0,1.224-.324,1.224-.828a2.5,2.5,0,0,0-2.16-1.944,2.381,2.381,0,0,0-.4.036.793.793,0,0,1-.288.036A9.98,9.98,0,0,1,88.74,49.7a42.823,42.823,0,0,1,1.44-6.66,8.277,8.277,0,0,0,1.4.18c.72,0,1.152-.288,1.152-.756a2.037,2.037,0,0,0-.5-1.188,2.614,2.614,0,0,0-1.44-.792c.972-3.168,1.368-4.14,1.98-5a1.551,1.551,0,0,0,.468-1.044,3.741,3.741,0,0,0-1.872-2.592A5.52,5.52,0,0,0,88.7,30.732a1.485,1.485,0,0,0-.612.144c1.44,1.008,1.944,1.764,1.944,2.988,0,.864-.108,1.4-1.116,6.408a10.948,10.948,0,0,1-4.212-1.548,7.834,7.834,0,0,1-2.484-2.592Zm6.516,6.444a59.5,59.5,0,0,0-1.08,6.552c-2.484-.756-3.708-1.872-3.708-3.384a2.493,2.493,0,0,1,.792-1.8C85.212,43.3,86.256,42.9,88.344,42.792Zm32.94,18.5c7.344-4,12.924-10.26,17.82-19.908a6.514,6.514,0,0,1,1.224-1.98c.432-.468.5-.612.5-.972,0-.432-.36-.972-1.116-1.728a5.484,5.484,0,0,0-2.628-1.656c-.288,0-.288,0-.72.252-.756.4-1.008.468-4.176,1.008-6.336,1.08-9.036,1.476-10.26,1.476a3.463,3.463,0,0,1-3.348-2.088,1.153,1.153,0,0,0-.252.72,4.173,4.173,0,0,0,.936,2.268c.9,1.224,1.836,1.944,2.592,1.944a3.356,3.356,0,0,0,1.332-.36,40.4,40.4,0,0,1,6.588-2.052A56.637,56.637,0,0,1,136.44,37c.54,0,.72.108.72.468,0,1.224-1.98,5.616-4.284,9.612A49.287,49.287,0,0,1,120.96,60.864Zm22.9-31.932a3.941,3.941,0,0,0-3.96,3.924,4,4,0,0,0,3.96,3.96,3.942,3.942,0,0,0,0-7.884Zm0,1.188a2.754,2.754,0,0,1,0,5.508,2.8,2.8,0,0,1-2.772-2.772A2.743,2.743,0,0,1,144.18,30.552ZM155.3,37.32a4.4,4.4,0,0,1,2.484,2.592c.612,1.62,1.152,6.552,1.152,10.764a21.93,21.93,0,0,1-.108,2.88,1.927,1.927,0,0,0-.144.72,4.179,4.179,0,0,0,.5,1.656c.54,1.116,1.044,1.62,1.62,1.62.612,0,.792-.324.792-1.3,0-.4,0-.432-.036-1.332a61.361,61.361,0,0,1,8.28-.54c2.052,0,4.212.108,5.112.216a10.544,10.544,0,0,0,1.764.252.7.7,0,0,0,.684-.756c0-.684-.576-1.3-1.8-1.836.252-.9.252-.9.9-3.708.972-4.1,1.152-4.9,1.512-6.084a5.473,5.473,0,0,1,.864-1.98,1.014,1.014,0,0,0,.288-.684c0-.432-.36-.972-1.188-1.8-.792-.792-1.44-1.224-1.872-1.224A1.119,1.119,0,0,0,175.5,37c-.648.288-1.044.36-4.176.72-5.58.576-9.936.972-11.232,1.008-2.124-1.26-3.024-1.62-4.068-1.62A1.184,1.184,0,0,0,155.3,37.32Zm5.22,2.952c1.872-.288,3.1-.432,6.984-.756,4.5-.324,6.372-.468,7.092-.468.324,0,.5,0,.972.036-.36,3.348-1.4,9.576-2.232,13.284-2.052.216-9.18.72-11.88.828C161.136,49.956,160.7,43.944,160.524,40.272ZM197.5,33.756c1.728,2.556,3.132,3.348,5.832,3.348a55.177,55.177,0,0,0,8.208-.936c1.44-.324,1.872-.54,1.872-.972,0-.72-1.512-1.908-2.448-1.908a2.118,2.118,0,0,0-1.08.288,18.972,18.972,0,0,1-7.6,1.764A5.612,5.612,0,0,1,198,33.4ZM199.08,61.62a21.305,21.305,0,0,0,7.128-8.784c1.26-2.592,2.268-5.688,2.268-7.056,0-.828-.684-1.548-2.34-2.484a42.264,42.264,0,0,1,5.9-.36,34.012,34.012,0,0,1,5.8.468,3.258,3.258,0,0,0,.9.108c.612,0,1.008-.288,1.008-.72,0-.5-.72-1.188-1.692-1.656a4.552,4.552,0,0,0-1.908-.54,2.118,2.118,0,0,0-.9.18,16.393,16.393,0,0,1-2.808.612c-4.824.468-8.892.972-11.088,1.332-4.968.864-5.184.9-6.156.9a3.4,3.4,0,0,1-3.024-1.728,2.508,2.508,0,0,0-.144.684,3.76,3.76,0,0,0,.72,1.584c.972,1.3,2.052,2.052,2.808,2.052a2.273,2.273,0,0,0,1.152-.36,28.85,28.85,0,0,1,7.992-2.268,1.836,1.836,0,0,1,.9,1.764,24.572,24.572,0,0,1-1.728,7.344,26.072,26.072,0,0,1-5.184,8.5Zm33.228-13.572a35.991,35.991,0,0,0,10.368-9.864,2.914,2.914,0,0,0,3.42.792,27.337,27.337,0,0,1,4.572-1.152c.216,0,.324.108.324.252a6.11,6.11,0,0,1-.576,1.836,44.3,44.3,0,0,1-9.828,14.256,40.088,40.088,0,0,1-7.956,6.444l.252.5a32.481,32.481,0,0,0,8.928-5.616,42.118,42.118,0,0,0,10.62-13.536,7.439,7.439,0,0,1,1.728-2.556c.432-.4.54-.576.54-.9,0-.792-2.052-2.664-2.916-2.664a.971.971,0,0,0-.612.216,11.018,11.018,0,0,1-2.844.972,25.337,25.337,0,0,1-4.32.72,3.926,3.926,0,0,1-.936-.144c1.908-2.808,1.944-2.844,1.944-3.276,0-.576-.54-1.188-1.692-1.836a6.606,6.606,0,0,0-2.952-.972,1.227,1.227,0,0,0-.684.216,5.318,5.318,0,0,0,.648.324,5.36,5.36,0,0,1,.864.648c.54.468.684.756.684,1.224,0,.792-.9,2.628-2.376,4.86a40.294,40.294,0,0,1-7.56,8.82Zm42.48-16.164a3.69,3.69,0,0,1,2.736,3.2,58.743,58.743,0,0,1,.252,6.192c0,9.18-.216,13.86-.756,15.588a2.718,2.718,0,0,0-.18,1.008c0,1.188,1.44,3.132,2.3,3.132a.817.817,0,0,0,.648-.324,2.3,2.3,0,0,0,.18-1.224c0-.54,0-1.152-.036-1.908-.072-3.024-.072-3.024-.072-4.1V48.192c0-1.08,0-2.2-.036-4.464a20.723,20.723,0,0,1,8.46,4.68c.936.864.972.864,1.332.864.54,0,.864-.612.864-1.656,0-1.3-.612-2.016-2.232-2.772a32.545,32.545,0,0,0-8.388-2.016c0-4.176.216-6.876.648-7.848.216-.54.216-.54.216-.792,0-.684-.864-1.4-2.376-1.98a7.271,7.271,0,0,0-2.664-.612A1.448,1.448,0,0,0,274.788,31.884Z" transform="translate(-1.224 30.096)" fill="#fff"/>
</svg>
