<svg xmlns="http://www.w3.org/2000/svg" width="131.38" height="19.281" viewBox="0 0 131.38 19.281">
  <path id="パス_22222" data-name="パス 22222" d="M-64.792-8.5q0-4.523,2.426-6.973A7.228,7.228,0,0,1-57-17.6q4.359,0,6.375,2.859a6.19,6.19,0,0,1,1.2,3.223h-3.609a4.875,4.875,0,0,0-.9-1.875,3.67,3.67,0,0,0-2.918-1.125,3.617,3.617,0,0,0-3.105,1.588A7.633,7.633,0,0,0-61.1-8.437a6.7,6.7,0,0,0,1.2,4.354,3.8,3.8,0,0,0,3.053,1.447,3.492,3.492,0,0,0,2.895-1.242,5.4,5.4,0,0,0,.914-2h3.574a7.753,7.753,0,0,1-2.4,4.594A7.02,7.02,0,0,1-56.8.48,7.451,7.451,0,0,1-62.659-1.91,9.569,9.569,0,0,1-64.792-8.5Zm28.123,5.918a4.123,4.123,0,0,0,3.4-1.582,7.069,7.069,0,0,0,1.26-4.5,7.074,7.074,0,0,0-1.26-4.494,4.117,4.117,0,0,0-3.4-1.588,4.172,4.172,0,0,0-3.422,1.582,7,7,0,0,0-1.277,4.5,7,7,0,0,0,1.277,4.5A4.172,4.172,0,0,0-36.669-2.578ZM-28.4-8.66q0,4.652-2.613,7.125A7.532,7.532,0,0,1-36.669.48a7.532,7.532,0,0,1-5.66-2.016q-2.625-2.473-2.625-7.125,0-4.746,2.625-7.125a7.532,7.532,0,0,1,5.66-2.016,7.532,7.532,0,0,1,5.66,2.016Q-28.4-13.406-28.4-8.66Zm5.1-8.613h3.785l6.879,12.059V-17.273h3.363V0h-3.609l-7.055-12.27V0H-23.3ZM-4.26-8.5q0-4.523,2.426-6.973A7.228,7.228,0,0,1,3.533-17.6q4.359,0,6.375,2.859a6.19,6.19,0,0,1,1.2,3.223H7.494a4.875,4.875,0,0,0-.9-1.875A3.67,3.67,0,0,0,3.674-14.52,3.617,3.617,0,0,0,.568-12.932,7.633,7.633,0,0,0-.568-8.437a6.7,6.7,0,0,0,1.2,4.354A3.8,3.8,0,0,0,3.686-2.637,3.492,3.492,0,0,0,6.58-3.879a5.4,5.4,0,0,0,.914-2h3.574a7.753,7.753,0,0,1-2.4,4.594A7.02,7.02,0,0,1,3.732.48,7.451,7.451,0,0,1-2.127-1.91,9.569,9.569,0,0,1-4.26-8.5ZM29-14.215H19.855v3.668h8.391v3H19.855v4.441h9.563V0H16.328V-17.273H29Zm15.361,2.438a2.338,2.338,0,0,0-.709-1.922,3.077,3.077,0,0,0-1.986-.574H38.3v5.086h3.363a2.916,2.916,0,0,0,1.986-.621A2.487,2.487,0,0,0,44.357-11.777Zm3.574-.023q0,3.059-1.547,4.324a6.812,6.812,0,0,1-4.418,1.266H38.3V0H34.712V-17.273h7.523a6.128,6.128,0,0,1,4.148,1.336A5.176,5.176,0,0,1,47.931-11.8Zm17.658-5.473v3.059H60.421V0H56.788V-14.215H51.6v-3.059Z" transform="translate(65.292 18.301)" fill="none" stroke="#999" stroke-width="1"/>
</svg>
