<svg xmlns="http://www.w3.org/2000/svg" width="127" height="350" viewBox="0 0 127 350"><g transform="translate(-433 -1852)"><text transform="translate(548 1879)" fill="#707070" font-size="24" font-family="TenMincho-Regular, Ten Mincho"><tspan x="-12" y="0">両</tspan><tspan x="-12" y="35">性</tspan><tspan x="-12" y="70">イ</tspan><tspan x="-12" y="105">オ</tspan><tspan x="-12" y="140">ン</tspan><tspan x="-12" y="175">活</tspan><tspan x="-12" y="210">性</tspan><tspan x="-12" y="245">剤</tspan><tspan x="-12" y="280">と</tspan></text><text transform="translate(447 1879)" fill="#707070" font-size="24" font-family="TenMincho-Regular, Ten Mincho"><tspan x="-13.008" y="0">W</tspan><tspan x="-12" y="35">の</tspan><tspan x="-12" y="70">効</tspan><tspan x="-12" y="105">果</tspan><tspan x="-12" y="140">で</tspan><tspan x="-12" y="175">除</tspan><tspan x="-12" y="210">菌</tspan><tspan x="-12" y="245">＆</tspan><tspan x="-12" y="280">消</tspan><tspan x="-12" y="315">臭</tspan></text><text transform="translate(498 1879)" fill="#707070" font-size="24" font-family="TenMincho-Regular, Ten Mincho"><tspan x="-12" y="0">緑</tspan><tspan x="-12" y="35">茶</tspan><tspan x="-12" y="70">フ</tspan><tspan x="-12" y="105">ラ</tspan><tspan x="-12" y="140">ボ</tspan><tspan x="-12" y="175">ノ</tspan><tspan x="-12" y="210">イ</tspan><tspan x="-12" y="245">ド</tspan></text></g></svg>