<?xml version="1.0" encoding="utf-8"?>
<!-- Generator: Adobe Illustrator 26.3.1, SVG Export Plug-In . SVG Version: 6.00 Build 0)  -->
<svg version="1.1" id="レイヤー_1" xmlns="http://www.w3.org/2000/svg" xmlns:xlink="http://www.w3.org/1999/xlink" x="0px"
	 y="0px" viewBox="0 0 122 289.1" style="enable-background:new 0 0 122 289.1;" xml:space="preserve">
<style type="text/css">
	.st0{fill:#141414;}
</style>
<path id="合体_8" class="st0" d="M2.5,287.9c3.8-0.7,6.4-1.8,7.2-4.2h-7c-0.3,0-0.4-0.1-0.4-0.4c0-0.3,0.2-0.4,0.4-0.4h7.2
	c0.1-0.5,0.1-1,0-1.4c0-0.2,0-0.3,0.1-0.3H7.1v0.5c0,0.4-0.3,0.6-0.9,0.6c-0.3,0-0.5-0.2-0.6-0.4c0,0,0-0.1,0-0.1
	c0-1.7,0.2-7.7-0.1-9.9c0-0.2,0.1-0.3,0.3-0.3c0,0,0,0,0,0c0.7,0.1,1.3,0.4,1.8,0.8h1.8c0.1-0.6,0.2-1.2,0.2-1.7
	c0-0.2,0.1-0.3,0.4-0.3c0.8,0.1,1.9,0.4,1.9,0.8c0,0.3-0.5,0.4-0.9,0.5c-0.1,0.3-0.3,0.5-0.4,0.8h4.2c0.3-0.4,0.7-0.8,0.9-0.8
	c0.4,0,1.6,0.9,1.6,1.3c0,0.3-0.3,0.4-0.7,0.6c-0.1,1.9,0,6.9,0,7.9c0,0.6-0.3,0.8-0.9,0.8c-0.5,0-0.6-0.4-0.6-0.7v-0.3h-4.5
	c0.7,0.1,1.7,0.3,1.7,0.6c0,0.2-0.1,0.4-0.8,0.6c0,0.2,0,0.4,0,0.6h5.6c0.4-0.7,1-1.4,1.3-1.4c0.4,0,1.8,1.3,1.8,1.8
	c0,0.3-0.4,0.5-1,0.5h-6.6c1.3,2.3,3.9,2.9,7.4,3c0.6,0,0.6,0.5,0.1,0.6c-0.4,0.1-0.7,0.4-0.9,0.7c-0.2,0.4-0.6,0.6-1,0.4
	c-3.2-0.4-5.4-1.8-6.5-4.7h-0.4c-0.8,3.2-4.2,4.4-8.7,4.9c0,0-0.1,0-0.1,0C2,288.6,1.9,288,2.5,287.9z M7.1,280.4h8l0-1.9H7.1V280.4
	z M7.1,277v0.6h8.1v-1.8H7.1L7.1,277z M7.1,275h8.1c0-0.7,0-1.4,0-1.8h-8C7.1,273.6,7.1,274.3,7.1,275z M8.7,258.1
	c0-0.5,0.1-4.9,0.1-5.8c0.1-2,0-4.1-0.2-6.1c0-0.2,0.1-0.4,0.3-0.3c0.6,0.2,1.2,0.4,1.7,0.7h2.1c0-1.9,0-4.8-0.1-5.9
	c0-0.2,0.1-0.3,0.3-0.3c0.3,0,2.3,0.1,2.3,0.6c0,0.4-0.4,0.6-1.1,0.7v4.8h2.5c0.3-0.4,0.8-0.9,0.9-0.9c0.5,0,1.8,1.1,1.8,1.4
	c0,0.3-0.4,0.5-0.8,0.6c-0.1,2.3,0,6,0,9c0,1-0.8,1.7-1.8,1.7c0,0,0,0-0.1,0c-0.8,0-0.3-0.8-1.6-1.2c-0.4-0.1-0.3-0.6,0-0.6
	c0.2,0,0.9,0.1,1.3,0.1c0.5,0,0.7-0.2,0.7-0.7c0-0.6,0-1.5,0-2.4h-7c0,1.6,0,3.8,0,4.2c0,0.5-0.3,0.6-1,0.6
	C9,258.6,8.7,258.4,8.7,258.1L8.7,258.1z M10.2,252.1v0.9h7v-2.4h-7L10.2,252.1z M10.2,249.8h7v-2.3h-7
	C10.3,247.9,10.2,248.8,10.2,249.8L10.2,249.8z M3.2,257.5c0.1-0.6,0.1-1.2,0-1.8C3,255,2.5,254.8,2,254.3c-0.1-0.1-0.2-0.3-0.1-0.5
	c0.1-0.1,0.2-0.2,0.4-0.1c0.3,0.1,0.7,0.2,1,0.3c0.2,0.1,0.3,0,0.5-0.3c0.4-0.6,1.2-2.3,1.6-2.9c0-0.2,0.3-0.4,0.5-0.3
	c0.2,0,0.4,0.3,0.3,0.5c0,0,0,0.1,0,0.1c-0.4,1.3-1.3,3.3-1.3,3.9c0,0.6,0.3,1.2,0.3,2.2c0,0.9-0.5,1.3-1.1,1.3
	C3.6,258.4,3.2,258,3.2,257.5C3.2,257.6,3.2,257.5,3.2,257.5z M107.9,253.9c-0.1-2.2,1.1-3.7,3.1-4.7c-0.5-0.4-0.7-1.1-0.7-1.7
	c0-0.9,0.1-2.9,0.1-3.7c0-0.6-0.1-0.8-0.4-1.1c-0.4-0.3-0.7-0.4-0.7-0.6c0-0.3,0.5-0.5,0.9-0.5c0.9,0,2,0.6,2,1.5
	c0,0.7-0.6,2.9-0.6,4.2c0,0.8,0.2,1.2,0.8,1.2s1-0.5,2-0.5c0.8,0,1.5,0.3,1.5,0.8c0,0.6-0.7,0.9-1.8,1c-0.5,0-1.3,0.1-2,0.1
	c-1.7,0.1-3,1.6-2.9,3.3c0.1,1.9,1.6,2.2,3.3,2.2c1.5,0,2.6-0.5,3.3-0.5c0.7,0,1.2,0.3,1.2,0.7c0,1-2.3,1.3-4.5,1.3
	C110.6,257.1,108,256.4,107.9,253.9L107.9,253.9z M3.3,247.6c-0.3-0.4-0.7-0.8-1-1.1c-0.4-0.4-0.2-0.8,0.4-0.7
	c1.2,0.1,2.5,0.6,2.7,1.6c0.1,0.5-0.2,1-0.7,1.2c0,0-0.1,0-0.1,0c0,0-0.1,0-0.1,0C4,248.6,3.7,248.2,3.3,247.6L3.3,247.6z M15.7,245
	c0.7-1,1.3-2.1,1.7-3.2c0.1-0.2,0.2-0.3,0.4-0.3c0.7,0.2,1.9,0.9,1.9,1.3c0,0.3-0.4,0.4-1,0.3c-0.7,0.8-1.5,1.6-2.4,2.3
	c-0.1,0.1-0.2,0.1-0.4,0.1C15.7,245.6,15.6,245.3,15.7,245L15.7,245z M9.2,243.9c-0.3-0.5-0.6-0.9-0.8-1.4c-0.3-0.4-0.1-0.9,0.5-0.7
	c1.2,0.5,2.3,1.3,2.3,2.2c0.1,0.5-0.3,0.9-0.8,1c0,0-0.1,0-0.1,0h0C9.7,245.1,9.5,244.6,9.2,243.9L9.2,243.9z M4.6,243
	c-0.3-0.4-0.7-0.8-1-1.2c-0.3-0.4-0.2-0.8,0.4-0.7c1.2,0.2,2.5,0.7,2.7,1.7c0.1,0.5-0.2,1-0.6,1.1c0,0-0.1,0-0.2,0c0,0-0.1,0-0.1,0
	C5.3,244,5,243.5,4.6,243L4.6,243z M102.9,228c0.9-0.7,1.5-1.6,2-2.7c0.5-2,0.6-4,0.3-6c0-0.2,0-0.3,0.3-0.3c0.6,0,2.1,0.2,2.1,0.6
	c0,0.3-0.2,0.4-0.8,0.6v0.6h4.6c0-0.5-0.1-1-0.1-1.6c0-0.1,0-0.2,0.2-0.3c0,0,0.1,0,0.1,0c0.6,0,2.1,0.1,2.1,0.5
	c0,0.3-0.3,0.5-0.9,0.5c0,0.7,0,3.3,0,3.8c0,0.6,0,3.6,0,4.1c0,0.4-0.3,0.6-0.9,0.6c-0.3,0-0.5-0.2-0.6-0.4c0,0,0-0.1,0-0.1
	c0-0.3,0.1-2.3,0.1-3.5h-4.9c-0.1,0.4-0.2,0.8-0.3,1.1c-0.6,1.2-1.6,2.2-2.8,2.9c-0.1,0.1-0.2,0.1-0.3,0.1
	C102.7,228.7,102.5,228.3,102.9,228L102.9,228z M106.6,223.8h4.8v-0.1c0-0.3,0-1.2,0-2.1h-4.6C106.7,222.4,106.7,223.1,106.6,223.8
	L106.6,223.8z M116.9,227.4c-0.5-0.2-0.4-0.7,0.1-0.7c0.4,0,0.8,0.1,1.1,0.1c0.5,0,0.7-0.2,0.7-0.8c0.1-1.4,0-5,0-7.1
	c0-1.5,0-5.6-0.2-7.8c0-0.2,0.1-0.3,0.4-0.3c1.2,0,2.3,0.2,2.3,0.6c0,0.3-0.4,0.5-1,0.7c-0.1,3.4,0,9.8,0,14.6
	c0,1.1-0.7,1.8-1.5,1.8C118.1,228.6,118.3,227.9,116.9,227.4L116.9,227.4z M4.3,223.6c0-0.9,0.3-1.7,0.9-2.3
	c0.7-0.7,1.5-1.2,2.3-1.7c-0.8-0.9-1.3-2-1.3-3.1c0.1-1.9,1.6-3.4,3.5-3.4c1.5-0.2,2.8,0.9,3,2.4c0,0.1,0,0.2,0,0.3
	c0,1.3-0.9,2.3-3.3,3.7c1.8,2.1,3.2,3.6,4.3,4.6c1.1-1.4,1.6-3.1,1.6-4.9c0-0.3-0.1-0.6-0.2-0.9c-0.1-0.3,0.2-0.4,0.4-0.4
	c0.7,0.1,1.3,0.7,1.3,1.4c-0.1,0.7-0.2,1.4-0.5,2c-0.5,1.2-1.2,2.3-2,3.3c1.3,1.1,2.1,1.5,2.7,1.5c0.4,0,0.8-0.1,1.2-0.3
	c0.5-0.2,0.7,0.2,0.3,0.6c-0.6,0.7-1.5,1.1-2.4,1c-1.1,0-1.7-0.5-2.8-1.5l-0.2-0.2c-1.3,1.1-2.9,1.7-4.6,1.8
	c-2.2,0.1-4.1-1.5-4.2-3.7C4.3,223.7,4.3,223.6,4.3,223.6z M6,223.2c0,1.7,1.5,3.1,3.2,3.1c0.1,0,0.2,0,0.2,0c1.1,0,2.2-0.4,3.1-1.1
	c-1.6-1.6-3.1-3.3-4.6-5C6.6,221.1,6,221.9,6,223.2L6,223.2z M7.6,215.9c0,1,0.4,1.9,1.1,2.7l0.2,0.3c1.3-0.9,2.3-1.8,2.3-2.9
	c0.1-1-0.7-1.9-1.7-2c-0.1,0-0.2,0-0.3,0C8.1,213.9,7.6,214.8,7.6,215.9L7.6,215.9z M59.9,225.8c0-0.8,0.4-2.6,0.4-6.5
	c0-1.9,0-3-0.1-4.1c-0.1-0.7-0.2-0.7-0.5-0.9c-0.6-0.3-0.8-0.3-0.8-0.6c0-0.3,0.8-0.6,1.3-0.6c0.7,0,1.9,0.5,1.9,1.1
	c0,0.5-0.3,1-0.4,2.2s-0.1,2.7-0.1,3.9c0,1.8,0.2,5,0.2,5.9c0,0.9-0.3,1.3-0.8,1.3C60.3,227.4,59.9,226.8,59.9,225.8L59.9,225.8z
	 M115.2,224.2c0-0.6,0.1-4.6,0.1-5.5c0-0.7,0-4.4-0.2-5.7c0-0.1,0-0.2,0.2-0.3c0,0,0.1,0,0.1,0c0.9,0,2.2,0.1,2.2,0.6
	c0,0.3-0.4,0.5-1,0.6c0,0.9,0,4.1,0,4.8c0,0.8,0,4.8,0,5.4c0,0.4-0.3,0.6-0.9,0.6C115.5,224.8,115.3,224.6,115.2,224.2
	C115.2,224.3,115.2,224.3,115.2,224.2L115.2,224.2z M62.9,219.6c-0.5-0.2-0.4-0.8,0.2-0.8c1.9,0,4,1,4,2.2c0,0.5-0.2,0.9-0.8,0.9
	C65.7,221.9,65.3,220.8,62.9,219.6L62.9,219.6z M103,218.7c1.7-0.4,3.3-1,4.8-1.8c-1.1-0.8-2-2-2.5-3.2h-2c-0.3,0-0.4-0.1-0.4-0.4
	c0-0.3,0.2-0.4,0.4-0.4h5c0-0.7,0-1.4,0-2.1c0-0.1,0.1-0.3,0.2-0.3c0,0,0.1,0,0.1,0c0.3,0,2,0.1,2,0.6c0,0.3-0.4,0.5-0.9,0.6v1.3
	h2.5c0.4-0.6,0.9-1.2,1.1-1.2c0.4,0,1.6,1.1,1.6,1.6c0,0.3-0.3,0.4-0.9,0.4h-0.7c0,0,0,0.1,0,0.1c0,0.2-0.3,0.4-0.9,0.4
	c-0.6,1-1.3,1.8-2.2,2.5c1.4,0.4,2.9,0.6,4.4,0.7c0.5,0,0.6,0.4,0,0.6c-0.3,0.1-0.6,0.3-0.8,0.5c-0.2,0.3-0.4,0.4-0.9,0.3
	c-1.4-0.2-2.8-0.6-4-1.2c-1.8,1-3.7,1.6-5.7,1.8c0,0-0.1,0-0.1,0C102.5,219.4,102.5,218.8,103,218.7L103,218.7z M108.8,216.2
	c0.9-0.7,1.6-1.5,2.1-2.5h-4.9C106.7,214.8,107.7,215.6,108.8,216.2L108.8,216.2z M65.4,216c-0.4-0.4-0.8-0.8-1.2-1.2
	c-0.1-0.1-0.2-0.3-0.1-0.4c0.1-0.1,0.2-0.2,0.3-0.1c1.3,0.1,2.7,1,2.7,1.9c0,0.4-0.3,0.7-0.6,0.7c0,0,0,0,0,0
	C66,216.9,65.9,216.5,65.4,216L65.4,216z M67.3,214.4c-0.5-0.5-0.9-0.9-1.5-1.2c-0.3-0.2-0.2-0.6,0.2-0.6c1.3,0,2.8,0.7,2.8,1.7
	c0,0.4-0.2,0.7-0.6,0.7c0,0-0.1,0-0.1,0C67.9,215,67.7,214.8,67.3,214.4L67.3,214.4z M105.3,198c0-0.9,0.2-6.8,0.2-8.3
	c0.1-2.9,0-5.9-0.3-8.8c0-0.2,0.1-0.3,0.3-0.3c1.3,0,2.4,0.1,2.4,0.6c0,0.3-0.4,0.6-1,0.7c0,1.4,0,6.6,0,7.4c0,1.5,0.1,7.8,0.1,8.6
	c0,0.5-0.3,0.7-1,0.7c-0.3,0-0.6-0.2-0.6-0.5C105.3,198.1,105.3,198,105.3,198L105.3,198z M3.7,198c0-2.1,0.2-10.7-0.1-13.3
	c0-0.2,0.1-0.3,0.3-0.3c0,0,0,0,0,0c0.7,0.1,1.3,0.4,1.9,0.8h11.1c0.3-0.4,0.6-0.7,0.8-0.7c0.4,0,1.7,0.9,1.7,1.4
	c0,0.3-0.4,0.5-0.8,0.7c-0.1,2.4,0.1,9.8,0.1,11c0,0.6-0.4,0.8-0.9,0.8c-0.5,0-0.6-0.4-0.6-0.7v-0.6h-12v0.8c0,0.5-0.3,0.7-0.9,0.7
	C3.9,198.6,3.7,198.4,3.7,198L3.7,198z M5.2,191.4c0,0.4,0,3.1,0,4.9h12c0-2.8,0.1-8.8,0-10.2h-12C5.2,187.2,5.2,190.7,5.2,191.4
	L5.2,191.4z M108.5,197.4c-0.3,0-0.4-0.1-0.4-0.4c0-0.3,0.2-0.4,0.4-0.4h5.5c0-1.1,0-3,0-5.1h-3.9c-0.3,0-0.4-0.1-0.4-0.4
	c0-0.3,0.2-0.4,0.4-0.4h3.9c0-1.4,0-2.8,0-4.1h-2.7c-0.5,1-1.2,2-2,2.8c-0.4,0.4-0.9,0.1-0.6-0.4c1.3-2,2.1-4.3,2.3-6.7
	c0-0.2,0.1-0.3,0.4-0.2c0.6,0.1,2.1,0.7,2.1,1.1c0,0.3-0.4,0.4-1,0.4c-0.2,0.6-0.4,1.3-0.8,2.2h2.4c0-2.2-0.1-4-0.2-4.7
	c0-0.2,0.1-0.3,0.3-0.3c0.3,0,2.4,0.1,2.4,0.6c0,0.4-0.4,0.6-1.1,0.7v3.7h2.4c0.4-0.6,1-1.4,1.2-1.4c0.4,0,1.7,1.2,1.7,1.7
	c0,0.3-0.4,0.5-1,0.5h-4.4v4.1h2c0.4-0.7,1-1.4,1.3-1.4c0.4,0,1.7,1.2,1.7,1.7c0,0.3-0.4,0.5-1,0.5h-4v5.1h2.9
	c0.4-0.6,1-1.4,1.3-1.4c0.4,0,1.8,1.2,1.8,1.7c0,0.3-0.4,0.5-1,0.5L108.5,197.4z M62.4,195.5c0.1-0.5,0.1-0.9,0.3-1.3
	c0.2-1.4,0.2-2.7,0.1-4.1c0-0.2-0.1-0.4-0.2-0.6c-2,1.9-4.2,3.5-6.7,4.7c-0.8,0.4-1.1-0.4-0.5-0.8c3.7-2.3,7.6-5.8,8.9-8.1
	c0.4-0.7,0.3-0.9-0.3-1.7c-0.4-0.4-0.2-0.6,0.3-0.6c1,0,2.4,1,2.4,1.7c-0.1,0.5-0.3,0.9-0.6,1.2c-0.8,1-1.6,1.9-2.5,2.8
	c0.1,0.1,0.2,0.1,0.3,0.2c0.3,0.3,0.5,0.7,0.5,1.2c0.1,2,0.1,4,0,6.1c0,0.5-0.4,0.9-0.9,0.9c0,0,0,0,0,0
	C62.8,196.9,62.4,196.2,62.4,195.5z M10.6,195.4c0-0.6,0-1.7,0.1-3.4c-1.2,1.4-2.6,2.5-4.3,3.2c-0.5,0.2-0.9-0.2-0.4-0.6
	c1.6-1,2.9-2.3,3.9-3.9H6.6c-0.3,0-0.4-0.1-0.4-0.4c0-0.3,0.2-0.4,0.4-0.4h4.1v-1.5c-1.2,0.2-2.3,0.2-3.5,0.3c-0.6,0-0.7-0.6,0-0.7
	c2.1-0.2,4.2-0.7,6.2-1.5c0.5-0.2,0.6-0.3,0.9,0.1c0.3,0.3,0.6,0.6,0.8,0.9c0.2,0.4-0.1,0.6-0.9,0.3c-0.6,0.2-1.2,0.3-1.8,0.4
	c0.1,0,0.1,0.1,0.1,0.2c0,0.2-0.2,0.3-0.5,0.4v1.2h1.6c0.4-0.5,0.9-1.2,1.1-1.2c0.4,0,1.7,1.1,1.7,1.5c0,0.3-0.3,0.4-1,0.4H12v0.5
	c0,2.1,0.1,3.5,0.1,4.1c0,0.4-0.3,0.7-0.9,0.7C10.7,196,10.6,195.8,10.6,195.4z M13.8,193.5c-0.3-0.4-0.7-0.8-1-1.1
	c-0.3-0.3-0.2-0.8,0.4-0.7c1.2,0.2,2.3,0.8,2.5,1.7c0.1,0.4-0.1,0.9-0.6,1c0,0-0.1,0-0.1,0c0,0-0.1,0-0.1,0
	C14.5,194.5,14.2,194,13.8,193.5L13.8,193.5z M102.6,188.8c-0.1-0.9,0.7-0.9,1-2.2c0.1-0.5,0.2-1.1,0.1-1.6c0-0.5,0.5-0.5,0.7-0.1
	c0.2,0.6,0.4,1.3,0.4,1.9c0.1,1.3-0.5,2.6-1.5,2.7h0C103,189.6,102.6,189.3,102.6,188.8C102.6,188.9,102.6,188.8,102.6,188.8
	L102.6,188.8z M108.4,186.6c-0.5-0.1-0.5-0.6-0.6-1.1c-0.1-0.4-0.2-0.7-0.3-1.1c-0.2-0.5,0.1-0.8,0.7-0.5c0.8,0.5,1.6,1.2,1.4,2
	c-0.1,0.4-0.4,0.7-0.8,0.7C108.6,186.6,108.5,186.6,108.4,186.6L108.4,186.6z M8.2,184.6c0-0.3,0-0.7,0-1.3H2.8
	c-0.3,0-0.4-0.1-0.4-0.4c0-0.3,0.2-0.4,0.4-0.4h5.4c0-0.6-0.1-1.2-0.1-1.6c0-0.2,0.1-0.3,0.3-0.3c0.8,0,2.2,0.1,2.2,0.6
	c0,0.3-0.3,0.5-0.9,0.6v0.7H13c0-0.6-0.1-1.2-0.1-1.6c0-0.2,0.1-0.3,0.3-0.3c0.8,0,2.2,0.1,2.2,0.6c0,0.3-0.3,0.5-0.9,0.6v0.7h2.7
	c0.4-0.7,1-1.4,1.3-1.4c0.4,0,1.9,1.3,1.9,1.8c0,0.3-0.3,0.5-1.1,0.5h-4.9v1.2c0,0.4-0.3,0.6-0.9,0.6c-0.3,0-0.5-0.2-0.6-0.4
	c0,0,0-0.1,0-0.1c0-0.3,0-0.7,0-1.3H9.6v1.3c0,0.4-0.3,0.6-0.9,0.6C8.5,185.1,8.2,184.9,8.2,184.6C8.2,184.6,8.2,184.6,8.2,184.6
	L8.2,184.6z M12.2,168.1c-0.3-0.3-0.8-0.5-1.2-0.6c-0.2,0-0.3-0.2-0.3-0.3c0-0.1,0.1-0.3,0.3-0.3c0,0,0,0,0,0c0.4,0,0.9,0.1,1.3,0.1
	c0.4,0,0.7-0.3,0.7-0.9c0-0.5,0-2.6,0-4.6H8.7c-0.3,0-0.4-0.1-0.4-0.4c0-0.3,0.2-0.4,0.4-0.4H13l0-2.4h-2.7c-0.3,0-0.4-0.1-0.4-0.4
	c0-0.3,0.2-0.4,0.4-0.4h5.2c0.4-0.5,0.8-1.1,1.1-1.1c0.4,0,1.6,1.1,1.6,1.5c0,0.3-0.3,0.4-1,0.4h-2.2c0,0,0,0.1,0,0.1
	c0,0.2-0.2,0.4-0.6,0.5v1.8h2.9c0.4-0.6,0.9-1.2,1.1-1.2c0.4,0,1.7,1.1,1.7,1.6c0,0.3-0.3,0.4-1,0.4h-4.7v5.3c0,1.3-0.7,1.8-1.4,1.8
	C12.5,168.6,12.4,168.4,12.2,168.1L12.2,168.1z M109.8,168c0-1.4,0.1-5.4-0.1-7.3c0-0.1,0.1-0.2,0.2-0.3c0,0,0,0,0.1,0
	c0.5,0.1,1,0.3,1.5,0.6h2.3c0-0.6,0-1.4,0-2.8v-0.8h-5.6c-0.3,0-0.4-0.1-0.4-0.4c0-0.3,0.2-0.4,0.4-0.4h5.6c0-1.1,0-2.4-0.1-3.3
	c-1.5,0.1-2.9,0.2-4.4,0.2c-0.6,0-0.6-0.7-0.1-0.7c3-0.2,6-0.8,8.8-1.8c0.5-0.2,0.5-0.3,0.9,0c0.4,0.3,0.8,0.6,1.1,1
	c0.3,0.4,0,0.7-0.8,0.4c-1.1,0.3-2.1,0.5-3.2,0.6c0,0,0,0.1,0,0.1c0,0.2-0.3,0.4-0.8,0.5c0,0.4,0,1.7,0,2.9h3.3
	c0.4-0.6,0.9-1.3,1.2-1.3c0.4,0,1.8,1.2,1.8,1.7c0,0.3-0.3,0.4-1.1,0.4h-5.2v0.9c0,0.4,0,1.8,0,2.7h2.6c0.3-0.3,0.6-0.7,0.8-0.7
	c0.4,0,1.6,0.9,1.6,1.3c0,0.3-0.3,0.4-0.7,0.6c-0.1,1.5,0,4.7,0,5.4c0,0.6-0.3,0.8-0.9,0.8c-0.3,0-0.6-0.3-0.6-0.6c0,0,0-0.1,0-0.1
	v-0.8h-6.7v0.9c0,0.4-0.3,0.6-0.9,0.6c-0.3,0-0.5-0.1-0.5-0.4C109.8,168.1,109.8,168.1,109.8,168L109.8,168z M111.3,164.7v1.5h6.7
	c0-1.5,0-3.5,0-4.4h-6.7C111.3,162.6,111.3,164.3,111.3,164.7L111.3,164.7z M2.6,168c0-0.7,0.2-6.7,0.2-8.2c0-2,0-6.2-0.3-8.7
	c0-0.2,0.1-0.4,0.3-0.3c0.7,0.2,1.3,0.6,1.9,1h1.9c0.3-0.4,0.7-0.9,1-0.9c0.4,0,1.6,1.1,1.6,1.6c0,0.3-0.3,0.4-0.9,0.6
	c-0.7,1.2-1.9,2.8-2.3,3.6c-0.1,0.2-0.1,0.3,0.1,0.5c1.2,1.1,1.9,2.8,1.8,4.5c0,1.5-0.5,2.9-2,2.9c-0.3,0-0.5-0.2-0.6-0.4
	c-0.1-0.3-0.4-0.5-0.7-0.6c-0.5-0.2-0.4-0.7,0-0.7c0.2,0,0.6,0.1,0.9,0.1c0.9,0,1-0.6,1-2c0-1.3-0.5-2.5-1.4-3.4
	c-0.4-0.4-0.4-0.5-0.1-1c0.7-1.3,1.2-2.6,1.7-3.9H4.1c0,1.4-0.1,5.1,0,6.8c0,1.9,0,7.6,0,8.5c0,0.5-0.3,0.7-0.9,0.7
	c-0.3,0-0.6-0.2-0.6-0.5C2.6,168.1,2.6,168,2.6,168L2.6,168z M104.2,167.4c0.1-0.6,0.1-1.2,0-1.8c-0.2-0.6-0.6-1.1-1.2-1.4
	c-0.1-0.1-0.2-0.3-0.1-0.5c0.1-0.1,0.2-0.2,0.4-0.1c0.3,0.1,0.7,0.2,0.9,0.3s0.3,0,0.5-0.3c0.4-0.6,1.1-2.1,1.5-2.7
	c0.3-0.4,0.9-0.2,0.7,0.3c-0.3,1.2-1.2,3.1-1.2,3.6c0,0.6,0.3,1.1,0.3,2.1c0,0.9-0.4,1.3-1,1.3C104.5,168.3,104.2,167.9,104.2,167.4
	C104.2,167.4,104.2,167.4,104.2,167.4L104.2,167.4z M7.2,166.7c1.1-1,2-2.2,2.6-3.6c0.1-0.2,0.2-0.3,0.4-0.2c0,0,0,0,0,0
	c0.6,0.3,1.6,1,1.5,1.4c0,0.3-0.4,0.3-1,0.2c-0.8,1.1-1.9,2.1-3.2,2.7c-0.1,0.1-0.2,0.1-0.3,0.1C7.1,167.3,6.9,167,7.2,166.7z
	 M17.5,165.6c-0.4-0.6-0.9-1.1-1.3-1.6c-0.3-0.3-0.1-0.8,0.4-0.6c1.2,0.3,2.9,1.3,3.1,2.5c0.1,0.5-0.1,1-0.6,1.1c0,0-0.1,0-0.1,0
	c0,0-0.1,0-0.1,0C18.3,166.9,18,166.3,17.5,165.6L17.5,165.6z M55.9,165.7c2.6-1.5,4.9-3.4,6.9-5.7c0.9-1.1,1.7-2.4,2.2-3.8
	c0.2-0.6,0.2-0.8-0.4-1.3c-0.3-0.3-0.7-0.5-0.5-0.8c0.2-0.3,0.8-0.3,1.2-0.2c1,0.3,1.8,1,1.8,1.4c-0.1,0.6-0.3,1.1-0.6,1.6
	c-0.7,1.5-1.5,2.9-2.6,4.1c-2,2.4-4.7,4.3-7.6,5.4c-0.1,0-0.2,0.1-0.3,0.1C55.4,166.5,55.4,166,55.9,165.7L55.9,165.7z M104.1,157.6
	c-0.3-0.4-0.6-0.7-1-1.1c-0.4-0.4-0.2-0.8,0.4-0.7c1.2,0.1,2.4,0.6,2.6,1.6c0.1,0.5-0.1,1-0.6,1.1c0,0-0.1,0-0.1,0c0,0-0.1,0-0.1,0
	C104.8,158.5,104.5,158.1,104.1,157.6L104.1,157.6z M7.5,157.5c2.4-1.7,4.3-4,5.4-6.7c0.1-0.2,0.2-0.3,0.4-0.2
	c0.8,0.1,1.7,0.5,1.7,0.8c0,0.2-0.3,0.3-0.7,0.3l-0.1,0.2c1.5,1.9,3.7,3.2,6.1,3.7c0.5,0.1,0.5,0.4,0.1,0.6
	c-0.3,0.1-0.5,0.3-0.7,0.6c-0.2,0.3-0.6,0.4-0.9,0.2c0,0,0,0,0,0c-2-1-3.8-2.5-4.9-4.4c-1.5,2.3-3.5,4.3-6,5.6
	c-0.1,0-0.2,0.1-0.3,0.1C7.3,158.2,7.2,157.8,7.5,157.5L7.5,157.5z M105.7,153c-0.3-0.4-0.6-0.8-1-1.1c-0.3-0.4-0.2-0.8,0.4-0.7
	c1.2,0.2,2.4,0.7,2.6,1.7c0.1,0.5-0.2,1-0.7,1.1c0,0-0.1,0-0.1,0c0,0-0.1,0-0.1,0C106.4,154,106.1,153.5,105.7,153L105.7,153z
	 M60.8,136.3c-0.3-0.3-0.6-0.6-1-0.9c-0.3-0.2-0.2-0.5,0.2-0.5c0.3,0,0.8,0.1,1,0.1c0.2,0,0.4-0.1,0.4-0.3c0,0,0,0,0-0.1
	c0.1-0.7,0.1-4,0.1-5.8c-2.4,0.4-3.5,0.8-4.1,0.8c-1-0.2-1.7-0.9-1.8-1.9c0-0.3,0.3-0.5,0.5-0.3c0.4,0.4,1,0.6,1.5,0.7
	c1.3-0.1,2.6-0.2,3.8-0.5c0-0.8,0-2,0-2.3c0-0.5-0.2-0.7-0.7-0.9c-0.4-0.2-0.7-0.3-0.7-0.5c0-0.3,0.8-0.6,1.2-0.6c0.8,0,2,0.5,2,1
	c-0.1,0.4-0.2,0.8-0.3,1.3c-0.1,0.6-0.2,1.2-0.2,1.8c1.7-0.3,3.4-0.8,4-0.8c0.9,0,1.6,0.5,1.6,1.1c0,0.4-0.5,0.5-1.4,0.5
	c-1.4,0-2.8,0.1-4.2,0.3c0,3.6,0.1,6,0.1,6.7c0.1,0.8-0.4,1.5-1.2,1.7C61.2,137,61,136.7,60.8,136.3L60.8,136.3z M9.7,131.9
	c0.1-2.3,1-4.4,2.5-6.1c0.4-0.4,0.2-0.5-0.3-0.4c-1.8,0.6-3.5,1.4-5.1,2.4c-0.7,0.5-1.4,0.8-2.2,0.9c-1.2,0-2.2-0.9-2.3-2.1
	c0-0.3,0.2-0.4,0.5-0.2c0.5,0.3,1,0.5,1.5,0.6c0.7,0,1.3-0.1,1.9-0.4c1.2-0.5,3.5-1.4,5.6-2.2c1.5-0.6,3-0.9,4.6-1
	c0.8,0,1.7,0.3,1.7,0.9c0,0.4-0.3,0.7-1,0.7c-0.9-0.1-1.7-0.1-2.6,0.2c-2,0.8-3.6,3.7-3.6,6.2c0,3,2.2,3.7,4.8,3.4
	c0.8-0.1,1.3,0.2,1.2,0.6c0,0.7-0.7,1-1.7,1c-0.2,0-0.5,0-0.7,0C11.7,136.6,9.7,134.9,9.7,131.9L9.7,131.9z M106.5,133.6
	c-0.1-0.4,0.2-0.5,0.5-0.4s0.8,0.5,1.1,0.6c0.5,0.3,1.2,0.2,1.7,0c3.4-1.7,6.4-4,9-6.7c0.1-0.2,0.4-0.2,0.6-0.1
	c0.2,0.1,0.2,0.4,0.1,0.6c-2.3,3.1-5.3,5.7-8.8,7.5c-0.5,0.4-1.1,0.6-1.7,0.7C107.7,135.6,106.8,134.7,106.5,133.6L106.5,133.6z
	 M55,134.4c0-0.7,0.9-0.8,1.8-1.3c0.7-0.4,1.3-1,1.7-1.7c0.1-0.2,0.3-0.2,0.5-0.1c0.1,0.1,0.2,0.2,0.2,0.4c-0.2,1.8-2,3.5-3.4,3.5
	C55.4,135.2,55,134.9,55,134.4C55,134.5,55,134.5,55,134.4L55,134.4z M67.1,133.4c-0.7-0.6-1.4-1.1-2.1-1.7
	c-0.3-0.2-0.2-0.7,0.3-0.6c1.8,0.2,4.4,1.5,4.4,3.1c0,0.4-0.3,0.8-0.7,0.8c0,0,0,0,0,0C68.3,134.9,68,134.3,67.1,133.4L67.1,133.4z
	 M16.2,130c-0.3-0.4-0.8-0.8-1.2-1.2c-0.1-0.1-0.2-0.3-0.1-0.4c0.1-0.1,0.2-0.2,0.3-0.1c1.3,0.1,2.7,1,2.7,1.9
	c0,0.4-0.3,0.7-0.6,0.7c0,0,0,0-0.1,0C16.8,130.9,16.6,130.6,16.2,130L16.2,130z M18.1,128.5c-0.5-0.5-0.9-0.9-1.5-1.2
	c-0.3-0.2-0.2-0.6,0.2-0.6c1.3,0,2.8,0.7,2.8,1.7c0,0.4-0.2,0.7-0.6,0.7c0,0-0.1,0-0.1,0C18.6,129,18.4,128.9,18.1,128.5L18.1,128.5
	z M109.2,128c-0.7-0.8-1.4-1.5-2.2-2.2c-0.5-0.4-0.2-0.8,0.4-0.7c1.3,0.2,2.5,0.8,3.4,1.8c0.6,0.7,0.6,1.7,0,2
	c-0.1,0-0.2,0.1-0.3,0.1C110.1,129,109.8,128.7,109.2,128L109.2,128z M67.1,125c-0.4-0.4-0.8-0.8-1.2-1.2c-0.1-0.1-0.2-0.3-0.1-0.4
	c0.1-0.1,0.2-0.2,0.3-0.1c1.3,0.1,2.7,1,2.7,1.9c0,0.4-0.3,0.7-0.6,0.7c0,0,0,0,0,0C67.7,125.9,67.5,125.6,67.1,125L67.1,125z
	 M69,123.5c-0.5-0.5-0.9-0.9-1.5-1.2c-0.3-0.2-0.2-0.6,0.2-0.6c1.3,0,2.8,0.7,2.8,1.7c0,0.4-0.2,0.7-0.6,0.7c0,0-0.1,0-0.1,0
	C69.5,124,69.3,123.9,69,123.5L69,123.5z M10.4,108c0-0.7,0.1-2.2,0.1-4.9c-2.1,2.5-4.9,4.2-8,5.1c-0.6,0.2-0.9-0.3-0.3-0.6
	c2.7-1.2,5.1-3,6.9-5.4H2.6c-0.3,0-0.4-0.1-0.4-0.4c0-0.3,0.2-0.4,0.4-0.4h7.9v-2.3H6.8v0.9c0,0.4-0.3,0.6-0.9,0.6
	c-0.3,0-0.5-0.2-0.6-0.4c0,0,0-0.1,0-0.1c0-1.6,0.2-6.7-0.1-8.7c0-0.1,0.1-0.3,0.2-0.3c0,0,0,0,0,0c0.6,0.1,1.2,0.4,1.8,0.8h8
	c0.3-0.4,0.7-0.8,0.9-0.8c0.4,0,1.6,0.9,1.6,1.3c0,0.3-0.3,0.4-0.7,0.6c-0.1,1.6,0,5.7,0,6.5c0,0.6-0.3,0.8-0.9,0.8
	c-0.5,0-0.6-0.4-0.6-0.7v-0.4h-3.8v2.3H17c0.4-0.7,1-1.4,1.3-1.4c0.4,0,1.9,1.3,1.9,1.8c0,0.3-0.4,0.5-1.1,0.5h-6.5
	c1.8,2.3,4.5,3.3,7.4,3.8c0.6,0.1,0.5,0.5,0.1,0.6c-0.3,0.1-0.6,0.3-0.8,0.6c-0.1,0.4-0.6,0.5-0.9,0.4c0,0,0,0,0,0
	c-2.7-0.8-5-2.7-6.4-5.2c0,3,0.1,4.8,0.1,5.5c0,0.4-0.3,0.7-1,0.7c-0.3,0-0.5-0.2-0.6-0.5C10.4,108.1,10.4,108,10.4,108L10.4,108z
	 M11.9,98.3h3.9l0-2.5h-3.9V98.3z M6.8,96l0,2.3h3.7v-2.5H6.8L6.8,96z M12.4,92.7c0,0.2-0.2,0.3-0.5,0.4v2h3.9c0-1,0-1.8,0-2.4
	L12.4,92.7L12.4,92.7z M6.8,95h3.7v-2.4H6.8C6.8,93.1,6.8,94.2,6.8,95L6.8,95z M58.3,106.2c3.2-1.4,5.8-3.9,7.2-7.2
	c0.1-0.3,0.1-0.4-0.4-0.4c-1.6,0.3-3.3,0.6-4.9,1c-0.6,0.2-1.3,0.4-1.9,0.5c-0.9-0.2-1.7-1-1.8-1.9c-0.1-0.4,0.3-0.6,0.6-0.3
	c0.3,0.4,0.8,0.6,1.3,0.6c1.1,0,5.3-0.8,6.4-1c0.5-0.1,0.7-0.3,1-0.3c0.9,0,2.1,0.9,2.1,1.4c0,0.4-0.6,0.7-0.8,1.2
	c-1.9,3.2-4.3,5.9-8.5,7.2c-0.1,0-0.2,0-0.2,0C57.8,107.1,57.7,106.5,58.3,106.2L58.3,106.2z M111.8,105.2c-0.3-0.3-0.1-0.6,0.3-0.5
	c0.4,0.1,0.8,0.1,1.2,0.1c0.3,0,0.5-0.2,0.5-0.6c0.1-0.7-0.1-4.4-0.1-6.4c-1.5,0.2-3.4,0.5-4.2,0.7c-0.7,0.2-1.3,0.3-2,0.4
	c-1-0.2-1.7-0.9-1.8-1.9c0-0.2,0.1-0.4,0.3-0.4c0.1,0,0.2,0,0.3,0.1c0.5,0.4,1,0.6,1.6,0.7c0.7,0,3.7-0.4,5.7-0.7
	c0-1.1,0-1.9-0.1-2.5c0-0.4-0.2-0.5-0.6-0.7s-0.6-0.3-0.6-0.5c0-0.3,0.6-0.6,1.1-0.6c0.7,0,1.9,0.4,1.9,0.9c0,0.4-0.1,0.8-0.2,1.4
	c-0.1,0.6-0.1,1.1-0.1,1.7c0.8-0.2,1.7-0.4,2.5-0.5c0.6,0,1.5,0.3,1.5,1c0,0.4-0.3,0.5-0.8,0.5c-0.7,0-2,0.1-3.2,0.2
	c0.1,2.5,0.3,6.3,0.3,7.1c0,0.4,0,0.8-0.2,1.1c-0.2,0.3-0.6,0.9-1.1,0.9C113.3,106.8,112.9,106.3,111.8,105.2L111.8,105.2z
	 M105.1,105.2c2.3-1.4,4.8-3.6,5.5-4.8c0.2-0.3,0.2-0.7-0.1-0.9c-0.3-0.4-0.1-0.6,0.5-0.5c0.7,0.1,1.3,0.6,1.5,1.3
	c0,0.5-0.3,0.9-0.6,1.2c-1.8,1.9-4,3.4-6.4,4.5c-0.1,0-0.2,0.1-0.3,0.1C104.8,106.1,104.6,105.6,105.1,105.2L105.1,105.2z
	 M58.6,94.2c-0.2-0.4,0-0.6,0.5-0.4c0.5,0.3,1,0.4,1.6,0.5c1.7,0,3-0.7,3.7-0.7c0.7,0,1.3,0.3,1.3,0.6c0,0.4-0.3,0.6-0.8,0.8
	c-1.3,0.4-2.6,0.7-3.9,0.7C59.9,95.6,59,95.1,58.6,94.2L58.6,94.2z M9,77.9c3.8-2.6,5.2-5.3,5.3-10.2c0-0.5,0-1,0-1.5h-2.5
	c-0.3,0-0.4-0.1-0.4-0.4c0-0.3,0.2-0.4,0.4-0.4h2.5c0-1.5-0.1-2.9-0.2-4.3c0-0.2,0.1-0.3,0.3-0.3c0.8,0,2.2,0.2,2.2,0.6
	c0,0.3-0.4,0.5-0.9,0.6c0,1.1,0,2.3,0,3.5H18c0.3-0.4,0.7-0.8,0.9-0.8c0.4,0,1.7,0.9,1.7,1.2c0,0.2-0.3,0.5-0.7,0.7
	c0,2.8-0.1,7.8-1.1,9.8c-0.4,1.2-1.6,2-2.8,1.9c-0.4,0-0.7-0.2-0.8-0.5c-0.2-0.3-0.5-0.5-0.8-0.6C14,77,13.9,76.8,14,76.6
	c0-0.2,0.2-0.3,0.4-0.2c0.5,0.1,1.1,0.1,1.6,0.2c0.6,0,1.2-0.4,1.4-1c0.9-1.8,1.1-6.4,0.9-9.5h-2.7c0,0.6,0,1.2,0,1.8
	c-0.1,3.7-1,8-6.3,10.6c-0.1,0-0.2,0.1-0.3,0.1C8.7,78.6,8.5,78.2,9,77.9z M2,77.7c2-1.2,3.6-3,4.6-5.1c-0.7-0.6-1.4-1.2-2.2-1.7
	c-0.4-0.3-0.2-0.8,0.3-0.6c0.8,0.3,1.6,0.7,2.3,1.2c0.3-0.8,0.5-1.6,0.7-2.4c0-0.2,0.2-0.3,0.3-0.3c0,0,0,0,0.1,0
	c0.7,0.2,1.9,0.7,1.9,1.1c0,0.3-0.5,0.5-1.1,0.4c-0.2,0.7-0.5,1.4-0.8,2.1c0.8,0.6,1.5,1.4,2,2.4c0.4,0.8,0.2,1.4-0.4,1.5
	c-0.5,0.1-0.8-0.3-1.1-0.8c-0.4-0.5-0.8-1.2-1.3-1.8c-1.3,2-3.1,3.6-5.3,4.7c-0.1,0-0.2,0.1-0.3,0.1C1.7,78.4,1.6,78,2,77.7L2,77.7z
	 M112.4,75.5c0.1-0.5,0.1-0.9,0.3-1.3c0.2-1.4,0.2-2.7,0.1-4.1c0-0.2-0.1-0.4-0.2-0.6c-2,1.9-4.2,3.5-6.7,4.7
	c-0.8,0.4-1.1-0.4-0.5-0.8c3.7-2.3,7.6-5.8,8.9-8.1c0.4-0.7,0.3-0.9-0.3-1.7c-0.4-0.4-0.2-0.6,0.3-0.6c1,0,2.4,1,2.4,1.7
	c-0.1,0.5-0.3,0.9-0.6,1.2c-0.8,1-1.6,1.9-2.5,2.8c0.1,0.1,0.2,0.1,0.3,0.2c0.3,0.3,0.5,0.7,0.5,1.2c0.1,2,0.1,4,0,6.1
	c0,0.5-0.4,0.9-0.9,0.9c0,0,0,0,0,0C112.8,76.9,112.4,76.2,112.4,75.5z M57.4,75.5c4.6-2.1,7.7-5.6,8.7-8.9c0.2-0.5,0.1-0.6-0.5-0.5
	c-1.8,0.2-3.6,0.5-5.3,1c-0.7,0.2-1.4,0.4-2.1,0.5c-1-0.2-1.7-0.9-2-1.9c-0.1-0.5,0.2-0.7,0.6-0.4c0.4,0.3,1,0.5,1.5,0.6
	c1,0,4.7-0.5,6.4-0.7c0.9-0.1,1-0.4,1.5-0.4c0.9,0,2.1,1.1,2.1,1.6c0,0.6-0.6,0.6-1,1.5c-1.8,4.1-5.4,7.2-9.7,8.5
	c-0.1,0-0.1,0-0.2,0C57,76.4,56.9,75.8,57.4,75.5L57.4,75.5z M1.9,69.9c1.2-1.2,2.1-2.6,2.6-4.2c0.1-0.2,0.2-0.3,0.4-0.2
	c0.6,0.2,1.8,0.9,1.7,1.3c0,0.3-0.4,0.4-1,0.3c-0.8,1.3-2,2.5-3.3,3.3c-0.1,0.1-0.2,0.1-0.3,0.1C1.8,70.5,1.7,70.2,1.9,69.9z
	 M9.7,67.7c-0.3-0.4-0.7-0.9-1.1-1.3C8.3,66,8.5,65.6,9,65.7c1.3,0.4,2.4,1.1,2.6,2.1c0.1,0.5-0.2,0.9-0.6,1c0,0-0.1,0-0.1,0
	c0,0-0.1,0-0.1,0C10.3,68.9,10.1,68.3,9.7,67.7L9.7,67.7z M2.3,64.4c-0.3,0-0.4-0.1-0.4-0.4c0-0.3,0.2-0.4,0.4-0.4h4.1
	c0-0.9,0-1.9-0.1-2.8c0-0.1,0.1-0.3,0.2-0.3c0,0,0.1,0,0.1,0C7,60.5,9,60.5,9,61.1c0,0.4-0.4,0.6-1.1,0.7v1.8h1.6
	c0.4-0.5,0.8-1.1,1.1-1.1c0.4,0,1.7,1.1,1.7,1.5c0,0.3-0.3,0.4-1,0.4H2.3z M105.3,48c0-0.9,0.2-6.8,0.2-8.3c0.1-2.9,0-5.9-0.3-8.8
	c0-0.2,0.1-0.3,0.3-0.3c1.3,0,2.4,0.1,2.4,0.6c0,0.3-0.4,0.6-1,0.7c0,1.4,0,6.6,0,7.4c0,1.5,0.1,7.8,0.1,8.6c0,0.5-0.3,0.7-1,0.7
	c-0.3,0-0.6-0.2-0.6-0.5C105.3,48.1,105.3,48,105.3,48L105.3,48z M61.4,48c0-0.5,0.1-3.3,0.1-4.1v-1.3h-4.3c-0.3,0-0.4-0.1-0.4-0.4
	c0-0.3,0.2-0.4,0.4-0.4h4.3c0-0.8,0-1.6-0.1-2.3c0-0.1,0-0.2,0.2-0.3c0,0,0.1,0,0.1,0c0.9,0,2.2,0.1,2.2,0.6c0,0.3-0.4,0.5-1,0.6
	c0,0.3,0,0.8,0,1.4H65c0.4-0.5,0.8-1.1,1.1-1.1c0.4,0,1.6,1.1,1.6,1.5c0,0.3-0.3,0.4-1,0.4h-3.9V44c0,0.7,0,3.5,0,4
	c0,0.4-0.3,0.6-0.9,0.6c-0.3,0-0.5-0.2-0.6-0.4C61.4,48.1,61.4,48.1,61.4,48L61.4,48z M54.8,47.4c1.4-0.9,2.6-2.1,3.4-3.5
	c0.1-0.2,0.2-0.2,0.4-0.2c0,0,0,0,0.1,0c0.6,0.3,1.6,1.1,1.5,1.5c-0.1,0.3-0.4,0.3-1,0.2c-1.1,1.2-2.5,2.1-4.1,2.6
	c-0.1,0-0.2,0-0.2,0C54.5,48,54.4,47.7,54.8,47.4L54.8,47.4z M66.7,46.3c-0.4-0.5-0.9-1-1.4-1.5c-0.3-0.3-0.2-0.8,0.3-0.7
	c1.3,0.2,3,1,3.2,2.1c0.2,0.5-0.1,1-0.5,1.1c0,0-0.1,0-0.1,0c-0.1,0-0.1,0-0.2,0C67.5,47.4,67.1,46.9,66.7,46.3L66.7,46.3z
	 M108.5,47.4c-0.3,0-0.4-0.1-0.4-0.4c0-0.3,0.2-0.4,0.4-0.4h5.5c0-1.1,0-3,0-5.1h-3.9c-0.3,0-0.4-0.1-0.4-0.4c0-0.3,0.2-0.4,0.4-0.4
	h3.9c0-1.4,0-2.8,0-4.1h-2.7c-0.5,1-1.2,2-2,2.8c-0.4,0.4-0.9,0.1-0.6-0.4c1.3-2,2.1-4.3,2.3-6.7c0-0.2,0.1-0.3,0.4-0.2
	c0.6,0.1,2.1,0.7,2.1,1.1c0,0.3-0.4,0.4-1,0.4c-0.2,0.6-0.4,1.3-0.8,2.2h2.4c0-2.2-0.1-4-0.2-4.7c0-0.2,0.1-0.3,0.3-0.3
	c0.3,0,2.4,0.1,2.4,0.6c0,0.4-0.4,0.6-1.1,0.7v3.7h2.4c0.4-0.6,1-1.4,1.2-1.4c0.4,0,1.7,1.2,1.7,1.7c0,0.3-0.4,0.5-1,0.5h-4.4v4.1h2
	c0.4-0.7,1-1.4,1.3-1.4c0.4,0,1.7,1.2,1.7,1.7c0,0.3-0.4,0.5-1,0.5h-4v5.1h2.9c0.4-0.6,1-1.4,1.3-1.4c0.4,0,1.8,1.2,1.8,1.7
	c0,0.3-0.4,0.5-1,0.5L108.5,47.4z M11.1,45.6c3.5-0.7,5.7-2.1,5.7-5.4c0.1-2.1-1.2-4-3.1-4.8c-0.1,0.8-0.3,1.7-0.6,2.5
	c-1.2,3.2-4.5,7.2-6.9,7.2c-1.1,0-2.1-1.5-2.3-3.8c-0.2-2.1,0.5-4.2,2.1-5.6c1.4-1.2,3.1-1.8,4.9-1.8c4.8,0,7.5,3,7.5,6.6
	c0,3.8-3.1,5.8-7.2,5.8C10.6,46.4,10.5,45.8,11.1,45.6L11.1,45.6z M6.9,36.4c-1.2,1.1-1.8,2.8-1.6,4.4c0.1,1.5,0.6,2.5,1.2,2.5
	c1.9,0,4.8-3.9,5.7-6.6c0.2-0.5,0.3-1.1,0.4-1.6c-0.6-0.1-1.1-0.2-1.7-0.2C9.5,34.9,8,35.4,6.9,36.4L6.9,36.4z M53.2,42.4
	c3.4-1.7,6.3-4.3,8.3-7.5c0-0.1,0.2-0.3,0.3-0.2c0,0,0,0,0.1,0c0.7,0.2,1.7,0.7,1.6,1.1c0,0.1-0.2,0.2-0.5,0.2c2,2.6,5,3.8,8.2,4.3
	c0.6,0.1,0.5,0.5,0.1,0.6c-0.3,0.1-0.6,0.3-0.8,0.6c-0.3,0.4-0.5,0.5-1,0.4c-3-0.8-5.6-2.7-7.2-5.4c-2.3,3-5.4,5.3-8.9,6.6
	c-0.1,0-0.1,0-0.2,0C52.9,43,52.8,42.6,53.2,42.4L53.2,42.4z M102.6,38.8c-0.1-0.9,0.7-0.9,1-2.2c0.1-0.5,0.2-1.1,0.1-1.6
	c0-0.5,0.5-0.5,0.7-0.1c0.2,0.6,0.4,1.3,0.4,1.9c0.1,1.3-0.5,2.6-1.5,2.7h0C103,39.6,102.6,39.3,102.6,38.8
	C102.6,38.9,102.6,38.8,102.6,38.8L102.6,38.8z M108.4,36.6c-0.5-0.1-0.5-0.6-0.6-1.1c-0.1-0.4-0.2-0.7-0.3-1.1
	c-0.2-0.5,0.1-0.8,0.7-0.5c0.8,0.5,1.6,1.2,1.4,2c-0.1,0.4-0.4,0.7-0.8,0.7C108.6,36.6,108.5,36.6,108.4,36.6L108.4,36.6z
	 M58.3,35.9c0-0.4,0-1.3,0-2.2h-4.6c-0.3,0-0.4-0.1-0.4-0.4c0-0.3,0.2-0.4,0.4-0.4h4.5c0-0.7-0.1-1.4-0.1-2c0-0.2,0.1-0.3,0.3-0.3
	c0.8,0,2.3,0.1,2.3,0.6c0,0.3-0.3,0.6-1,0.7v1h4.5c0-0.7-0.1-1.4-0.1-2c0-0.2,0.1-0.3,0.3-0.3c0.8,0,2.3,0.1,2.3,0.6
	c0,0.3-0.3,0.6-1,0.7v1h2.4c0.4-0.6,1-1.4,1.3-1.4c0.4,0,1.8,1.2,1.8,1.7c0,0.3-0.3,0.5-1,0.5h-4.4v1.9c0,0.4-0.3,0.6-0.9,0.6
	c-0.4,0-0.6-0.2-0.6-0.5c0-0.4,0-1.2,0-2h-4.5v2.1c0,0.4-0.3,0.6-0.9,0.6C58.5,36.4,58.3,36.2,58.3,35.9L58.3,35.9z M104.3,18
	c0-2.1,0.2-10.4-0.1-13c0-0.2,0.1-0.3,0.3-0.3c0,0,0,0,0,0c0.7,0.1,1.3,0.4,1.9,0.8h5.2V2.7h-8c-0.3,0-0.4-0.1-0.4-0.4
	c0-0.3,0.2-0.4,0.4-0.4h14.3c0.4-0.6,1-1.4,1.3-1.4c0.4,0,1.9,1.2,1.9,1.7c0,0.3-0.3,0.5-1.1,0.5h-6.4c0,0,0,0.1,0,0.1
	c0,0.2-0.2,0.4-0.7,0.5v2.2h5.2c0.3-0.4,0.8-0.9,0.9-0.9c0.5,0,1.8,1.1,1.8,1.5c0,0.3-0.4,0.5-0.9,0.7c-0.1,2.5,0,6.6-0.1,9.9
	c0,1-0.8,1.8-1.8,1.7c0,0,0,0-0.1,0c-0.8,0-0.3-0.8-1.6-1.2c-0.4-0.1-0.3-0.7,0-0.7c0.2,0,1,0.1,1.3,0.1c0.5,0,0.7-0.2,0.8-0.7
	c0.1-1.1,0-3.2,0-4.8V6.3h-5.7V13h2.2c0-0.5,0-0.9,0-1.2c0-0.5,0-2.4-0.1-3.3c0-0.2,0.1-0.3,0.3-0.3c0.8,0,2.2,0.1,2.2,0.6
	c0,0.3-0.4,0.5-1,0.6c0,0.4,0,2.1,0,2.4c0,0.5,0,2.4,0,2.8c0,0.4-0.4,0.5-0.9,0.5c-0.3,0-0.6-0.2-0.6-0.5c0-0.1,0-0.5,0-0.9h-5.8
	l0,1.3c0,0.4-0.4,0.5-0.9,0.5c-0.3,0-0.5-0.1-0.5-0.4c0,0,0-0.1,0-0.1c0-0.4,0.1-2.5,0.1-3.1c0-0.5,0-2.6-0.1-3.4
	c0-0.1,0-0.2,0.2-0.3c0,0,0.1,0,0.1,0c0.8,0,2.2,0.1,2.2,0.6c0,0.3-0.4,0.5-1,0.6c0,0.5,0,2.2,0,2.6l0,0.9h2.3V6.3h-5.5
	c-0.1,0-0.1,0-0.2,0c-0.1,1.1-0.1,4.5-0.1,5.2l0,6.3c0,0.4-0.3,0.7-0.9,0.7c-0.3,0-0.5-0.2-0.6-0.4C104.3,18.1,104.3,18,104.3,18
	L104.3,18z M56.4,18c0-0.6,0.1-2,0.1-4.2v-3.1c-0.7,0.1-1.5,0.1-2.2,0.2c-0.1,0.5-0.4,0.9-0.7,0.8c-0.4-0.1-0.6-0.8-0.6-1.9
	c0-0.2,0.1-0.2,0.2-0.2c0.7,0,1.4,0,2.1,0c1.1-1.6,2.1-3.4,2.8-5.2c0.1-0.1,0.2-0.2,0.4-0.2c0,0,0,0,0,0c0.9,0.3,1.7,0.9,1.7,1.3
	c0,0.3-0.6,0.3-1,0.3c-0.7,1-1.6,2.5-2.6,3.7c0.9,0,1.7-0.1,2.4-0.1c-0.1-0.3-0.2-0.7-0.3-1C58.5,8,58.8,7.7,59.2,8
	c0.9,0.7,1.6,1.6,1.4,2.4c-0.1,0.4-0.4,0.7-0.8,0.6c0,0-0.1,0-0.1,0c-0.3-0.1-0.4-0.4-0.5-0.8c-0.3,0.1-0.6,0.1-0.9,0.2
	c0,0,0,0.1,0,0.1c0,0.2-0.2,0.3-0.5,0.3v3c0,2.1,0,3.5,0,4.1c0,0.4-0.3,0.7-0.9,0.7C56.5,18.6,56.4,18.3,56.4,18L56.4,18z M64.2,18
	c-0.3-0.3-0.8-0.5-1.2-0.6c-0.2,0-0.3-0.2-0.3-0.3c0-0.1,0.1-0.3,0.3-0.3c0,0,0,0,0,0c0.4,0,0.9,0,1.2,0c0.4,0,0.6-0.2,0.7-0.9
	c0-0.8,0-5.8,0-7.7h-4.4c-0.3,0-0.4-0.1-0.4-0.4c0-0.3,0.2-0.4,0.4-0.4h6.9l0-2.1h-5.4c-0.3,0-0.4-0.1-0.4-0.4
	c0-0.3,0.2-0.4,0.4-0.4h5.4v-2h-5.8c-0.3,0-0.4-0.1-0.4-0.4c0-0.3,0.2-0.4,0.4-0.4h5.4C67.5,1.4,67.8,1,68,1c0.4,0,1.4,0.8,1.4,1.2
	c0,0.3-0.3,0.5-0.6,0.6c0,1,0,3.4,0,4.7h0.3c0.4-0.6,0.8-1.2,1-1.2c0.4,0,1.4,1.1,1.4,1.5c0,0.3-0.4,0.4-0.8,0.4h-3.7
	c0,0.1-0.2,0.3-0.5,0.3c0.1,1.1,0.4,2.2,0.8,3.2c0.8-0.7,1.5-1.5,2.2-2.3c0.1-0.1,0.2-0.3,0.4-0.1c0.6,0.4,1.4,1.1,1.3,1.4
	c-0.1,0.3-0.4,0.3-0.9,0.1c-0.8,0.6-1.7,1.2-2.6,1.6c0.8,1.5,2.2,2.6,3.8,3.1c0.5,0.2,0.3,0.5,0,0.6c-0.3,0.1-0.6,0.3-0.8,0.5
	c-0.2,0.3-0.3,0.4-0.9,0.1c-2.4-1.4-3.4-4.3-3.7-8v7.8c0,1.3-0.6,1.8-1.3,1.8C64.5,18.5,64.4,18.2,64.2,18L64.2,18z M52.8,17.2
	c0.7-1.5,1.1-3.1,1.2-4.7c0-0.2,0.1-0.3,0.3-0.3c0,0,0.1,0,0.1,0c0.7,0.2,1.9,0.7,1.9,1.1c0,0.3-0.3,0.4-0.9,0.4
	c-0.3,1.4-1,2.8-1.9,3.9c-0.1,0.1-0.2,0.2-0.4,0.2C52.8,17.7,52.7,17.5,52.8,17.2z M6.4,16.6c-0.4-1.2-3.6-11.3-4.1-12
	C2.1,4.3,1.8,4.2,1,4C0.3,4,0.3,3.3,1.1,3.3c0.6,0,1.3,0.1,2,0.1c0.8,0,1.6-0.1,2.3-0.1c0.8,0,0.8,0.6,0.1,0.7c-1.1,0.2-1.2,0.5-1,1
	c0.3,1.1,2.5,7.8,2.9,9c0.1,0.2,0.1,0.2,0.2,0.1C7.8,14,10.3,7,11.1,4.9c0.1-0.4,0.3-0.8,0.6-1.1c0.2-0.3,0.6-0.3,0.6,0.2
	c0.1,0.4,0.4,1.5,0.6,2.3c0.4,1.3,2.3,6.6,2.8,8c0.1,0.2,0.2,0.2,0.2,0c0.6-1.7,1.8-5.1,2.4-7.1c0.3-0.7,0.4-1.5,0.6-2.3
	c0-0.4-0.2-0.6-1.5-0.8c-0.7-0.1-0.7-0.7,0-0.7c0.6,0,1.7,0,2.3,0c0.6,0,1.4-0.1,1.8-0.1c0.7,0,0.8,0.6,0,0.7
	c-0.9,0.1-1.1,0.4-1.6,1.6c-0.7,1.8-2.6,7.1-3.8,10.4c-0.4,1.1-0.7,1.4-0.9,1.4c-0.2,0-0.3-0.2-0.4-0.5c-0.5-1.5-2.7-7.8-3.5-9.9
	c0-0.1-0.1-0.1-0.1,0c-0.9,2.4-3.5,9.6-3.7,9.9c-0.2,0.3-0.4,0.6-0.6,0.6C6.8,17.5,6.7,17.4,6.4,16.6L6.4,16.6z M59.9,15.5
	c-0.1-0.1,0-0.2,0.1-0.3c0,0,0,0,0.1,0c1.4-0.6,2.8-1.3,3.9-1.9c0.6-0.3,0.9,0.1,0.4,0.6c-0.9,0.8-1.9,1.6-2.9,2.2
	c0,0.4,0,0.7-0.3,0.8c0,0-0.1,0-0.1,0C60.6,16.9,60.2,16.3,59.9,15.5L59.9,15.5z M59.5,14.6c-0.4-0.1-0.5-0.5-0.6-1.1
	c-0.1-0.4-0.2-0.8-0.3-1.1c-0.1-0.4,0.1-0.7,0.5-0.4c0.8,0.5,1.6,1.3,1.4,2.1c-0.1,0.4-0.4,0.6-0.7,0.6
	C59.7,14.6,59.6,14.6,59.5,14.6L59.5,14.6z M62.9,12.4c-0.5,0-0.6-0.5-0.9-1c-0.2-0.4-0.4-0.7-0.6-1c-0.2-0.4,0-0.8,0.5-0.6
	c0.9,0.4,1.9,0.9,1.8,1.8C63.8,12,63.5,12.4,62.9,12.4C63,12.4,63,12.4,62.9,12.4L62.9,12.4z M55.2,7.6c-0.5,0-0.6-0.6-1-1.3
	c-0.2-0.5-0.5-1-0.8-1.4c-0.3-0.4,0-0.8,0.5-0.6c0.4,0.2,0.7,0.4,1.1,0.7c0.7-1.3,1.3-2.8,1.6-4.2c0-0.1,0.2-0.2,0.3-0.2
	c0,0,0,0,0.1,0c0.9,0.3,1.9,1,1.9,1.4c0,0.2-0.4,0.3-0.9,0.2c-0.7,1.2-1.5,2.4-2.3,3.5C55.9,6,56,6.3,56,6.7c0,0.4-0.3,0.8-0.7,0.9
	C55.2,7.6,55.2,7.6,55.2,7.6L55.2,7.6z"/>
</svg>
