<?xml version="1.0" encoding="utf-8"?>
<!-- Generator: Adobe Illustrator 26.3.1, SVG Export Plug-In . SVG Version: 6.00 Build 0)  -->
<svg version="1.1" id="レイヤー_1" xmlns="http://www.w3.org/2000/svg" xmlns:xlink="http://www.w3.org/1999/xlink" x="0px"
	 y="0px" viewBox="0 0 125 210" style="enable-background:new 0 0 125 210;" xml:space="preserve">
<style type="text/css">
	.st0{enable-background:new    ;}
	.st1{fill:#141414;}
</style>
<g id="グループ_6465" transform="translate(-125 -1798)">
	<g class="st0">
		<path class="st1" d="M232.5,1807.6c0.4-0.5,0.9-1,1.2-1c0.4,0,1.9,1.3,1.9,1.9c0,0.3-0.4,0.5-1.1,0.7c-0.8,1.4-1.8,3.2-2.4,4.3
			c-0.2,0.3-0.2,0.4,0.1,0.7c1.8,1.7,2.7,2.8,2.7,5.4c0,1.8-0.8,3.5-2.5,3.5c-0.4,0-0.6-0.1-0.8-0.4c-0.3-0.5-0.6-0.6-1-0.8
			c-0.6-0.2-0.5-0.8,0-0.8c0.3,0,0.9,0.1,1.5,0.1c0.8,0,1.1-0.7,1.1-2.4c0-1.2-0.5-2.7-2.1-4.1c-0.5-0.4-0.5-0.6-0.2-1.2
			c0.5-1.1,1.3-3.5,1.7-4.8h-3.3c0,1.8-0.1,6.2-0.1,8.1c0,2.1,0.1,9.2,0.1,10.2c0,0.6-0.3,0.9-1.1,0.9c-0.5,0-0.7-0.3-0.7-0.7
			c0-0.8,0.2-8.2,0.2-9.9c0-2.3,0-7.4-0.3-10.3c0-0.3,0.1-0.4,0.4-0.4c0.6,0.2,1.7,0.8,2.2,1.2H232.5z M245.3,1810.8
			c0.5-0.8,1.2-1.7,1.6-1.7c0.5,0,2.2,1.5,2.2,2.1c0,0.4-0.5,0.6-1.2,0.6h-6.9c0.5,0.1,0.8,0.3,0.8,0.5c0,0.3-0.3,0.6-1.1,0.7
			c-0.1,0.9-0.1,1.9-0.2,2.9h4.3c0.3-0.4,0.7-0.7,0.9-0.7c0.5,0,2,1.1,2,1.5c0,0.3-0.4,0.6-0.8,0.9c0,2.6-0.3,6-1.1,7.6
			c-0.6,1.3-1.5,1.9-3.2,1.9c-0.6,0-0.8-0.3-1-0.6c-0.2-0.4-0.5-0.5-1-0.7c-0.3-0.1-0.4-0.3-0.4-0.6c0-0.2,0.2-0.3,0.5-0.3
			c0.6,0.1,1.3,0.2,2,0.2c0.9,0,1.3-0.4,1.5-0.9c0.7-1.3,1-4.8,0.9-7.3h-4.7c-0.2,1.8-0.6,3.5-1.3,5.1c-1.2,2.3-3.2,4.3-6.5,5.7
			c-0.6,0.2-0.9-0.5-0.4-0.7c2.7-1.6,4.1-3.2,5.1-4.9c1.3-2.3,1.5-5,1.6-6.8c0-0.9,0-2.2-0.1-3.4v0h-4.2c-0.3,0-0.5-0.1-0.5-0.5
			c0-0.4,0.2-0.5,0.5-0.5h5.3c0-1.5,0-3.4-0.1-4.3c0-0.2,0.1-0.4,0.3-0.4c0.4,0,2.8,0.1,2.8,0.7c0,0.5-0.5,0.7-1.3,0.9v3.1H245.3z"
			/>
	</g>
	<g class="st0">
		<path class="st1" d="M233.3,1848.2c0.4-0.5,0.9-1,1.2-1c0.5,0,2,1.2,2,1.7c0,0.3-0.4,0.6-0.9,0.8c-1.2,4.8-3.5,8.2-7.8,10.8
			c-0.6,0.4-1.2-0.3-0.6-0.8c3.7-2.9,5.7-6.4,6.5-10.6h-5.7c-0.3,0-0.5-0.1-0.5-0.5c0-0.4,0.2-0.5,0.5-0.5H233.3z M249.1,1858.8
			c-0.7,0.2-0.9,0.5-1.1,0.8c-0.3,0.4-0.5,0.6-1.2,0.3c-4.2-2.2-6.6-6-7.9-11.5c0,3.9,0,8.4,0,12.1c0,1.3-0.8,2.2-1.8,2.2
			c-0.8,0-0.5-0.8-2.2-1.4c-0.5-0.2-0.5-0.8,0-0.8c0.5,0,1.1,0.1,1.4,0.1c0.5,0,0.8-0.2,0.8-0.9c0.1-1.7,0-5.6,0-8.2
			c0-1.8,0-7.5-0.3-9.9c0-0.3,0.1-0.4,0.5-0.4c1.6,0,2.8,0.3,2.8,0.8c0,0.4-0.5,0.6-1.3,0.8c0,0.6,0,1.2,0,1.8
			c0.5,2.5,1.2,4.7,2.1,6.5c2-1.6,4-3.7,5.1-5.7c0.1-0.2,0.2-0.3,0.5-0.2c0.8,0.3,2.3,1.3,2.2,1.8c0,0.4-0.5,0.5-1.2,0.3
			c-1.3,1.4-3.6,3.4-6.1,4.7c1.7,3,4.2,5,7.5,6.2C249.8,1858.3,249.6,1858.6,249.1,1858.8z"/>
	</g>
	<g class="st0">
		<path class="st1" d="M230.1,1888c0-1.1,0.9-1.9,1.9-1.9s1.9,0.9,1.9,1.9c0,1.1-0.9,1.9-1.9,1.9S230.1,1889.1,230.1,1888z"/>
	</g>
	<g class="st0">
		<path class="st1" d="M232.5,1912.6c0.4-0.5,0.9-1,1.2-1c0.4,0,1.9,1.3,1.9,1.9c0,0.3-0.4,0.5-1.1,0.7c-0.8,1.4-1.8,3.2-2.4,4.3
			c-0.2,0.3-0.2,0.4,0.1,0.7c1.8,1.7,2.7,2.8,2.7,5.4c0,1.8-0.8,3.5-2.5,3.5c-0.4,0-0.6-0.1-0.8-0.4c-0.3-0.5-0.6-0.6-1-0.8
			c-0.6-0.2-0.5-0.8,0-0.8c0.3,0,0.9,0.1,1.5,0.1c0.8,0,1.1-0.7,1.1-2.4c0-1.2-0.5-2.7-2.1-4.1c-0.5-0.4-0.5-0.6-0.2-1.2
			c0.5-1.1,1.3-3.5,1.7-4.8h-3.3c0,1.8-0.1,6.2-0.1,8.1c0,2.1,0.1,9.2,0.1,10.2c0,0.6-0.3,0.9-1.1,0.9c-0.5,0-0.7-0.3-0.7-0.7
			c0-0.8,0.2-8.2,0.2-9.9c0-2.3,0-7.4-0.3-10.3c0-0.3,0.1-0.4,0.4-0.4c0.6,0.2,1.7,0.8,2.2,1.2H232.5z M245.3,1915.8
			c0.5-0.8,1.2-1.7,1.6-1.7c0.5,0,2.2,1.5,2.2,2.1c0,0.4-0.5,0.6-1.2,0.6h-6.9c0.5,0.1,0.8,0.3,0.8,0.5c0,0.3-0.3,0.6-1.1,0.7
			c-0.1,0.9-0.1,1.9-0.2,2.9h4.3c0.3-0.4,0.7-0.7,0.9-0.7c0.5,0,2,1.1,2,1.5c0,0.3-0.4,0.6-0.8,0.9c0,2.6-0.3,6-1.1,7.6
			c-0.6,1.3-1.5,1.9-3.2,1.9c-0.6,0-0.8-0.3-1-0.6c-0.2-0.4-0.5-0.5-1-0.7c-0.3-0.1-0.4-0.3-0.4-0.6c0-0.2,0.2-0.3,0.5-0.3
			c0.6,0.1,1.3,0.2,2,0.2c0.9,0,1.3-0.4,1.5-0.9c0.7-1.3,1-4.8,0.9-7.3h-4.7c-0.2,1.8-0.6,3.5-1.3,5.1c-1.2,2.3-3.2,4.3-6.5,5.7
			c-0.6,0.2-0.9-0.5-0.4-0.7c2.7-1.6,4.1-3.2,5.1-4.9c1.3-2.3,1.5-5,1.6-6.8c0-0.9,0-2.2-0.1-3.4v0h-4.2c-0.3,0-0.5-0.1-0.5-0.5
			c0-0.4,0.2-0.5,0.5-0.5h5.3c0-1.5,0-3.4-0.1-4.3c0-0.2,0.1-0.4,0.3-0.4c0.4,0,2.8,0.1,2.8,0.7c0,0.5-0.5,0.7-1.3,0.9v3.1H245.3z"
			/>
	</g>
	<g class="st0">
		<path class="st1" d="M231.8,1959.1c-0.4,1.4-1.6,3.5-1.6,4.2c0,0.8,0.4,1.3,0.4,2.5c0,1-0.5,1.5-1.2,1.5s-1-0.6-1-1.1
			c0-0.4,0.2-1.5,0-2.1c-0.3-0.9-0.8-1.2-1.4-1.7c-0.4-0.3,0-0.8,0.4-0.7c0.3,0.1,0.8,0.3,1.1,0.4c0.3,0.1,0.4,0,0.6-0.3
			c0.5-0.7,1.4-2.4,1.8-3.1C231.3,1958.2,232,1958.5,231.8,1959.1z M227.2,1953.5c-0.4-0.4-0.3-1,0.5-0.9c1.4,0.2,2.9,0.7,3.1,1.9
			c0.1,0.7-0.2,1.2-0.9,1.4c-0.6,0.1-1-0.4-1.5-1.1C228.1,1954.3,227.6,1953.9,227.2,1953.5z M228.4,1947.6c-0.4-0.4-0.2-1,0.5-0.9
			c1.4,0.2,2.9,0.9,3.1,2.1c0.1,0.7-0.2,1.2-0.9,1.3c-0.6,0.1-1-0.5-1.5-1.2C229.3,1948.5,228.8,1948,228.4,1947.6z M245.4,1953.3
			c0.5-0.8,1.2-1.7,1.6-1.7c0.5,0,2.3,1.5,2.3,2.1c0,0.3-0.4,0.6-1.4,0.6h-9.3l-0.7,3.7h6.3c0.3-0.5,0.8-1,1-1c0.5,0,2,1.1,2,1.5
			c0,0.3-0.4,0.6-0.9,0.9c-0.1,2.1-0.4,5.2-1.1,6.5c-0.6,1.2-1.5,1.8-3.3,1.8c-0.7,0-0.9-0.3-1.1-0.6c-0.3-0.5-0.6-0.6-1.1-0.7
			c-0.3-0.1-0.4-0.3-0.4-0.6c0-0.2,0.2-0.3,0.5-0.3c0.7,0.1,1.4,0.2,2.2,0.2c1,0,1.3-0.4,1.6-0.9c0.6-1,0.9-3.9,0.9-6h-7
			c-0.2,1.2-0.4,2.1-0.5,2.3c-0.1,0.5-0.6,0.6-1.3,0.6c-0.6,0-0.7-0.3-0.6-0.8c0.4-1.2,1.1-3.9,1.6-6.7h-4.6c-0.3,0-0.5-0.1-0.5-0.5
			c0-0.4,0.2-0.5,0.5-0.5h4.8c0.3-1.6,0.6-3.1,0.7-4.4h-4.3c-0.3,0-0.5-0.1-0.5-0.5c0-0.4,0.2-0.5,0.5-0.5h10.4
			c0.5-0.7,1.2-1.6,1.5-1.6c0.5,0,2.2,1.4,2.2,2c0,0.3-0.4,0.6-1.3,0.6h-5.6c0,0.4-0.5,0.5-1.1,0.6c-0.2,0.9-0.5,2.3-0.8,3.9H245.4z
			"/>
	</g>
	<g class="st0">
		<path class="st1" d="M194,1895.3c-0.1,0.4-0.6,0.7-1,0.7c-0.5-0.5-2.7-2.6-5.1-5.1c-1.8,1.8-3.6,3.7-5.1,5.2
			c-0.1,0-0.4-0.1-0.4-0.2c-0.1-0.2-0.3-0.6-0.1-1c1.6-1.6,3.2-3.2,4.8-4.9c-1.6-1.7-3.3-3.4-4.6-4.8c-0.2-0.2-0.3-0.4-0.3-0.5
			c0-0.3,0.5-1,1-1c1.7,1.8,3.4,3.6,5,5.3c1.7-1.8,3.5-3.6,5.1-5.3c0.3-0.1,0.8,0.4,0.8,1.1c-1,1.1-2.9,3-5,5.2
			c1.7,1.8,3.4,3.5,5.1,5.2C194,1895.1,194,1895.3,194,1895.3z"/>
	</g>
	<g class="st0">
		<path class="st1" d="M129.3,1815.4c0.3-0.5,0.8-1,1-1c0.5,0,1.8,1.1,1.8,1.6c0,0.3-0.4,0.6-0.9,0.8c0,1.3,0,4.1,0,5.5
			c0.7,1.1,1.6,1.8,4,2c3,0.3,8.7,0.2,12.4-0.1c0.7-0.1,0.7,0.6,0.1,0.8c-0.5,0.1-0.5,0.3-0.7,0.6c-0.2,0.4-0.3,0.5-0.8,0.5
			c-2.8,0.2-8.4,0.3-11.8-0.3c-2.1-0.4-3.2-1.5-3.9-3c-1,1.1-2.1,2.2-3,3.2c-0.3,0.7-0.7,0.8-1,0.4c-0.3-0.4-0.6-1.1-0.7-1.5
			c-0.1-0.3-0.1-0.4,0.3-0.6c1.1-0.5,2.5-1.3,3.6-2c0-1.3,0-4.5,0-5.9h-3.1c-0.3,0-0.5-0.1-0.5-0.5c0-0.4,0.2-0.5,0.5-0.5H129.3z
			 M127.8,1807c-0.4-0.5-0.1-1,0.6-0.8c1.5,0.5,3,1.6,3,2.9c0,0.7-0.4,1.2-1.1,1.2c-0.7,0-0.9-0.7-1.4-1.5
			C128.6,1808.2,128.1,1807.6,127.8,1807z M134,1807.2c-0.3,0-0.5-0.1-0.5-0.5c0-0.4,0.2-0.5,0.5-0.5h9.7c0.4-0.4,0.9-0.8,1.2-0.8
			c0.5,0,1.8,1.3,1.8,2c0,0.5-0.8,0.4-1.4,0.4c-0.9,0.5-2.3,1.4-3.6,2.2l0.1,0.1c0.2,0.4,0.2,0.7,0,1h2.8c0.3-0.4,0.7-0.8,0.8-0.8
			c0.6,0,2,1.3,2,1.7c0,0.3-0.5,0.6-1,0.7c0,2.2,0,5.6,0,8.5c0,1.4-1,2-1.9,2c-0.9,0-0.4-0.9-1.6-1.3c-0.5-0.2-0.4-0.8,0-0.8
			c0.2,0,0.9,0.1,1.2,0.1c0.5,0,0.7-0.2,0.8-0.8c0-0.5,0-1.2,0-1.9h-4l0,3.9c0,0.5-0.4,0.7-1,0.7c-0.4,0-0.6-0.2-0.6-0.6
			c0-0.3,0-2.4,0.1-3.9h-3.7l0,3.9c0,0.5-0.3,0.8-1,0.8c-0.4,0-0.6-0.2-0.6-0.7c0-2.1,0.2-9.3-0.1-12c0-0.2,0.1-0.3,0.4-0.3
			c0.4,0,1.3,0.4,1.8,0.7h4.2c-0.3-0.3-0.7-0.7-1.2-1.1c-0.5-0.4-1-0.7-1.5-1.1c-0.4-0.2-0.2-0.7,0.3-0.7c1.4,0.2,2.5,0.6,3.1,1.1
			c0.8-0.7,1.7-1.4,2.5-2.2H134z M135.7,1812.1c0,0.5,0,1.3-0.1,2.2h3.7c0-0.8,0-1.6-0.1-2.2H135.7z M139.4,1817.8v-0.6
			c0-0.3,0-1,0-1.8h-3.8v1.6v0.8H139.4z M144.9,1817.8v-1.5v-1h-4l0,2.1v0.4H144.9z M141.7,1812.1c0,0.2-0.3,0.4-0.7,0.5
			c0,0.3,0,1,0,1.8h4v-2.2H141.7z"/>
	</g>
	<g class="st0">
		<path class="st1" d="M132.2,1844.4c-1.2,2-3,4.1-5.4,5.7c-0.6,0.4-1.1-0.1-0.6-0.6c2.9-2.9,4.8-6,5.7-9.3c0-0.3,0.2-0.3,0.5-0.3
			c0.8,0.1,2.5,0.7,2.5,1.2c0,0.4-0.5,0.5-1.2,0.5c-0.3,0.6-0.6,1.2-0.9,1.8h10.1c0.6-0.8,1.2-1.7,1.6-1.7c0.5,0,2.3,1.5,2.3,2.1
			c0,0.3-0.5,0.6-1.4,0.6H132.2z M139.1,1858.9c0.3,0.8,0,1.2-0.6,1.4c-0.5,0.1-0.9,0-1.6-0.9c-0.7-0.9-1.4-1.7-2.2-2.4
			c-2,1.9-4.5,3.5-7.8,4.6c-0.6,0.2-0.9-0.5-0.3-0.8c2.6-1.3,5-2.8,7-4.8c-1.1-0.9-2.4-1.7-3.6-2.5c-0.6-0.3-0.3-1,0.3-0.8
			c1.6,0.5,3,1.2,4.3,2c0.7-0.9,1.3-1.9,1.8-3c0.1-0.2,0.3-0.3,0.5-0.2c0.8,0.3,2.1,1,2.1,1.5c0,0.4-0.5,0.5-1.2,0.4
			c-0.6,0.8-1.1,1.6-1.8,2.3C137.7,1857,138.8,1858.2,139.1,1858.9z M141.2,1849.8c0.4-0.5,0.9-1,1.2-1c0.6,0,1.9,1.2,1.9,1.8
			c0,0.4-0.5,0.7-1.2,0.9c-0.3,5.7,1.9,7.6,3,7.7c0.2,0,0.4-0.1,0.6-0.3c0.2-0.3,0.4-0.7,0.6-1.1c0.3-0.5,0.8-0.4,0.7,0.2
			c0,0.5-0.2,1.2-0.1,1.7c0,0.3,0.3,0.8,0.4,1.3c0,0.4-0.4,0.6-0.9,0.6c-2.4,0-6.2-2.2-5.8-10.8H129c-0.3,0-0.5-0.1-0.5-0.5
			c0-0.4,0.2-0.5,0.5-0.5H141.2z M140.2,1846.6c0.5-0.7,1.2-1.6,1.6-1.6c0.5,0,2.3,1.4,2.3,2c0,0.3-0.5,0.6-1.4,0.6h-10.3
			c-0.3,0-0.5-0.1-0.5-0.5c0-0.4,0.2-0.5,0.5-0.5H140.2z"/>
	</g>
	<g class="st0">
		<path class="st1" d="M128.2,1882.7c0.1,1.6-0.6,3.1-1.8,3.2c-0.5,0-1-0.3-1-0.9c-0.1-1,0.8-1.1,1.2-2.6c0.2-0.6,0.1-1.4,0.1-1.9
			c0-0.6,0.6-0.6,0.9-0.1C128,1881,128.2,1881.8,128.2,1882.7z M130.6,1885.5c0,1.8,0.1,9.3,0.1,10.3c0,0.6-0.4,0.9-1.2,0.9
			c-0.5,0-0.7-0.3-0.7-0.7c0-1.1,0.2-8.1,0.2-10c0-1,0.1-8.1-0.3-10.6c0-0.2,0.1-0.3,0.3-0.3c1.6,0,2.9,0.1,2.9,0.7
			c0,0.4-0.5,0.7-1.2,0.8C130.6,1878.4,130.6,1884.6,130.6,1885.5z M131.7,1880.9c-0.1-0.4-0.2-0.8-0.4-1.3c-0.2-0.6,0.2-1,0.8-0.6
			c1,0.6,2,1.5,1.7,2.4c-0.2,0.6-0.7,1-1.3,0.8C131.9,1882.1,131.8,1881.5,131.7,1880.9z M144.5,1894.4c0.5-0.8,1.2-1.7,1.5-1.7
			c0.5,0,2.1,1.5,2.1,2.1c0,0.3-0.4,0.6-1.2,0.6h-14.3c-0.3,0-0.5-0.1-0.5-0.5c0-0.4,0.2-0.5,0.5-0.5h6.6c0-1.3,0-3.6,0-6.1h-4.7
			c-0.3,0-0.5-0.1-0.5-0.5c0-0.4,0.2-0.5,0.5-0.5h4.7c0-1.7,0-3.4,0-5H136c-0.6,1.2-1.4,2.4-2.4,3.4c-0.5,0.5-1.1,0.1-0.7-0.4
			c1.7-2.7,2.5-5.5,2.7-8c0-0.2,0.2-0.4,0.5-0.3c0.8,0.1,2.5,0.8,2.5,1.3c0,0.4-0.5,0.5-1.2,0.5c-0.2,0.7-0.5,1.6-0.9,2.6h2.8
			c0-2.6-0.1-4.8-0.2-5.6c0-0.2,0.1-0.3,0.3-0.3c0.4,0,2.9,0.1,2.9,0.7c0,0.5-0.5,0.7-1.3,0.9v4.4h2.9c0.5-0.8,1.2-1.6,1.5-1.7
			c0.5,0,2.1,1.5,2.1,2.1c0,0.4-0.5,0.6-1.2,0.6H141v5h2.4c0.5-0.8,1.2-1.7,1.5-1.7c0.5,0,2.1,1.5,2.1,2.1c0,0.4-0.5,0.6-1.2,0.6
			H141v6.1H144.5z"/>
	</g>
	<g class="st0">
		<path class="st1" d="M143.3,1925.6c0,2.8-2.3,5.1-6.2,5.1c-2,0-4.2-1.2-4.2-3.7c0-0.6,0-1.3,0.1-2c-1.9-0.6-4.2-1.6-4.2-3.2
			c0-1.1,1.6-2.4,2.1-3.2c0.4-0.6,0.4-0.9,0-1.5c-0.3-0.5-0.8-1-1.6-1.8c-0.3-0.3-0.1-0.7,0.4-0.6c1.6,0.4,3,1.6,3.4,2.9
			c0.2,0.8,0,1.3-0.8,1.8c-0.9,0.6-2.4,1.5-2.4,2.2c0,0.7,1.7,1.3,3.4,1.7c0.3-1.8,0.7-3.6,0.9-4.8c0.3-1.3,0.6-3.3,0.6-4.2
			c0-0.7-0.4-1-1.2-1.6c-0.5-0.3-1-0.6-1-0.9c0-0.2,0.5-0.5,1-0.5c1.3,0,3.1,1.1,3.1,2.6c0,0.8-0.7,3-1.1,4.8c-0.3,1.1-0.7,3-1,4.8
			c2.4,0.3,2.9,0.5,2.9,1c0,0.4-0.2,0.9-1.6,0.9c-0.4,0-1,0-1.5-0.1c-0.1,0.6-0.1,1.1-0.1,1.5c0,1.9,1.3,2.4,2.8,2.4
			c3.2,0,4.4-1.9,4.4-3.9c0-2.6-2.8-4.3-4.1-5.2c-0.6-0.4-0.4-1,0.3-0.8C140.4,1920.1,143.3,1922.4,143.3,1925.6z"/>
	</g>
	<g class="st0">
		<path class="st1" d="M129.9,1960.4c0,0.4-0.4,0.5-1.1,0.5c-0.4,1.2-0.8,3.1-2.3,4.6c-0.5,0.4-1,0.2-0.7-0.4
			c0.9-1.9,1.3-3.7,1.4-5.6c0-0.2,0.2-0.4,0.5-0.3C128.4,1959.3,129.9,1959.9,129.9,1960.4z M130.2,1957.1c-0.9,0.1-1.9,0.2-2.8,0.2
			c-0.2,0.6-0.4,1-0.8,1c-0.5-0.1-0.7-1-0.7-2.3c0-0.2,0.1-0.3,0.3-0.3c0.9,0,1.8,0,2.6,0c1.4-1.9,2.6-4.2,3.3-6.2
			c0.1-0.2,0.3-0.3,0.5-0.2c1,0.4,2.1,1.1,2,1.5c0,0.4-0.7,0.4-1.2,0.4c-0.8,1.2-1.9,3-3.1,4.4c1.1,0,2,0,2.8-0.1
			c-0.1-0.4-0.2-0.8-0.3-1.1c-0.2-0.6,0.3-0.9,0.8-0.5c1.1,0.9,1.8,2.1,1.5,3.1c-0.2,0.6-0.6,0.9-1.2,0.7c-0.4-0.1-0.5-0.6-0.6-1.1
			c-0.3,0.1-0.6,0.1-0.9,0.2c0,0,0,0.1,0,0.1c0,0.2-0.2,0.3-0.6,0.4v3.6c0,2.5,0,4.2,0,4.9c0,0.5-0.3,0.9-1.1,0.9
			c-0.5,0-0.6-0.3-0.6-0.7c0-0.8,0.1-2.4,0.1-5V1957.1z M126.4,1950.2c-0.3-0.5,0-1,0.6-0.7c0.5,0.2,1,0.5,1.4,0.9
			c0.9-1.6,1.5-3.2,1.9-5c0-0.2,0.2-0.3,0.4-0.2c1.1,0.4,2.3,1.2,2.3,1.7c0,0.3-0.5,0.3-1.1,0.3c-0.7,1.2-1.7,2.8-2.7,4.2
			c0.2,0.4,0.4,0.8,0.4,1.2c0,0.6-0.4,1.1-1.1,1.1c-0.6,0-0.8-0.7-1.2-1.6C127.1,1951.3,126.7,1950.7,126.4,1950.2z M135.1,1962
			c-0.2,0.6-0.6,0.9-1.3,0.7c-0.6-0.2-0.6-0.7-0.7-1.5c-0.1-0.5-0.2-1-0.4-1.5c-0.2-0.5,0.2-0.8,0.7-0.5
			C134.5,1959.9,135.4,1961,135.1,1962z M144.8,1964c0.5-0.7,1.1-1.5,1.4-1.5c0.5,0,2.1,1.4,2.1,1.9c0,0.3-0.4,0.5-1.3,0.5h-9.3v0.9
			c0,0.5-0.3,0.8-1.1,0.8c-0.4,0-0.6-0.3-0.6-0.7c0-1.3,0.1-9.4,0.1-13.3c-0.4,0.5-0.8,1.1-1.2,1.5c-0.4,0.5-1.1,0.1-0.7-0.5
			c1.8-2.9,3-5.9,3.4-8.5c0-0.2,0.2-0.3,0.5-0.3c0.8,0.2,2.2,0.7,2.2,1.2c0,0.4-0.4,0.5-1.1,0.5c-0.3,0.8-0.7,1.9-1.3,3.2
			c0.1,0,0.3,0.1,0.4,0.2h2.5c0.6-1.5,1.1-3,1.3-4.5c0-0.2,0.2-0.4,0.5-0.3c0.8,0.2,2.2,0.9,2.2,1.3c0,0.4-0.4,0.5-1.1,0.5
			c-0.4,0.8-0.9,2-1.7,3h2.4c0.5-0.7,1.1-1.5,1.4-1.5c0.4,0,2.1,1.4,2.1,1.9c0,0.3-0.4,0.5-1.2,0.5h-3.2c0,0.2-0.3,0.4-0.7,0.6v3
			h1.3c0.5-0.7,1.1-1.4,1.4-1.4c0.4,0,2.1,1.3,2.1,1.9c0,0.3-0.4,0.5-1.2,0.5h-3.5v3.6h1.3c0.5-0.7,1-1.4,1.4-1.4
			c0.4,0,2.1,1.3,2.1,1.9c0,0.3-0.4,0.5-1.2,0.5h-3.5v4H144.8z M141,1955.5h-3.3c0,1.1,0,1.9,0,2.3v1.3h3.3L141,1955.5z M137.7,1964
			h3.3v-4h-3.3L137.7,1964z M141,1954.5v-3.6h-3l-0.2,0c0,0.7-0.1,2.1-0.1,3.6H141z"/>
	</g>
	<g class="st0">
		<path class="st1" d="M131.1,1986.6c0,1.5,0,3,0,4.6c1.1-0.4,2.1-0.8,3-1.1c0.9-0.4,1.2,0.3,0.4,0.8c-0.9,0.6-2,1.2-3.4,1.8
			c0,2.4,0,4.7,0,6.8c0,1.2-0.7,2.2-1.8,2.2c-0.9,0-0.5-0.8-2.1-1.3c-0.5-0.3-0.5-0.8,0-0.8c0.4,0,1.1,0.1,1.4,0.1
			c0.4,0,0.7-0.2,0.7-0.9c0.1-1.3,0.1-3.3,0-5.3c-0.6,0.2-1.2,0.5-1.9,0.7c-0.1,0.6-0.3,1.2-0.7,1.2c-0.5,0-0.9-1-1.1-2.3
			c0-0.2,0.1-0.3,0.3-0.3c1.2-0.3,2.4-0.6,3.5-0.9v-0.4c0-0.8,0-2.7,0-4.7h-3.1c-0.3,0-0.5-0.1-0.5-0.5c0-0.4,0.2-0.5,0.5-0.5h3
			c0-2.1-0.1-4.1-0.2-5.1c0-0.4,0-0.5,0.5-0.5c1.8,0,2.8,0.3,2.8,0.8c0,0.4-0.6,0.6-1.3,0.8c0,1.1,0,2.5,0,4h0.6
			c0.5-0.7,1.1-1.5,1.4-1.5c0.5,0,1.9,1.4,2,2c0,0.4-0.5,0.5-1.1,0.5H131.1z M144.9,1992.4c0.5-0.7,1-1.4,1.3-1.5
			c0.5,0,1.8,1.4,1.8,1.9c0,0.3-0.4,0.5-1,0.5h-2.6c0,2,0,4.5,0,6.5c0,1.1-0.8,1.8-1.8,1.8c-0.8,0-0.6-0.7-2.2-1.3
			c-0.6-0.2-0.5-0.8,0-0.8c0.5,0,1.3,0.1,1.6,0.1c0.5,0,0.8-0.2,0.8-0.7c0-1,0-2.5,0-3.8l0-1.8h-8.5c-0.3,0-0.5-0.1-0.5-0.5
			c0-0.4,0.2-0.5,0.5-0.5h8.5c0-0.9-0.1-1.8-0.1-2.4c0-0.3,0-0.4,0.3-0.4c1.3,0,2.6,0.2,2.6,0.7c0,0.4-0.6,0.6-1.2,0.7v1.4H144.9z
			 M144.7,1988.2c0.5-0.7,1.1-1.6,1.5-1.6c0.5,0,2,1.4,2,2c0,0.3-0.4,0.5-1.2,0.5h-12.7c-0.3,0-0.5-0.1-0.5-0.5
			c0-0.4,0.2-0.5,0.5-0.5h5.5c0-1,0-2.2,0-3.4h-4.6c-0.3,0-0.5-0.1-0.5-0.5c0-0.4,0.2-0.5,0.5-0.5h4.6c0-1.4-0.1-2.7-0.2-3.5
			c0-0.2,0.1-0.3,0.3-0.3c0.4,0,2.8,0.1,2.8,0.7c0,0.5-0.5,0.7-1.3,0.9v2.2h2.6c0.5-0.7,1.1-1.5,1.4-1.5c0.5,0,2,1.4,2,1.9
			c0,0.4-0.4,0.5-1.2,0.5h-4.8v3.4H144.7z M139.9,1997c0,0.7-0.4,1.2-1.2,1.3c-0.7,0-1-0.6-1.4-1.3c-0.2-0.5-0.6-1-0.9-1.5
			c-0.3-0.5-0.1-1,0.6-0.8C138.4,1995,139.9,1995.8,139.9,1997z"/>
	</g>
</g>
</svg>
