<svg xmlns="http://www.w3.org/2000/svg" width="176.463" height="19.281" viewBox="0 0 176.463 19.281">
  <path id="パス_22222" data-name="パス 22222" d="M-86.779,0V-17.273H-83.2v6.586h6.75v-6.586h3.586V0h-3.586V-7.711H-83.2V0Zm27.4-2.578a4.123,4.123,0,0,0,3.4-1.582,7.069,7.069,0,0,0,1.26-4.5,7.074,7.074,0,0,0-1.26-4.494,4.117,4.117,0,0,0-3.4-1.588A4.172,4.172,0,0,0-62.8-13.16a7,7,0,0,0-1.277,4.5A7,7,0,0,0-62.8-4.16,4.172,4.172,0,0,0-59.382-2.578Zm8.273-6.082q0,4.652-2.613,7.125A7.532,7.532,0,0,1-59.382.48a7.532,7.532,0,0,1-5.66-2.016q-2.625-2.473-2.625-7.125,0-4.746,2.625-7.125a7.532,7.532,0,0,1,5.66-2.016,7.532,7.532,0,0,1,5.66,2.016Q-51.109-13.406-51.109-8.66Zm7.509-8.613,2.285,9.891.492,2.754.5-2.7,1.945-9.949h3.809l2.051,9.891.527,2.754.527-2.648,2.309-10h3.668L-30.346,0h-3.445l-2.086-10.1-.609-3.34L-37.1-10.1-39.182,0h-3.352l-4.9-17.273Zm44.316,0v3.059H-4.452V0H-8.085V-14.215h-5.191v-3.059Zm11.728,14.7a4.123,4.123,0,0,0,3.4-1.582,7.069,7.069,0,0,0,1.26-4.5,7.074,7.074,0,0,0-1.26-4.494,4.117,4.117,0,0,0-3.4-1.588A4.172,4.172,0,0,0,9.022-13.16a7,7,0,0,0-1.277,4.5,7,7,0,0,0,1.277,4.5A4.172,4.172,0,0,0,12.444-2.578ZM20.718-8.66q0,4.652-2.613,7.125A7.532,7.532,0,0,1,12.444.48a7.532,7.532,0,0,1-5.66-2.016Q4.159-4.008,4.159-8.66q0-4.746,2.625-7.125a7.532,7.532,0,0,1,5.66-2.016,7.532,7.532,0,0,1,5.66,2.016Q20.718-13.406,20.718-8.66Zm17.726-5.613v3.809h4.242a3.537,3.537,0,0,0,1.846-.428,1.625,1.625,0,0,0,.709-1.518A1.545,1.545,0,0,0,44.3-14a6.635,6.635,0,0,0-2.062-.27Zm0,6.668V-3h4.242a4.164,4.164,0,0,0,1.77-.3A2.169,2.169,0,0,0,45.6-5.461,1.852,1.852,0,0,0,44.49-7.312a4.46,4.46,0,0,0-1.746-.293Zm4.945-9.668q3.176.047,4.5,1.84a4.377,4.377,0,0,1,.8,2.637,3.856,3.856,0,0,1-.8,2.543,4.113,4.113,0,0,1-1.312.984,3.851,3.851,0,0,1,2,1.523,4.566,4.566,0,0,1,.674,2.531,5.03,5.03,0,0,1-.773,2.754A4.773,4.773,0,0,1,47.244-1.1a4.8,4.8,0,0,1-1.963.867A12.1,12.1,0,0,1,42.826,0H35V-17.273Zm11.283,0h3.668V-6.656a6,6,0,0,0,.422,2.6Q59.418-2.6,61.621-2.6t2.848-1.453a6,6,0,0,0,.422-2.6V-17.273h3.668V-6.656A8.893,8.893,0,0,1,67.7-2.367Q66.109.445,61.621.445T55.527-2.367a8.893,8.893,0,0,1-.855-4.289Zm29.588,0h4.09L82.571-6.492V0H78.962V-6.492L72.986-17.273h4.254L80.825-9.75Z" transform="translate(87.279 18.301)" fill="none" stroke="#666" stroke-width="1"/>
</svg>
